%TF.GenerationSoftware,KiCad,Pcbnew,10.0.5*%
%TF.CreationDate,2026-07-31T21:24:14+01:00*%
%TF.ProjectId,KEYPAD,4b455950-4144-42e6-9b69-6361645f7063,rev?*%
%TF.SameCoordinates,Original*%
%TF.FileFunction,Profile,NP*%
%FSLAX46Y46*%
G04 Gerber Fmt 4.6, Leading zero omitted, Abs format (unit mm)*
G04 Created by KiCad (PCBNEW 10.0.5) date 2026-07-31 21:24:14*
%MOMM*%
%LPD*%
G01*
G04 APERTURE LIST*
%TA.AperFunction,Profile*%
%ADD10C,0.050000*%
%TD*%
%TA.AperFunction,Profile*%
%ADD11C,0.100000*%
%TD*%
G04 APERTURE END LIST*
D10*
X178000000Y-90250000D02*
X179000000Y-90250000D01*
X179000000Y-74250000D01*
X178000000Y-74250000D01*
X178000000Y-90250000D01*
X178000000Y-72750000D02*
X178000000Y-63000000D01*
X203000000Y-63000000D01*
X203000000Y-81500000D01*
X202000000Y-81500000D01*
X202000000Y-64000000D01*
X179000000Y-64000000D01*
X179000000Y-72750000D01*
X178000000Y-72750000D01*
X178000000Y-101000000D02*
X203000000Y-101000000D01*
X203000000Y-82500000D01*
X202000000Y-82500000D01*
X202000000Y-100000000D01*
X179000000Y-100000000D01*
X179000000Y-91750000D01*
X178000000Y-91750000D01*
X178000000Y-101000000D01*
X68173600Y-39116000D02*
X204114400Y-39116000D01*
X204114400Y-104190800D01*
X68173600Y-104190800D01*
X68173600Y-39116000D01*
%TO.C,LED3*%
D11*
X119688601Y-56544043D02*
X119688601Y-55138359D01*
X120594148Y-54341201D02*
X122183052Y-54341201D01*
X122183052Y-57341200D02*
X120594147Y-57341200D01*
X123088599Y-55138359D02*
X123088599Y-56544043D01*
X119639116Y-54921481D02*
G75*
G02*
X119688601Y-55138359I-450505J-216876D01*
G01*
X119639116Y-54921482D02*
G75*
G02*
X120341889Y-54272902I450514J216880D01*
G01*
X119688601Y-56544044D02*
G75*
G02*
X119639116Y-56760921I-499990J-1D01*
G01*
X120341889Y-57409499D02*
G75*
G02*
X119639116Y-56760921I-252258J431701D01*
G01*
X120341889Y-57409499D02*
G75*
G02*
X120594147Y-57341200I252261J-431710D01*
G01*
X120594148Y-54341201D02*
G75*
G02*
X120341889Y-54272902I2J500009D01*
G01*
X122183053Y-57341201D02*
G75*
G02*
X122435311Y-57409500I-3J-500009D01*
G01*
X122435310Y-54272902D02*
G75*
G02*
X122183052Y-54341200I-252260J431712D01*
G01*
X122435311Y-54272904D02*
G75*
G02*
X123138080Y-54921479I252259J-431696D01*
G01*
X123088599Y-55138358D02*
G75*
G02*
X123138083Y-54921481I500361J-82D01*
G01*
X123138084Y-56760921D02*
G75*
G02*
X122435311Y-57409500I-450514J-216879D01*
G01*
X123138084Y-56760921D02*
G75*
G02*
X123088624Y-56544043I450516J216821D01*
G01*
%TO.C,LED9*%
X119578601Y-98464643D02*
X119578601Y-97058959D01*
X120484148Y-96261801D02*
X122073052Y-96261801D01*
X122073052Y-99261800D02*
X120484147Y-99261800D01*
X122978599Y-97058959D02*
X122978599Y-98464643D01*
X119529116Y-96842081D02*
G75*
G02*
X119578601Y-97058959I-450505J-216876D01*
G01*
X119529116Y-96842082D02*
G75*
G02*
X120231889Y-96193502I450514J216880D01*
G01*
X119578601Y-98464644D02*
G75*
G02*
X119529116Y-98681521I-499990J-1D01*
G01*
X120231889Y-99330099D02*
G75*
G02*
X119529116Y-98681521I-252258J431701D01*
G01*
X120231889Y-99330099D02*
G75*
G02*
X120484147Y-99261800I252261J-431710D01*
G01*
X120484148Y-96261801D02*
G75*
G02*
X120231889Y-96193502I2J500009D01*
G01*
X122073053Y-99261801D02*
G75*
G02*
X122325311Y-99330100I-3J-500009D01*
G01*
X122325310Y-96193502D02*
G75*
G02*
X122073052Y-96261800I-252260J431712D01*
G01*
X122325311Y-96193504D02*
G75*
G02*
X123028080Y-96842079I252259J-431696D01*
G01*
X122978599Y-97058958D02*
G75*
G02*
X123028083Y-96842081I500361J-82D01*
G01*
X123028084Y-98681521D02*
G75*
G02*
X122325311Y-99330100I-450514J-216879D01*
G01*
X123028084Y-98681521D02*
G75*
G02*
X122978624Y-98464643I450516J216821D01*
G01*
%TO.C,LED12*%
X191544201Y-56570843D02*
X191544201Y-55165159D01*
X192449748Y-54368001D02*
X194038652Y-54368001D01*
X194038652Y-57368000D02*
X192449747Y-57368000D01*
X194944199Y-55165159D02*
X194944199Y-56570843D01*
X191494716Y-54948281D02*
G75*
G02*
X191544201Y-55165159I-450505J-216876D01*
G01*
X191494716Y-54948282D02*
G75*
G02*
X192197489Y-54299702I450514J216880D01*
G01*
X191544201Y-56570844D02*
G75*
G02*
X191494716Y-56787721I-499990J-1D01*
G01*
X192197489Y-57436299D02*
G75*
G02*
X191494716Y-56787721I-252258J431701D01*
G01*
X192197489Y-57436299D02*
G75*
G02*
X192449747Y-57368000I252261J-431710D01*
G01*
X192449748Y-54368001D02*
G75*
G02*
X192197489Y-54299702I2J500009D01*
G01*
X194038653Y-57368001D02*
G75*
G02*
X194290911Y-57436300I-3J-500009D01*
G01*
X194290910Y-54299702D02*
G75*
G02*
X194038652Y-54368000I-252260J431712D01*
G01*
X194290911Y-54299704D02*
G75*
G02*
X194993680Y-54948279I252259J-431696D01*
G01*
X194944199Y-55165158D02*
G75*
G02*
X194993683Y-54948281I500361J-82D01*
G01*
X194993684Y-56787721D02*
G75*
G02*
X194290911Y-57436300I-450514J-216879D01*
G01*
X194993684Y-56787721D02*
G75*
G02*
X194944224Y-56570843I450516J216821D01*
G01*
%TO.C,LED8*%
X98511101Y-98531643D02*
X98511101Y-97125959D01*
X99416648Y-96328801D02*
X101005552Y-96328801D01*
X101005552Y-99328800D02*
X99416647Y-99328800D01*
X101911099Y-97125959D02*
X101911099Y-98531643D01*
X98461616Y-96909081D02*
G75*
G02*
X98511101Y-97125959I-450505J-216876D01*
G01*
X98461616Y-96909082D02*
G75*
G02*
X99164389Y-96260502I450514J216880D01*
G01*
X98511101Y-98531644D02*
G75*
G02*
X98461616Y-98748521I-499990J-1D01*
G01*
X99164389Y-99397099D02*
G75*
G02*
X98461616Y-98748521I-252258J431701D01*
G01*
X99164389Y-99397099D02*
G75*
G02*
X99416647Y-99328800I252261J-431710D01*
G01*
X99416648Y-96328801D02*
G75*
G02*
X99164389Y-96260502I2J500009D01*
G01*
X101005553Y-99328801D02*
G75*
G02*
X101257811Y-99397100I-3J-500009D01*
G01*
X101257810Y-96260502D02*
G75*
G02*
X101005552Y-96328800I-252260J431712D01*
G01*
X101257811Y-96260504D02*
G75*
G02*
X101960580Y-96909079I252259J-431696D01*
G01*
X101911099Y-97125958D02*
G75*
G02*
X101960583Y-96909081I500361J-82D01*
G01*
X101960584Y-98748521D02*
G75*
G02*
X101257811Y-99397100I-450514J-216879D01*
G01*
X101960584Y-98748521D02*
G75*
G02*
X101911124Y-98531643I450516J216821D01*
G01*
%TO.C,LED10*%
X149378401Y-56580643D02*
X149378401Y-55174959D01*
X150283948Y-54377801D02*
X151872852Y-54377801D01*
X151872852Y-57377800D02*
X150283947Y-57377800D01*
X152778399Y-55174959D02*
X152778399Y-56580643D01*
X149328916Y-54958081D02*
G75*
G02*
X149378401Y-55174959I-450505J-216876D01*
G01*
X149328916Y-54958082D02*
G75*
G02*
X150031689Y-54309502I450514J216880D01*
G01*
X149378401Y-56580644D02*
G75*
G02*
X149328916Y-56797521I-499990J-1D01*
G01*
X150031689Y-57446099D02*
G75*
G02*
X149328916Y-56797521I-252258J431701D01*
G01*
X150031689Y-57446099D02*
G75*
G02*
X150283947Y-57377800I252261J-431710D01*
G01*
X150283948Y-54377801D02*
G75*
G02*
X150031689Y-54309502I2J500009D01*
G01*
X151872853Y-57377801D02*
G75*
G02*
X152125111Y-57446100I-3J-500009D01*
G01*
X152125110Y-54309502D02*
G75*
G02*
X151872852Y-54377800I-252260J431712D01*
G01*
X152125111Y-54309504D02*
G75*
G02*
X152827880Y-54958079I252259J-431696D01*
G01*
X152778399Y-55174958D02*
G75*
G02*
X152827883Y-54958081I500361J-82D01*
G01*
X152827884Y-56797521D02*
G75*
G02*
X152125111Y-57446100I-450514J-216879D01*
G01*
X152827884Y-56797521D02*
G75*
G02*
X152778424Y-56580643I450516J216821D01*
G01*
%TO.C,LED6*%
X119591001Y-77537843D02*
X119591001Y-76132159D01*
X120496548Y-75335001D02*
X122085452Y-75335001D01*
X122085452Y-78335000D02*
X120496547Y-78335000D01*
X122990999Y-76132159D02*
X122990999Y-77537843D01*
X119541516Y-75915281D02*
G75*
G02*
X119591001Y-76132159I-450505J-216876D01*
G01*
X119541516Y-75915282D02*
G75*
G02*
X120244289Y-75266702I450514J216880D01*
G01*
X119591001Y-77537844D02*
G75*
G02*
X119541516Y-77754721I-499990J-1D01*
G01*
X120244289Y-78403299D02*
G75*
G02*
X119541516Y-77754721I-252258J431701D01*
G01*
X120244289Y-78403299D02*
G75*
G02*
X120496547Y-78335000I252261J-431710D01*
G01*
X120496548Y-75335001D02*
G75*
G02*
X120244289Y-75266702I2J500009D01*
G01*
X122085453Y-78335001D02*
G75*
G02*
X122337711Y-78403300I-3J-500009D01*
G01*
X122337710Y-75266702D02*
G75*
G02*
X122085452Y-75335000I-252260J431712D01*
G01*
X122337711Y-75266704D02*
G75*
G02*
X123040480Y-75915279I252259J-431696D01*
G01*
X122990999Y-76132158D02*
G75*
G02*
X123040483Y-75915281I500361J-82D01*
G01*
X123040484Y-77754721D02*
G75*
G02*
X122337711Y-78403300I-450514J-216879D01*
G01*
X123040484Y-77754721D02*
G75*
G02*
X122991024Y-77537843I450516J216821D01*
G01*
%TO.C,LED2*%
X98733601Y-56520043D02*
X98733601Y-55114359D01*
X99639148Y-54317201D02*
X101228052Y-54317201D01*
X101228052Y-57317200D02*
X99639147Y-57317200D01*
X102133599Y-55114359D02*
X102133599Y-56520043D01*
X98684116Y-54897481D02*
G75*
G02*
X98733601Y-55114359I-450505J-216876D01*
G01*
X98684116Y-54897482D02*
G75*
G02*
X99386889Y-54248902I450514J216880D01*
G01*
X98733601Y-56520044D02*
G75*
G02*
X98684116Y-56736921I-499990J-1D01*
G01*
X99386889Y-57385499D02*
G75*
G02*
X98684116Y-56736921I-252258J431701D01*
G01*
X99386889Y-57385499D02*
G75*
G02*
X99639147Y-57317200I252261J-431710D01*
G01*
X99639148Y-54317201D02*
G75*
G02*
X99386889Y-54248902I2J500009D01*
G01*
X101228053Y-57317201D02*
G75*
G02*
X101480311Y-57385500I-3J-500009D01*
G01*
X101480310Y-54248902D02*
G75*
G02*
X101228052Y-54317200I-252260J431712D01*
G01*
X101480311Y-54248904D02*
G75*
G02*
X102183080Y-54897479I252259J-431696D01*
G01*
X102133599Y-55114358D02*
G75*
G02*
X102183083Y-54897481I500361J-82D01*
G01*
X102183084Y-56736921D02*
G75*
G02*
X101480311Y-57385500I-450514J-216879D01*
G01*
X102183084Y-56736921D02*
G75*
G02*
X102133624Y-56520043I450516J216821D01*
G01*
%TO.C,LED4*%
X77402801Y-77499043D02*
X77402801Y-76093359D01*
X78308348Y-75296201D02*
X79897252Y-75296201D01*
X79897252Y-78296200D02*
X78308347Y-78296200D01*
X80802799Y-76093359D02*
X80802799Y-77499043D01*
X77353316Y-75876481D02*
G75*
G02*
X77402801Y-76093359I-450505J-216876D01*
G01*
X77353316Y-75876482D02*
G75*
G02*
X78056089Y-75227902I450514J216880D01*
G01*
X77402801Y-77499044D02*
G75*
G02*
X77353316Y-77715921I-499990J-1D01*
G01*
X78056089Y-78364499D02*
G75*
G02*
X77353316Y-77715921I-252258J431701D01*
G01*
X78056089Y-78364499D02*
G75*
G02*
X78308347Y-78296200I252261J-431710D01*
G01*
X78308348Y-75296201D02*
G75*
G02*
X78056089Y-75227902I2J500009D01*
G01*
X79897253Y-78296201D02*
G75*
G02*
X80149511Y-78364500I-3J-500009D01*
G01*
X80149510Y-75227902D02*
G75*
G02*
X79897252Y-75296200I-252260J431712D01*
G01*
X80149511Y-75227904D02*
G75*
G02*
X80852280Y-75876479I252259J-431696D01*
G01*
X80802799Y-76093358D02*
G75*
G02*
X80852283Y-75876481I500361J-82D01*
G01*
X80852284Y-77715921D02*
G75*
G02*
X80149511Y-78364500I-450514J-216879D01*
G01*
X80852284Y-77715921D02*
G75*
G02*
X80802824Y-77499043I450516J216821D01*
G01*
%TO.C,LED5*%
X98617601Y-77495643D02*
X98617601Y-76089959D01*
X99523148Y-75292801D02*
X101112052Y-75292801D01*
X101112052Y-78292800D02*
X99523147Y-78292800D01*
X102017599Y-76089959D02*
X102017599Y-77495643D01*
X98568116Y-75873081D02*
G75*
G02*
X98617601Y-76089959I-450505J-216876D01*
G01*
X98568116Y-75873082D02*
G75*
G02*
X99270889Y-75224502I450514J216880D01*
G01*
X98617601Y-77495644D02*
G75*
G02*
X98568116Y-77712521I-499990J-1D01*
G01*
X99270889Y-78361099D02*
G75*
G02*
X98568116Y-77712521I-252258J431701D01*
G01*
X99270889Y-78361099D02*
G75*
G02*
X99523147Y-78292800I252261J-431710D01*
G01*
X99523148Y-75292801D02*
G75*
G02*
X99270889Y-75224502I2J500009D01*
G01*
X101112053Y-78292801D02*
G75*
G02*
X101364311Y-78361100I-3J-500009D01*
G01*
X101364310Y-75224502D02*
G75*
G02*
X101112052Y-75292800I-252260J431712D01*
G01*
X101364311Y-75224504D02*
G75*
G02*
X102067080Y-75873079I252259J-431696D01*
G01*
X102017599Y-76089958D02*
G75*
G02*
X102067083Y-75873081I500361J-82D01*
G01*
X102067084Y-77712521D02*
G75*
G02*
X101364311Y-78361100I-450514J-216879D01*
G01*
X102067084Y-77712521D02*
G75*
G02*
X102017624Y-77495643I450516J216821D01*
G01*
%TO.C,LED1*%
X77597201Y-56553843D02*
X77597201Y-55148159D01*
X78502748Y-54351001D02*
X80091652Y-54351001D01*
X80091652Y-57351000D02*
X78502747Y-57351000D01*
X80997199Y-55148159D02*
X80997199Y-56553843D01*
X77547716Y-54931281D02*
G75*
G02*
X77597201Y-55148159I-450505J-216876D01*
G01*
X77547716Y-54931282D02*
G75*
G02*
X78250489Y-54282702I450514J216880D01*
G01*
X77597201Y-56553844D02*
G75*
G02*
X77547716Y-56770721I-499990J-1D01*
G01*
X78250489Y-57419299D02*
G75*
G02*
X77547716Y-56770721I-252258J431701D01*
G01*
X78250489Y-57419299D02*
G75*
G02*
X78502747Y-57351000I252261J-431710D01*
G01*
X78502748Y-54351001D02*
G75*
G02*
X78250489Y-54282702I2J500009D01*
G01*
X80091653Y-57351001D02*
G75*
G02*
X80343911Y-57419300I-3J-500009D01*
G01*
X80343910Y-54282702D02*
G75*
G02*
X80091652Y-54351000I-252260J431712D01*
G01*
X80343911Y-54282704D02*
G75*
G02*
X81046680Y-54931279I252259J-431696D01*
G01*
X80997199Y-55148158D02*
G75*
G02*
X81046683Y-54931281I500361J-82D01*
G01*
X81046684Y-56770721D02*
G75*
G02*
X80343911Y-57419300I-450514J-216879D01*
G01*
X81046684Y-56770721D02*
G75*
G02*
X80997224Y-56553843I450516J216821D01*
G01*
%TO.C,LED7*%
X77439201Y-98508043D02*
X77439201Y-97102359D01*
X78344748Y-96305201D02*
X79933652Y-96305201D01*
X79933652Y-99305200D02*
X78344747Y-99305200D01*
X80839199Y-97102359D02*
X80839199Y-98508043D01*
X77389716Y-96885481D02*
G75*
G02*
X77439201Y-97102359I-450505J-216876D01*
G01*
X77389716Y-96885482D02*
G75*
G02*
X78092489Y-96236902I450514J216880D01*
G01*
X77439201Y-98508044D02*
G75*
G02*
X77389716Y-98724921I-499990J-1D01*
G01*
X78092489Y-99373499D02*
G75*
G02*
X77389716Y-98724921I-252258J431701D01*
G01*
X78092489Y-99373499D02*
G75*
G02*
X78344747Y-99305200I252261J-431710D01*
G01*
X78344748Y-96305201D02*
G75*
G02*
X78092489Y-96236902I2J500009D01*
G01*
X79933653Y-99305201D02*
G75*
G02*
X80185911Y-99373500I-3J-500009D01*
G01*
X80185910Y-96236902D02*
G75*
G02*
X79933652Y-96305200I-252260J431712D01*
G01*
X80185911Y-96236904D02*
G75*
G02*
X80888680Y-96885479I252259J-431696D01*
G01*
X80839199Y-97102358D02*
G75*
G02*
X80888683Y-96885481I500361J-82D01*
G01*
X80888684Y-98724921D02*
G75*
G02*
X80185911Y-99373500I-450514J-216879D01*
G01*
X80888684Y-98724921D02*
G75*
G02*
X80839224Y-98508043I450516J216821D01*
G01*
%TO.C,LED11*%
X170395601Y-56544043D02*
X170395601Y-55138359D01*
X171301148Y-54341201D02*
X172890052Y-54341201D01*
X172890052Y-57341200D02*
X171301147Y-57341200D01*
X173795599Y-55138359D02*
X173795599Y-56544043D01*
X170346116Y-54921481D02*
G75*
G02*
X170395601Y-55138359I-450505J-216876D01*
G01*
X170346116Y-54921482D02*
G75*
G02*
X171048889Y-54272902I450514J216880D01*
G01*
X170395601Y-56544044D02*
G75*
G02*
X170346116Y-56760921I-499990J-1D01*
G01*
X171048889Y-57409499D02*
G75*
G02*
X170346116Y-56760921I-252258J431701D01*
G01*
X171048889Y-57409499D02*
G75*
G02*
X171301147Y-57341200I252261J-431710D01*
G01*
X171301148Y-54341201D02*
G75*
G02*
X171048889Y-54272902I2J500009D01*
G01*
X172890053Y-57341201D02*
G75*
G02*
X173142311Y-57409500I-3J-500009D01*
G01*
X173142310Y-54272902D02*
G75*
G02*
X172890052Y-54341200I-252260J431712D01*
G01*
X173142311Y-54272904D02*
G75*
G02*
X173845080Y-54921479I252259J-431696D01*
G01*
X173795599Y-55138358D02*
G75*
G02*
X173845083Y-54921481I500361J-82D01*
G01*
X173845084Y-56760921D02*
G75*
G02*
X173142311Y-57409500I-450514J-216879D01*
G01*
X173845084Y-56760921D02*
G75*
G02*
X173795624Y-56544043I450516J216821D01*
G01*
%TD*%
M02*
