M48
; DRILL file KiCad 10.0.5 date 2026-07-31T21:24:07
; FORMAT={-:-/ absolute / metric / decimal}
; #@! TF.CreationDate,2026-07-31T21:24:07+01:00
; #@! TF.GenerationSoftware,Kicad,Pcbnew,10.0.5
; #@! TF.FileFunction,Plated,1,2,PTH
FMAT,2
METRIC
; #@! TA.AperFunction,Plated,PTH,ViaDrill
T1C0.300
; #@! TA.AperFunction,Plated,PTH,ComponentDrill
T2C1.000
; #@! TA.AperFunction,Plated,PTH,ComponentDrill
T3C1.500
; #@! TA.AperFunction,Plated,PTH,ComponentDrill
T4C3.000
%
G90
G05
T1
X73.75Y-82.25
X83.25Y-76.75
X95.25Y-77.5
X105.0Y-76.0
X105.0Y-79.75
X105.191Y-55.334
X107.8Y-63.65
X116.565Y-64.698
X116.85Y-56.55
X117.05Y-75.35
X117.05Y-77.6
X120.523Y-80.391
X121.45Y-64.698
X125.8Y-63.65
X127.178Y-81.28
X127.477Y-74.092
X128.25Y-83.0
X130.378Y-81.28
X131.445Y-75.819
X134.5Y-86.5
X134.5Y-93.25
X134.5Y-98.0
X139.544Y-69.137
X147.891Y-79.336
X151.575Y-81.975
X154.8Y-90.1
X155.05Y-88.025
X156.15Y-92.5
X156.85Y-79.0
X157.625Y-80.25
X158.25Y-71.701
X160.1Y-86.075
X160.1Y-92.15
X163.825Y-85.125
X165.125Y-98.1
X166.0Y-62.25
X168.95Y-58.85
X174.625Y-60.198
X175.313Y-61.722
X189.15Y-87.525
X190.05Y-82.625
X190.05Y-88.375
X195.865Y-80.96
T2
X124.46Y-102.235
X127.0Y-102.235
X129.54Y-102.235
X132.08Y-102.235
X134.62Y-102.235
X137.16Y-102.235
X139.7Y-102.235
X142.24Y-102.235
X144.78Y-102.235
X147.32Y-102.235
X149.86Y-102.235
X152.4Y-102.235
X154.94Y-102.235
X157.48Y-102.235
X160.02Y-102.235
X162.56Y-102.235
X165.1Y-102.235
X167.64Y-102.235
X170.18Y-102.235
X172.72Y-102.235
X175.26Y-102.235
X181.5Y-73.34
X181.5Y-75.88
X181.5Y-78.42
X181.5Y-80.96
X181.5Y-83.5
X181.5Y-86.04
X181.5Y-88.58
X181.5Y-91.12
X185.9Y-90.075
X185.9Y-92.575
X185.9Y-95.075
X185.925Y-69.1
X185.925Y-71.6
X185.925Y-74.1
X200.4Y-90.075
X200.4Y-95.075
X200.425Y-69.1
X200.425Y-74.1
T4
X75.266Y-69.215
X75.266Y-90.146
X75.565Y-48.26
X81.616Y-66.675
X81.616Y-87.606
X81.915Y-45.72
X96.428Y-90.17
X96.52Y-48.26
X96.52Y-69.215
X102.778Y-87.63
X102.87Y-45.72
X102.87Y-66.675
X117.475Y-48.26
X117.475Y-69.215
X117.475Y-90.146
X123.825Y-45.72
X123.825Y-66.675
X123.825Y-87.606
X147.24Y-48.287
X153.59Y-45.747
X168.275Y-48.26
X174.625Y-45.72
X189.41Y-48.26
X195.76Y-45.72
T3
G00X192.75Y-86.975
M15
G01X194.05Y-86.975
M16
G05
G00X192.75Y-98.175
M15
G01X194.05Y-98.175
M16
G05
G00X192.775Y-66.0
M15
G01X194.075Y-66.0
M16
G05
G00X192.775Y-77.2
M15
G01X194.075Y-77.2
M16
G05
M30
