%TF.GenerationSoftware,KiCad,Pcbnew,10.0.5*%
%TF.CreationDate,2026-07-31T21:24:14+01:00*%
%TF.ProjectId,KEYPAD,4b455950-4144-42e6-9b69-6361645f7063,rev?*%
%TF.SameCoordinates,Original*%
%TF.FileFunction,Soldermask,Bot*%
%TF.FilePolarity,Negative*%
%FSLAX46Y46*%
G04 Gerber Fmt 4.6, Leading zero omitted, Abs format (unit mm)*
G04 Created by KiCad (PCBNEW 10.0.5) date 2026-07-31 21:24:14*
%MOMM*%
%LPD*%
G01*
G04 APERTURE LIST*
G04 Aperture macros list*
%AMRoundRect*
0 Rectangle with rounded corners*
0 $1 Rounding radius*
0 $2 $3 $4 $5 $6 $7 $8 $9 X,Y pos of 4 corners*
0 Add a 4 corners polygon primitive as box body*
4,1,4,$2,$3,$4,$5,$6,$7,$8,$9,$2,$3,0*
0 Add four circle primitives for the rounded corners*
1,1,$1+$1,$2,$3*
1,1,$1+$1,$4,$5*
1,1,$1+$1,$6,$7*
1,1,$1+$1,$8,$9*
0 Add four rect primitives between the rounded corners*
20,1,$1+$1,$2,$3,$4,$5,0*
20,1,$1+$1,$4,$5,$6,$7,0*
20,1,$1+$1,$6,$7,$8,$9,0*
20,1,$1+$1,$8,$9,$2,$3,0*%
%AMFreePoly0*
4,1,18,-0.410000,0.593000,-0.403758,0.624380,-0.385983,0.650983,-0.359380,0.668758,-0.328000,0.675000,0.328000,0.675000,0.359380,0.668758,0.385983,0.650983,0.403758,0.624380,0.410000,0.593000,0.410000,-0.593000,0.403758,-0.624380,0.385983,-0.650983,0.359380,-0.668758,0.328000,-0.675000,0.000000,-0.675000,-0.410000,-0.265000,-0.410000,0.593000,-0.410000,0.593000,$1*%
G04 Aperture macros list end*
%ADD10R,1.700000X1.700000*%
%ADD11C,1.700000*%
%ADD12R,2.000000X2.000000*%
%ADD13C,2.000000*%
%ADD14R,3.200000X2.000000*%
%ADD15C,1.750000*%
%ADD16C,3.987800*%
%ADD17C,3.300000*%
%ADD18RoundRect,0.250000X1.025000X1.000000X-1.025000X1.000000X-1.025000X-1.000000X1.025000X-1.000000X0*%
%ADD19RoundRect,0.250000X-0.262500X-0.450000X0.262500X-0.450000X0.262500X0.450000X-0.262500X0.450000X0*%
%ADD20RoundRect,0.250000X-0.475000X0.250000X-0.475000X-0.250000X0.475000X-0.250000X0.475000X0.250000X0*%
%ADD21RoundRect,0.082000X-0.593000X0.328000X-0.593000X-0.328000X0.593000X-0.328000X0.593000X0.328000X0*%
%ADD22FreePoly0,270.000000*%
%ADD23RoundRect,0.250000X0.475000X-0.250000X0.475000X0.250000X-0.475000X0.250000X-0.475000X-0.250000X0*%
%ADD24RoundRect,0.250000X-0.450000X0.262500X-0.450000X-0.262500X0.450000X-0.262500X0.450000X0.262500X0*%
%ADD25RoundRect,0.250000X-0.250000X-0.475000X0.250000X-0.475000X0.250000X0.475000X-0.250000X0.475000X0*%
%ADD26RoundRect,0.250000X0.262500X0.450000X-0.262500X0.450000X-0.262500X-0.450000X0.262500X-0.450000X0*%
%ADD27RoundRect,0.250000X0.450000X-0.262500X0.450000X0.262500X-0.450000X0.262500X-0.450000X-0.262500X0*%
%ADD28RoundRect,0.150000X0.150000X-0.587500X0.150000X0.587500X-0.150000X0.587500X-0.150000X-0.587500X0*%
G04 APERTURE END LIST*
D10*
%TO.C,J2*%
X181500000Y-91120000D03*
D11*
X181500000Y-88580000D03*
X181500000Y-86040000D03*
X181500000Y-83500000D03*
X181500000Y-80960000D03*
X181500000Y-78420000D03*
X181500000Y-75880000D03*
X181500000Y-73340000D03*
%TD*%
D12*
%TO.C,SW1*%
X185925000Y-69100000D03*
D13*
X185925000Y-74100000D03*
X185925000Y-71600000D03*
D14*
X193425000Y-66000000D03*
X193425000Y-77200000D03*
D13*
X200425000Y-74100000D03*
X200425000Y-69100000D03*
%TD*%
D10*
%TO.C,J1*%
X124460000Y-102235000D03*
D11*
X127000000Y-102235000D03*
X129540000Y-102235000D03*
X132080000Y-102235000D03*
X134620000Y-102235000D03*
X137160000Y-102235000D03*
X139700000Y-102235000D03*
X142240000Y-102235000D03*
X144780000Y-102235000D03*
X147320000Y-102235000D03*
X149860000Y-102235000D03*
X152400000Y-102235000D03*
X154940000Y-102235000D03*
X157480000Y-102235000D03*
X160020000Y-102235000D03*
X162560000Y-102235000D03*
X165100000Y-102235000D03*
X167640000Y-102235000D03*
X170180000Y-102235000D03*
X172720000Y-102235000D03*
X175260000Y-102235000D03*
%TD*%
D12*
%TO.C,SW2*%
X185900000Y-90075000D03*
D13*
X185900000Y-95075000D03*
X185900000Y-92575000D03*
D14*
X193400000Y-86975000D03*
X193400000Y-98175000D03*
D13*
X200400000Y-95075000D03*
X200400000Y-90075000D03*
%TD*%
D15*
%TO.C,MX9*%
X126365000Y-92686400D03*
D16*
X121285000Y-92686400D03*
D15*
X116205000Y-92686400D03*
D17*
X117475000Y-90146400D03*
D18*
X113925000Y-90146400D03*
X127375000Y-87606400D03*
D17*
X123825000Y-87606400D03*
%TD*%
D19*
%TO.C,R8*%
X189175000Y-95000000D03*
X191000000Y-95000000D03*
%TD*%
D15*
%TO.C,MX1*%
X84455000Y-50800000D03*
D16*
X79375000Y-50800000D03*
D15*
X74295000Y-50800000D03*
D17*
X75565000Y-48260000D03*
D18*
X72015000Y-48260000D03*
X85465000Y-45720000D03*
D17*
X81915000Y-45720000D03*
%TD*%
D20*
%TO.C,C1*%
X154940000Y-81920000D03*
X154940000Y-83820000D03*
%TD*%
D15*
%TO.C,MX10*%
X156130000Y-50826800D03*
D16*
X151050000Y-50826800D03*
D15*
X145970000Y-50826800D03*
D17*
X147240000Y-48286800D03*
D18*
X143690000Y-48286800D03*
X157140000Y-45746800D03*
D17*
X153590000Y-45746800D03*
%TD*%
D21*
%TO.C,LED3*%
X124113600Y-56591200D03*
X124113600Y-55091200D03*
X118663600Y-56591200D03*
D22*
X118663600Y-55091200D03*
%TD*%
D21*
%TO.C,LED9*%
X124003600Y-98511800D03*
X124003600Y-97011800D03*
X118553600Y-98511800D03*
D22*
X118553600Y-97011800D03*
%TD*%
D21*
%TO.C,LED12*%
X195969200Y-56618000D03*
X195969200Y-55118000D03*
X190519200Y-56618000D03*
D22*
X190519200Y-55118000D03*
%TD*%
D15*
%TO.C,MX11*%
X177165000Y-50800000D03*
D16*
X172085000Y-50800000D03*
D15*
X167005000Y-50800000D03*
D17*
X168275000Y-48260000D03*
D18*
X164725000Y-48260000D03*
X178175000Y-45720000D03*
D17*
X174625000Y-45720000D03*
%TD*%
D23*
%TO.C,C11*%
X106875000Y-56275000D03*
X106875000Y-54375000D03*
%TD*%
D24*
%TO.C,R1*%
X161925000Y-81995000D03*
X161925000Y-83820000D03*
%TD*%
D15*
%TO.C,MX3*%
X126365000Y-50800000D03*
D16*
X121285000Y-50800000D03*
D15*
X116205000Y-50800000D03*
D17*
X117475000Y-48260000D03*
D18*
X113925000Y-48260000D03*
X127375000Y-45720000D03*
D17*
X123825000Y-45720000D03*
%TD*%
D25*
%TO.C,C12*%
X124875000Y-59000000D03*
X126775000Y-59000000D03*
%TD*%
D26*
%TO.C,R6*%
X197325000Y-95000000D03*
X195500000Y-95000000D03*
%TD*%
D23*
%TO.C,C6*%
X106575000Y-98150000D03*
X106575000Y-96250000D03*
%TD*%
D15*
%TO.C,MX5*%
X105410000Y-71755000D03*
D16*
X100330000Y-71755000D03*
D15*
X95250000Y-71755000D03*
D17*
X96520000Y-69215000D03*
D18*
X92970000Y-69215000D03*
X106420000Y-66675000D03*
D17*
X102870000Y-66675000D03*
%TD*%
D21*
%TO.C,LED8*%
X102936100Y-98578800D03*
X102936100Y-97078800D03*
X97486100Y-98578800D03*
D22*
X97486100Y-97078800D03*
%TD*%
D21*
%TO.C,LED10*%
X153803400Y-56627800D03*
X153803400Y-55127800D03*
X148353400Y-56627800D03*
D22*
X148353400Y-55127800D03*
%TD*%
D21*
%TO.C,LED6*%
X124016000Y-77585000D03*
X124016000Y-76085000D03*
X118566000Y-77585000D03*
D22*
X118566000Y-76085000D03*
%TD*%
D23*
%TO.C,C14*%
X166075000Y-57525000D03*
X166075000Y-55625000D03*
%TD*%
D19*
%TO.C,R3*%
X189587500Y-69000000D03*
X191412500Y-69000000D03*
%TD*%
D23*
%TO.C,C7*%
X84550000Y-77125000D03*
X84550000Y-75225000D03*
%TD*%
D21*
%TO.C,LED2*%
X103158600Y-56567200D03*
X103158600Y-55067200D03*
X97708600Y-56567200D03*
D22*
X97708600Y-55067200D03*
%TD*%
D15*
%TO.C,MX2*%
X105410000Y-50800000D03*
D16*
X100330000Y-50800000D03*
D15*
X95250000Y-50800000D03*
D17*
X96520000Y-48260000D03*
D18*
X92970000Y-48260000D03*
X106420000Y-45720000D03*
D17*
X102870000Y-45720000D03*
%TD*%
D27*
%TO.C,R2*%
X170180000Y-83820000D03*
X170180000Y-81995000D03*
%TD*%
D21*
%TO.C,LED4*%
X81827800Y-77546200D03*
X81827800Y-76046200D03*
X76377800Y-77546200D03*
D22*
X76377800Y-76046200D03*
%TD*%
D26*
%TO.C,R5*%
X197500000Y-74000000D03*
X195675000Y-74000000D03*
%TD*%
D21*
%TO.C,LED5*%
X103042600Y-77542800D03*
X103042600Y-76042800D03*
X97592600Y-77542800D03*
D22*
X97592600Y-76042800D03*
%TD*%
D23*
%TO.C,C15*%
X187125000Y-57500000D03*
X187125000Y-55600000D03*
%TD*%
D28*
%TO.C,Q2*%
X166812000Y-83820000D03*
X164912000Y-83820000D03*
X165862000Y-81945000D03*
%TD*%
D15*
%TO.C,MX8*%
X105317700Y-92710000D03*
D16*
X100237700Y-92710000D03*
D15*
X95157700Y-92710000D03*
D17*
X96427700Y-90170000D03*
D18*
X92877700Y-90170000D03*
X106327700Y-87630000D03*
D17*
X102777700Y-87630000D03*
%TD*%
D19*
%TO.C,R7*%
X189000000Y-90000000D03*
X190825000Y-90000000D03*
%TD*%
%TO.C,R4*%
X189675000Y-74000000D03*
X191500000Y-74000000D03*
%TD*%
D23*
%TO.C,C8*%
X107300000Y-77050000D03*
X107300000Y-75150000D03*
%TD*%
D15*
%TO.C,MX7*%
X84156200Y-92686400D03*
D16*
X79076200Y-92686400D03*
D15*
X73996200Y-92686400D03*
D17*
X75266200Y-90146400D03*
D18*
X71716200Y-90146400D03*
X85166200Y-87606400D03*
D17*
X81616200Y-87606400D03*
%TD*%
D15*
%TO.C,MX6*%
X126365000Y-71755000D03*
D16*
X121285000Y-71755000D03*
D15*
X116205000Y-71755000D03*
D17*
X117475000Y-69215000D03*
D18*
X113925000Y-69215000D03*
X127375000Y-66675000D03*
D17*
X123825000Y-66675000D03*
%TD*%
D21*
%TO.C,LED1*%
X82022200Y-56601000D03*
X82022200Y-55101000D03*
X76572200Y-56601000D03*
D22*
X76572200Y-55101000D03*
%TD*%
D15*
%TO.C,MX12*%
X198300000Y-50800000D03*
D16*
X193220000Y-50800000D03*
D15*
X188140000Y-50800000D03*
D17*
X189410000Y-48260000D03*
D18*
X185860000Y-48260000D03*
X199310000Y-45720000D03*
D17*
X195760000Y-45720000D03*
%TD*%
D23*
%TO.C,C13*%
X156675000Y-56250000D03*
X156675000Y-54350000D03*
%TD*%
D21*
%TO.C,LED7*%
X81864200Y-98555200D03*
X81864200Y-97055200D03*
X76414200Y-98555200D03*
D22*
X76414200Y-97055200D03*
%TD*%
D21*
%TO.C,LED11*%
X174820600Y-56591200D03*
X174820600Y-55091200D03*
X169370600Y-56591200D03*
D22*
X169370600Y-55091200D03*
%TD*%
D25*
%TO.C,C3*%
X125850000Y-95750000D03*
X127750000Y-95750000D03*
%TD*%
D23*
%TO.C,C5*%
X85500000Y-98100000D03*
X85500000Y-96200000D03*
%TD*%
D15*
%TO.C,MX4*%
X84156200Y-71755000D03*
D16*
X79076200Y-71755000D03*
D15*
X73996200Y-71755000D03*
D17*
X75266200Y-69215000D03*
D18*
X71716200Y-69215000D03*
X85166200Y-66675000D03*
D17*
X81616200Y-66675000D03*
%TD*%
D23*
%TO.C,C10*%
X85625000Y-56200000D03*
X85625000Y-54300000D03*
%TD*%
%TO.C,C4*%
X115450000Y-99300000D03*
X115450000Y-97400000D03*
%TD*%
D20*
%TO.C,C2*%
X158496000Y-81920000D03*
X158496000Y-83820000D03*
%TD*%
D23*
%TO.C,C9*%
X115450000Y-78550000D03*
X115450000Y-76650000D03*
%TD*%
M02*
