%TF.GenerationSoftware,KiCad,Pcbnew,10.0.5*%
%TF.CreationDate,2026-07-31T21:24:14+01:00*%
%TF.ProjectId,KEYPAD,4b455950-4144-42e6-9b69-6361645f7063,rev?*%
%TF.SameCoordinates,Original*%
%TF.FileFunction,Legend,Bot*%
%TF.FilePolarity,Positive*%
%FSLAX46Y46*%
G04 Gerber Fmt 4.6, Leading zero omitted, Abs format (unit mm)*
G04 Created by KiCad (PCBNEW 10.0.5) date 2026-07-31 21:24:14*
%MOMM*%
%LPD*%
G01*
G04 APERTURE LIST*
%ADD10C,0.100000*%
%ADD11C,0.200000*%
%ADD12C,0.250000*%
%ADD13C,0.500000*%
%ADD14C,0.150000*%
%ADD15C,0.120000*%
G04 APERTURE END LIST*
D10*
X131803258Y-100183609D02*
X132088972Y-100183609D01*
X131946115Y-100183609D02*
X131946115Y-99683609D01*
X131946115Y-99683609D02*
X131993734Y-99755038D01*
X131993734Y-99755038D02*
X132041353Y-99802657D01*
X132041353Y-99802657D02*
X132088972Y-99826466D01*
X134588972Y-99731228D02*
X134565163Y-99707419D01*
X134565163Y-99707419D02*
X134517544Y-99683609D01*
X134517544Y-99683609D02*
X134398496Y-99683609D01*
X134398496Y-99683609D02*
X134350877Y-99707419D01*
X134350877Y-99707419D02*
X134327068Y-99731228D01*
X134327068Y-99731228D02*
X134303258Y-99778847D01*
X134303258Y-99778847D02*
X134303258Y-99826466D01*
X134303258Y-99826466D02*
X134327068Y-99897895D01*
X134327068Y-99897895D02*
X134612782Y-100183609D01*
X134612782Y-100183609D02*
X134303258Y-100183609D01*
X137362782Y-99683609D02*
X137053258Y-99683609D01*
X137053258Y-99683609D02*
X137219925Y-99874085D01*
X137219925Y-99874085D02*
X137148496Y-99874085D01*
X137148496Y-99874085D02*
X137100877Y-99897895D01*
X137100877Y-99897895D02*
X137077068Y-99921704D01*
X137077068Y-99921704D02*
X137053258Y-99969323D01*
X137053258Y-99969323D02*
X137053258Y-100088371D01*
X137053258Y-100088371D02*
X137077068Y-100135990D01*
X137077068Y-100135990D02*
X137100877Y-100159800D01*
X137100877Y-100159800D02*
X137148496Y-100183609D01*
X137148496Y-100183609D02*
X137291353Y-100183609D01*
X137291353Y-100183609D02*
X137338972Y-100159800D01*
X137338972Y-100159800D02*
X137362782Y-100135990D01*
X139600877Y-99850276D02*
X139600877Y-100183609D01*
X139719925Y-99659800D02*
X139838972Y-100016942D01*
X139838972Y-100016942D02*
X139529449Y-100016942D01*
X142077068Y-99683609D02*
X142315163Y-99683609D01*
X142315163Y-99683609D02*
X142338972Y-99921704D01*
X142338972Y-99921704D02*
X142315163Y-99897895D01*
X142315163Y-99897895D02*
X142267544Y-99874085D01*
X142267544Y-99874085D02*
X142148496Y-99874085D01*
X142148496Y-99874085D02*
X142100877Y-99897895D01*
X142100877Y-99897895D02*
X142077068Y-99921704D01*
X142077068Y-99921704D02*
X142053258Y-99969323D01*
X142053258Y-99969323D02*
X142053258Y-100088371D01*
X142053258Y-100088371D02*
X142077068Y-100135990D01*
X142077068Y-100135990D02*
X142100877Y-100159800D01*
X142100877Y-100159800D02*
X142148496Y-100183609D01*
X142148496Y-100183609D02*
X142267544Y-100183609D01*
X142267544Y-100183609D02*
X142315163Y-100159800D01*
X142315163Y-100159800D02*
X142338972Y-100135990D01*
X144600877Y-99683609D02*
X144696115Y-99683609D01*
X144696115Y-99683609D02*
X144743734Y-99707419D01*
X144743734Y-99707419D02*
X144767544Y-99731228D01*
X144767544Y-99731228D02*
X144815163Y-99802657D01*
X144815163Y-99802657D02*
X144838972Y-99897895D01*
X144838972Y-99897895D02*
X144838972Y-100088371D01*
X144838972Y-100088371D02*
X144815163Y-100135990D01*
X144815163Y-100135990D02*
X144791353Y-100159800D01*
X144791353Y-100159800D02*
X144743734Y-100183609D01*
X144743734Y-100183609D02*
X144648496Y-100183609D01*
X144648496Y-100183609D02*
X144600877Y-100159800D01*
X144600877Y-100159800D02*
X144577068Y-100135990D01*
X144577068Y-100135990D02*
X144553258Y-100088371D01*
X144553258Y-100088371D02*
X144553258Y-99969323D01*
X144553258Y-99969323D02*
X144577068Y-99921704D01*
X144577068Y-99921704D02*
X144600877Y-99897895D01*
X144600877Y-99897895D02*
X144648496Y-99874085D01*
X144648496Y-99874085D02*
X144743734Y-99874085D01*
X144743734Y-99874085D02*
X144791353Y-99897895D01*
X144791353Y-99897895D02*
X144815163Y-99921704D01*
X144815163Y-99921704D02*
X144838972Y-99969323D01*
X147362782Y-99683609D02*
X147029449Y-99683609D01*
X147029449Y-99683609D02*
X147243734Y-100183609D01*
X149993734Y-99897895D02*
X150041353Y-99874085D01*
X150041353Y-99874085D02*
X150065163Y-99850276D01*
X150065163Y-99850276D02*
X150088972Y-99802657D01*
X150088972Y-99802657D02*
X150088972Y-99778847D01*
X150088972Y-99778847D02*
X150065163Y-99731228D01*
X150065163Y-99731228D02*
X150041353Y-99707419D01*
X150041353Y-99707419D02*
X149993734Y-99683609D01*
X149993734Y-99683609D02*
X149898496Y-99683609D01*
X149898496Y-99683609D02*
X149850877Y-99707419D01*
X149850877Y-99707419D02*
X149827068Y-99731228D01*
X149827068Y-99731228D02*
X149803258Y-99778847D01*
X149803258Y-99778847D02*
X149803258Y-99802657D01*
X149803258Y-99802657D02*
X149827068Y-99850276D01*
X149827068Y-99850276D02*
X149850877Y-99874085D01*
X149850877Y-99874085D02*
X149898496Y-99897895D01*
X149898496Y-99897895D02*
X149993734Y-99897895D01*
X149993734Y-99897895D02*
X150041353Y-99921704D01*
X150041353Y-99921704D02*
X150065163Y-99945514D01*
X150065163Y-99945514D02*
X150088972Y-99993133D01*
X150088972Y-99993133D02*
X150088972Y-100088371D01*
X150088972Y-100088371D02*
X150065163Y-100135990D01*
X150065163Y-100135990D02*
X150041353Y-100159800D01*
X150041353Y-100159800D02*
X149993734Y-100183609D01*
X149993734Y-100183609D02*
X149898496Y-100183609D01*
X149898496Y-100183609D02*
X149850877Y-100159800D01*
X149850877Y-100159800D02*
X149827068Y-100135990D01*
X149827068Y-100135990D02*
X149803258Y-100088371D01*
X149803258Y-100088371D02*
X149803258Y-99993133D01*
X149803258Y-99993133D02*
X149827068Y-99945514D01*
X149827068Y-99945514D02*
X149850877Y-99921704D01*
X149850877Y-99921704D02*
X149898496Y-99897895D01*
X152541353Y-100183609D02*
X152446115Y-100183609D01*
X152446115Y-100183609D02*
X152398496Y-100159800D01*
X152398496Y-100159800D02*
X152374687Y-100135990D01*
X152374687Y-100135990D02*
X152327068Y-100064561D01*
X152327068Y-100064561D02*
X152303258Y-99969323D01*
X152303258Y-99969323D02*
X152303258Y-99778847D01*
X152303258Y-99778847D02*
X152327068Y-99731228D01*
X152327068Y-99731228D02*
X152350877Y-99707419D01*
X152350877Y-99707419D02*
X152398496Y-99683609D01*
X152398496Y-99683609D02*
X152493734Y-99683609D01*
X152493734Y-99683609D02*
X152541353Y-99707419D01*
X152541353Y-99707419D02*
X152565163Y-99731228D01*
X152565163Y-99731228D02*
X152588972Y-99778847D01*
X152588972Y-99778847D02*
X152588972Y-99897895D01*
X152588972Y-99897895D02*
X152565163Y-99945514D01*
X152565163Y-99945514D02*
X152541353Y-99969323D01*
X152541353Y-99969323D02*
X152493734Y-99993133D01*
X152493734Y-99993133D02*
X152398496Y-99993133D01*
X152398496Y-99993133D02*
X152350877Y-99969323D01*
X152350877Y-99969323D02*
X152327068Y-99945514D01*
X152327068Y-99945514D02*
X152303258Y-99897895D01*
X170303258Y-100183609D02*
X170588972Y-100183609D01*
X170446115Y-100183609D02*
X170446115Y-99683609D01*
X170446115Y-99683609D02*
X170493734Y-99755038D01*
X170493734Y-99755038D02*
X170541353Y-99802657D01*
X170541353Y-99802657D02*
X170588972Y-99826466D01*
X169993735Y-99683609D02*
X169946116Y-99683609D01*
X169946116Y-99683609D02*
X169898497Y-99707419D01*
X169898497Y-99707419D02*
X169874687Y-99731228D01*
X169874687Y-99731228D02*
X169850878Y-99778847D01*
X169850878Y-99778847D02*
X169827068Y-99874085D01*
X169827068Y-99874085D02*
X169827068Y-99993133D01*
X169827068Y-99993133D02*
X169850878Y-100088371D01*
X169850878Y-100088371D02*
X169874687Y-100135990D01*
X169874687Y-100135990D02*
X169898497Y-100159800D01*
X169898497Y-100159800D02*
X169946116Y-100183609D01*
X169946116Y-100183609D02*
X169993735Y-100183609D01*
X169993735Y-100183609D02*
X170041354Y-100159800D01*
X170041354Y-100159800D02*
X170065163Y-100135990D01*
X170065163Y-100135990D02*
X170088973Y-100088371D01*
X170088973Y-100088371D02*
X170112782Y-99993133D01*
X170112782Y-99993133D02*
X170112782Y-99874085D01*
X170112782Y-99874085D02*
X170088973Y-99778847D01*
X170088973Y-99778847D02*
X170065163Y-99731228D01*
X170065163Y-99731228D02*
X170041354Y-99707419D01*
X170041354Y-99707419D02*
X169993735Y-99683609D01*
X172803258Y-100183609D02*
X173088972Y-100183609D01*
X172946115Y-100183609D02*
X172946115Y-99683609D01*
X172946115Y-99683609D02*
X172993734Y-99755038D01*
X172993734Y-99755038D02*
X173041353Y-99802657D01*
X173041353Y-99802657D02*
X173088972Y-99826466D01*
X172327068Y-100183609D02*
X172612782Y-100183609D01*
X172469925Y-100183609D02*
X172469925Y-99683609D01*
X172469925Y-99683609D02*
X172517544Y-99755038D01*
X172517544Y-99755038D02*
X172565163Y-99802657D01*
X172565163Y-99802657D02*
X172612782Y-99826466D01*
X175303258Y-100183609D02*
X175588972Y-100183609D01*
X175446115Y-100183609D02*
X175446115Y-99683609D01*
X175446115Y-99683609D02*
X175493734Y-99755038D01*
X175493734Y-99755038D02*
X175541353Y-99802657D01*
X175541353Y-99802657D02*
X175588972Y-99826466D01*
X175112782Y-99731228D02*
X175088973Y-99707419D01*
X175088973Y-99707419D02*
X175041354Y-99683609D01*
X175041354Y-99683609D02*
X174922306Y-99683609D01*
X174922306Y-99683609D02*
X174874687Y-99707419D01*
X174874687Y-99707419D02*
X174850878Y-99731228D01*
X174850878Y-99731228D02*
X174827068Y-99778847D01*
X174827068Y-99778847D02*
X174827068Y-99826466D01*
X174827068Y-99826466D02*
X174850878Y-99897895D01*
X174850878Y-99897895D02*
X175136592Y-100183609D01*
X175136592Y-100183609D02*
X174827068Y-100183609D01*
X184088972Y-76040752D02*
X183850877Y-76040752D01*
X184136591Y-76183609D02*
X183969925Y-75683609D01*
X183969925Y-75683609D02*
X183803258Y-76183609D01*
X183374687Y-76183609D02*
X183660401Y-76183609D01*
X183517544Y-76183609D02*
X183517544Y-75683609D01*
X183517544Y-75683609D02*
X183565163Y-75755038D01*
X183565163Y-75755038D02*
X183612782Y-75802657D01*
X183612782Y-75802657D02*
X183660401Y-75826466D01*
X183898496Y-78421704D02*
X183827068Y-78445514D01*
X183827068Y-78445514D02*
X183803258Y-78469323D01*
X183803258Y-78469323D02*
X183779449Y-78516942D01*
X183779449Y-78516942D02*
X183779449Y-78588371D01*
X183779449Y-78588371D02*
X183803258Y-78635990D01*
X183803258Y-78635990D02*
X183827068Y-78659800D01*
X183827068Y-78659800D02*
X183874687Y-78683609D01*
X183874687Y-78683609D02*
X184065163Y-78683609D01*
X184065163Y-78683609D02*
X184065163Y-78183609D01*
X184065163Y-78183609D02*
X183898496Y-78183609D01*
X183898496Y-78183609D02*
X183850877Y-78207419D01*
X183850877Y-78207419D02*
X183827068Y-78231228D01*
X183827068Y-78231228D02*
X183803258Y-78278847D01*
X183803258Y-78278847D02*
X183803258Y-78326466D01*
X183803258Y-78326466D02*
X183827068Y-78374085D01*
X183827068Y-78374085D02*
X183850877Y-78397895D01*
X183850877Y-78397895D02*
X183898496Y-78421704D01*
X183898496Y-78421704D02*
X184065163Y-78421704D01*
X183303258Y-78683609D02*
X183588972Y-78683609D01*
X183446115Y-78683609D02*
X183446115Y-78183609D01*
X183446115Y-78183609D02*
X183493734Y-78255038D01*
X183493734Y-78255038D02*
X183541353Y-78302657D01*
X183541353Y-78302657D02*
X183588972Y-78326466D01*
X184088972Y-83540752D02*
X183850877Y-83540752D01*
X184136591Y-83683609D02*
X183969925Y-83183609D01*
X183969925Y-83183609D02*
X183803258Y-83683609D01*
X183660401Y-83231228D02*
X183636592Y-83207419D01*
X183636592Y-83207419D02*
X183588973Y-83183609D01*
X183588973Y-83183609D02*
X183469925Y-83183609D01*
X183469925Y-83183609D02*
X183422306Y-83207419D01*
X183422306Y-83207419D02*
X183398497Y-83231228D01*
X183398497Y-83231228D02*
X183374687Y-83278847D01*
X183374687Y-83278847D02*
X183374687Y-83326466D01*
X183374687Y-83326466D02*
X183398497Y-83397895D01*
X183398497Y-83397895D02*
X183684211Y-83683609D01*
X183684211Y-83683609D02*
X183374687Y-83683609D01*
X183898496Y-85921704D02*
X183827068Y-85945514D01*
X183827068Y-85945514D02*
X183803258Y-85969323D01*
X183803258Y-85969323D02*
X183779449Y-86016942D01*
X183779449Y-86016942D02*
X183779449Y-86088371D01*
X183779449Y-86088371D02*
X183803258Y-86135990D01*
X183803258Y-86135990D02*
X183827068Y-86159800D01*
X183827068Y-86159800D02*
X183874687Y-86183609D01*
X183874687Y-86183609D02*
X184065163Y-86183609D01*
X184065163Y-86183609D02*
X184065163Y-85683609D01*
X184065163Y-85683609D02*
X183898496Y-85683609D01*
X183898496Y-85683609D02*
X183850877Y-85707419D01*
X183850877Y-85707419D02*
X183827068Y-85731228D01*
X183827068Y-85731228D02*
X183803258Y-85778847D01*
X183803258Y-85778847D02*
X183803258Y-85826466D01*
X183803258Y-85826466D02*
X183827068Y-85874085D01*
X183827068Y-85874085D02*
X183850877Y-85897895D01*
X183850877Y-85897895D02*
X183898496Y-85921704D01*
X183898496Y-85921704D02*
X184065163Y-85921704D01*
X183588972Y-85731228D02*
X183565163Y-85707419D01*
X183565163Y-85707419D02*
X183517544Y-85683609D01*
X183517544Y-85683609D02*
X183398496Y-85683609D01*
X183398496Y-85683609D02*
X183350877Y-85707419D01*
X183350877Y-85707419D02*
X183327068Y-85731228D01*
X183327068Y-85731228D02*
X183303258Y-85778847D01*
X183303258Y-85778847D02*
X183303258Y-85826466D01*
X183303258Y-85826466D02*
X183327068Y-85897895D01*
X183327068Y-85897895D02*
X183612782Y-86183609D01*
X183612782Y-86183609D02*
X183303258Y-86183609D01*
X184338972Y-88659800D02*
X184267544Y-88683609D01*
X184267544Y-88683609D02*
X184148496Y-88683609D01*
X184148496Y-88683609D02*
X184100877Y-88659800D01*
X184100877Y-88659800D02*
X184077068Y-88635990D01*
X184077068Y-88635990D02*
X184053258Y-88588371D01*
X184053258Y-88588371D02*
X184053258Y-88540752D01*
X184053258Y-88540752D02*
X184077068Y-88493133D01*
X184077068Y-88493133D02*
X184100877Y-88469323D01*
X184100877Y-88469323D02*
X184148496Y-88445514D01*
X184148496Y-88445514D02*
X184243734Y-88421704D01*
X184243734Y-88421704D02*
X184291353Y-88397895D01*
X184291353Y-88397895D02*
X184315163Y-88374085D01*
X184315163Y-88374085D02*
X184338972Y-88326466D01*
X184338972Y-88326466D02*
X184338972Y-88278847D01*
X184338972Y-88278847D02*
X184315163Y-88231228D01*
X184315163Y-88231228D02*
X184291353Y-88207419D01*
X184291353Y-88207419D02*
X184243734Y-88183609D01*
X184243734Y-88183609D02*
X184124687Y-88183609D01*
X184124687Y-88183609D02*
X184053258Y-88207419D01*
X183886592Y-88183609D02*
X183767544Y-88683609D01*
X183767544Y-88683609D02*
X183672306Y-88326466D01*
X183672306Y-88326466D02*
X183577068Y-88683609D01*
X183577068Y-88683609D02*
X183458021Y-88183609D01*
X183291353Y-88231228D02*
X183267544Y-88207419D01*
X183267544Y-88207419D02*
X183219925Y-88183609D01*
X183219925Y-88183609D02*
X183100877Y-88183609D01*
X183100877Y-88183609D02*
X183053258Y-88207419D01*
X183053258Y-88207419D02*
X183029449Y-88231228D01*
X183029449Y-88231228D02*
X183005639Y-88278847D01*
X183005639Y-88278847D02*
X183005639Y-88326466D01*
X183005639Y-88326466D02*
X183029449Y-88397895D01*
X183029449Y-88397895D02*
X183315163Y-88683609D01*
X183315163Y-88683609D02*
X183005639Y-88683609D01*
X184053258Y-91207419D02*
X184100877Y-91183609D01*
X184100877Y-91183609D02*
X184172306Y-91183609D01*
X184172306Y-91183609D02*
X184243734Y-91207419D01*
X184243734Y-91207419D02*
X184291353Y-91255038D01*
X184291353Y-91255038D02*
X184315163Y-91302657D01*
X184315163Y-91302657D02*
X184338972Y-91397895D01*
X184338972Y-91397895D02*
X184338972Y-91469323D01*
X184338972Y-91469323D02*
X184315163Y-91564561D01*
X184315163Y-91564561D02*
X184291353Y-91612180D01*
X184291353Y-91612180D02*
X184243734Y-91659800D01*
X184243734Y-91659800D02*
X184172306Y-91683609D01*
X184172306Y-91683609D02*
X184124687Y-91683609D01*
X184124687Y-91683609D02*
X184053258Y-91659800D01*
X184053258Y-91659800D02*
X184029449Y-91635990D01*
X184029449Y-91635990D02*
X184029449Y-91469323D01*
X184029449Y-91469323D02*
X184124687Y-91469323D01*
X183815163Y-91683609D02*
X183815163Y-91183609D01*
X183815163Y-91183609D02*
X183529449Y-91683609D01*
X183529449Y-91683609D02*
X183529449Y-91183609D01*
X183291353Y-91683609D02*
X183291353Y-91183609D01*
X183291353Y-91183609D02*
X183172305Y-91183609D01*
X183172305Y-91183609D02*
X183100877Y-91207419D01*
X183100877Y-91207419D02*
X183053258Y-91255038D01*
X183053258Y-91255038D02*
X183029448Y-91302657D01*
X183029448Y-91302657D02*
X183005639Y-91397895D01*
X183005639Y-91397895D02*
X183005639Y-91469323D01*
X183005639Y-91469323D02*
X183029448Y-91564561D01*
X183029448Y-91564561D02*
X183053258Y-91612180D01*
X183053258Y-91612180D02*
X183100877Y-91659800D01*
X183100877Y-91659800D02*
X183172305Y-91683609D01*
X183172305Y-91683609D02*
X183291353Y-91683609D01*
X184612782Y-72933609D02*
X184303258Y-72933609D01*
X184303258Y-72933609D02*
X184469925Y-73124085D01*
X184469925Y-73124085D02*
X184398496Y-73124085D01*
X184398496Y-73124085D02*
X184350877Y-73147895D01*
X184350877Y-73147895D02*
X184327068Y-73171704D01*
X184327068Y-73171704D02*
X184303258Y-73219323D01*
X184303258Y-73219323D02*
X184303258Y-73338371D01*
X184303258Y-73338371D02*
X184327068Y-73385990D01*
X184327068Y-73385990D02*
X184350877Y-73409800D01*
X184350877Y-73409800D02*
X184398496Y-73433609D01*
X184398496Y-73433609D02*
X184541353Y-73433609D01*
X184541353Y-73433609D02*
X184588972Y-73409800D01*
X184588972Y-73409800D02*
X184612782Y-73385990D01*
X184160401Y-72933609D02*
X183993735Y-73433609D01*
X183993735Y-73433609D02*
X183827068Y-72933609D01*
X183708021Y-72933609D02*
X183398497Y-72933609D01*
X183398497Y-72933609D02*
X183565164Y-73124085D01*
X183565164Y-73124085D02*
X183493735Y-73124085D01*
X183493735Y-73124085D02*
X183446116Y-73147895D01*
X183446116Y-73147895D02*
X183422307Y-73171704D01*
X183422307Y-73171704D02*
X183398497Y-73219323D01*
X183398497Y-73219323D02*
X183398497Y-73338371D01*
X183398497Y-73338371D02*
X183422307Y-73385990D01*
X183422307Y-73385990D02*
X183446116Y-73409800D01*
X183446116Y-73409800D02*
X183493735Y-73433609D01*
X183493735Y-73433609D02*
X183636592Y-73433609D01*
X183636592Y-73433609D02*
X183684211Y-73409800D01*
X183684211Y-73409800D02*
X183708021Y-73385990D01*
X184588972Y-81159800D02*
X184517544Y-81183609D01*
X184517544Y-81183609D02*
X184398496Y-81183609D01*
X184398496Y-81183609D02*
X184350877Y-81159800D01*
X184350877Y-81159800D02*
X184327068Y-81135990D01*
X184327068Y-81135990D02*
X184303258Y-81088371D01*
X184303258Y-81088371D02*
X184303258Y-81040752D01*
X184303258Y-81040752D02*
X184327068Y-80993133D01*
X184327068Y-80993133D02*
X184350877Y-80969323D01*
X184350877Y-80969323D02*
X184398496Y-80945514D01*
X184398496Y-80945514D02*
X184493734Y-80921704D01*
X184493734Y-80921704D02*
X184541353Y-80897895D01*
X184541353Y-80897895D02*
X184565163Y-80874085D01*
X184565163Y-80874085D02*
X184588972Y-80826466D01*
X184588972Y-80826466D02*
X184588972Y-80778847D01*
X184588972Y-80778847D02*
X184565163Y-80731228D01*
X184565163Y-80731228D02*
X184541353Y-80707419D01*
X184541353Y-80707419D02*
X184493734Y-80683609D01*
X184493734Y-80683609D02*
X184374687Y-80683609D01*
X184374687Y-80683609D02*
X184303258Y-80707419D01*
X184136592Y-80683609D02*
X184017544Y-81183609D01*
X184017544Y-81183609D02*
X183922306Y-80826466D01*
X183922306Y-80826466D02*
X183827068Y-81183609D01*
X183827068Y-81183609D02*
X183708021Y-80683609D01*
X183255639Y-81183609D02*
X183541353Y-81183609D01*
X183398496Y-81183609D02*
X183398496Y-80683609D01*
X183398496Y-80683609D02*
X183446115Y-80755038D01*
X183446115Y-80755038D02*
X183493734Y-80802657D01*
X183493734Y-80802657D02*
X183541353Y-80826466D01*
X124207419Y-99196741D02*
X124183609Y-99149122D01*
X124183609Y-99149122D02*
X124183609Y-99077693D01*
X124183609Y-99077693D02*
X124207419Y-99006265D01*
X124207419Y-99006265D02*
X124255038Y-98958646D01*
X124255038Y-98958646D02*
X124302657Y-98934836D01*
X124302657Y-98934836D02*
X124397895Y-98911027D01*
X124397895Y-98911027D02*
X124469323Y-98911027D01*
X124469323Y-98911027D02*
X124564561Y-98934836D01*
X124564561Y-98934836D02*
X124612180Y-98958646D01*
X124612180Y-98958646D02*
X124659800Y-99006265D01*
X124659800Y-99006265D02*
X124683609Y-99077693D01*
X124683609Y-99077693D02*
X124683609Y-99125312D01*
X124683609Y-99125312D02*
X124659800Y-99196741D01*
X124659800Y-99196741D02*
X124635990Y-99220550D01*
X124635990Y-99220550D02*
X124469323Y-99220550D01*
X124469323Y-99220550D02*
X124469323Y-99125312D01*
X124683609Y-99434836D02*
X124183609Y-99434836D01*
X124183609Y-99434836D02*
X124683609Y-99720550D01*
X124683609Y-99720550D02*
X124183609Y-99720550D01*
X124683609Y-99958646D02*
X124183609Y-99958646D01*
X124183609Y-99958646D02*
X124183609Y-100077694D01*
X124183609Y-100077694D02*
X124207419Y-100149122D01*
X124207419Y-100149122D02*
X124255038Y-100196741D01*
X124255038Y-100196741D02*
X124302657Y-100220551D01*
X124302657Y-100220551D02*
X124397895Y-100244360D01*
X124397895Y-100244360D02*
X124469323Y-100244360D01*
X124469323Y-100244360D02*
X124564561Y-100220551D01*
X124564561Y-100220551D02*
X124612180Y-100196741D01*
X124612180Y-100196741D02*
X124659800Y-100149122D01*
X124659800Y-100149122D02*
X124683609Y-100077694D01*
X124683609Y-100077694D02*
X124683609Y-99958646D01*
X126683609Y-99137217D02*
X126683609Y-99446741D01*
X126683609Y-99446741D02*
X126874085Y-99280074D01*
X126874085Y-99280074D02*
X126874085Y-99351503D01*
X126874085Y-99351503D02*
X126897895Y-99399122D01*
X126897895Y-99399122D02*
X126921704Y-99422931D01*
X126921704Y-99422931D02*
X126969323Y-99446741D01*
X126969323Y-99446741D02*
X127088371Y-99446741D01*
X127088371Y-99446741D02*
X127135990Y-99422931D01*
X127135990Y-99422931D02*
X127159800Y-99399122D01*
X127159800Y-99399122D02*
X127183609Y-99351503D01*
X127183609Y-99351503D02*
X127183609Y-99208646D01*
X127183609Y-99208646D02*
X127159800Y-99161027D01*
X127159800Y-99161027D02*
X127135990Y-99137217D01*
X126683609Y-99589598D02*
X127183609Y-99756264D01*
X127183609Y-99756264D02*
X126683609Y-99922931D01*
X126683609Y-100041978D02*
X126683609Y-100351502D01*
X126683609Y-100351502D02*
X126874085Y-100184835D01*
X126874085Y-100184835D02*
X126874085Y-100256264D01*
X126874085Y-100256264D02*
X126897895Y-100303883D01*
X126897895Y-100303883D02*
X126921704Y-100327692D01*
X126921704Y-100327692D02*
X126969323Y-100351502D01*
X126969323Y-100351502D02*
X127088371Y-100351502D01*
X127088371Y-100351502D02*
X127135990Y-100327692D01*
X127135990Y-100327692D02*
X127159800Y-100303883D01*
X127159800Y-100303883D02*
X127183609Y-100256264D01*
X127183609Y-100256264D02*
X127183609Y-100113407D01*
X127183609Y-100113407D02*
X127159800Y-100065788D01*
X127159800Y-100065788D02*
X127135990Y-100041978D01*
X129683609Y-97934836D02*
X129183609Y-97934836D01*
X129683609Y-98172931D02*
X129183609Y-98172931D01*
X129183609Y-98172931D02*
X129683609Y-98458645D01*
X129683609Y-98458645D02*
X129183609Y-98458645D01*
X129731228Y-98577694D02*
X129731228Y-98958646D01*
X129683609Y-99315788D02*
X129683609Y-99077693D01*
X129683609Y-99077693D02*
X129183609Y-99077693D01*
X129421704Y-99482455D02*
X129421704Y-99649122D01*
X129683609Y-99720550D02*
X129683609Y-99482455D01*
X129683609Y-99482455D02*
X129183609Y-99482455D01*
X129183609Y-99482455D02*
X129183609Y-99720550D01*
X129683609Y-99934836D02*
X129183609Y-99934836D01*
X129183609Y-99934836D02*
X129183609Y-100053884D01*
X129183609Y-100053884D02*
X129207419Y-100125312D01*
X129207419Y-100125312D02*
X129255038Y-100172931D01*
X129255038Y-100172931D02*
X129302657Y-100196741D01*
X129302657Y-100196741D02*
X129397895Y-100220550D01*
X129397895Y-100220550D02*
X129469323Y-100220550D01*
X129469323Y-100220550D02*
X129564561Y-100196741D01*
X129564561Y-100196741D02*
X129612180Y-100172931D01*
X129612180Y-100172931D02*
X129659800Y-100125312D01*
X129659800Y-100125312D02*
X129683609Y-100053884D01*
X129683609Y-100053884D02*
X129683609Y-99934836D01*
X155183609Y-99220550D02*
X154945514Y-99053884D01*
X155183609Y-98934836D02*
X154683609Y-98934836D01*
X154683609Y-98934836D02*
X154683609Y-99125312D01*
X154683609Y-99125312D02*
X154707419Y-99172931D01*
X154707419Y-99172931D02*
X154731228Y-99196741D01*
X154731228Y-99196741D02*
X154778847Y-99220550D01*
X154778847Y-99220550D02*
X154850276Y-99220550D01*
X154850276Y-99220550D02*
X154897895Y-99196741D01*
X154897895Y-99196741D02*
X154921704Y-99172931D01*
X154921704Y-99172931D02*
X154945514Y-99125312D01*
X154945514Y-99125312D02*
X154945514Y-98934836D01*
X155159800Y-99411027D02*
X155183609Y-99482455D01*
X155183609Y-99482455D02*
X155183609Y-99601503D01*
X155183609Y-99601503D02*
X155159800Y-99649122D01*
X155159800Y-99649122D02*
X155135990Y-99672931D01*
X155135990Y-99672931D02*
X155088371Y-99696741D01*
X155088371Y-99696741D02*
X155040752Y-99696741D01*
X155040752Y-99696741D02*
X154993133Y-99672931D01*
X154993133Y-99672931D02*
X154969323Y-99649122D01*
X154969323Y-99649122D02*
X154945514Y-99601503D01*
X154945514Y-99601503D02*
X154921704Y-99506265D01*
X154921704Y-99506265D02*
X154897895Y-99458646D01*
X154897895Y-99458646D02*
X154874085Y-99434836D01*
X154874085Y-99434836D02*
X154826466Y-99411027D01*
X154826466Y-99411027D02*
X154778847Y-99411027D01*
X154778847Y-99411027D02*
X154731228Y-99434836D01*
X154731228Y-99434836D02*
X154707419Y-99458646D01*
X154707419Y-99458646D02*
X154683609Y-99506265D01*
X154683609Y-99506265D02*
X154683609Y-99625312D01*
X154683609Y-99625312D02*
X154707419Y-99696741D01*
X154683609Y-99839598D02*
X154683609Y-100125312D01*
X155183609Y-99982455D02*
X154683609Y-99982455D01*
X157659800Y-98911027D02*
X157683609Y-98982455D01*
X157683609Y-98982455D02*
X157683609Y-99101503D01*
X157683609Y-99101503D02*
X157659800Y-99149122D01*
X157659800Y-99149122D02*
X157635990Y-99172931D01*
X157635990Y-99172931D02*
X157588371Y-99196741D01*
X157588371Y-99196741D02*
X157540752Y-99196741D01*
X157540752Y-99196741D02*
X157493133Y-99172931D01*
X157493133Y-99172931D02*
X157469323Y-99149122D01*
X157469323Y-99149122D02*
X157445514Y-99101503D01*
X157445514Y-99101503D02*
X157421704Y-99006265D01*
X157421704Y-99006265D02*
X157397895Y-98958646D01*
X157397895Y-98958646D02*
X157374085Y-98934836D01*
X157374085Y-98934836D02*
X157326466Y-98911027D01*
X157326466Y-98911027D02*
X157278847Y-98911027D01*
X157278847Y-98911027D02*
X157231228Y-98934836D01*
X157231228Y-98934836D02*
X157207419Y-98958646D01*
X157207419Y-98958646D02*
X157183609Y-99006265D01*
X157183609Y-99006265D02*
X157183609Y-99125312D01*
X157183609Y-99125312D02*
X157207419Y-99196741D01*
X157683609Y-99411026D02*
X157183609Y-99411026D01*
X157183609Y-99411026D02*
X157183609Y-99530074D01*
X157183609Y-99530074D02*
X157207419Y-99601502D01*
X157207419Y-99601502D02*
X157255038Y-99649121D01*
X157255038Y-99649121D02*
X157302657Y-99672931D01*
X157302657Y-99672931D02*
X157397895Y-99696740D01*
X157397895Y-99696740D02*
X157469323Y-99696740D01*
X157469323Y-99696740D02*
X157564561Y-99672931D01*
X157564561Y-99672931D02*
X157612180Y-99649121D01*
X157612180Y-99649121D02*
X157659800Y-99601502D01*
X157659800Y-99601502D02*
X157683609Y-99530074D01*
X157683609Y-99530074D02*
X157683609Y-99411026D01*
X157540752Y-99887217D02*
X157540752Y-100125312D01*
X157683609Y-99839598D02*
X157183609Y-100006264D01*
X157183609Y-100006264D02*
X157683609Y-100172931D01*
X160159800Y-98911027D02*
X160183609Y-98982455D01*
X160183609Y-98982455D02*
X160183609Y-99101503D01*
X160183609Y-99101503D02*
X160159800Y-99149122D01*
X160159800Y-99149122D02*
X160135990Y-99172931D01*
X160135990Y-99172931D02*
X160088371Y-99196741D01*
X160088371Y-99196741D02*
X160040752Y-99196741D01*
X160040752Y-99196741D02*
X159993133Y-99172931D01*
X159993133Y-99172931D02*
X159969323Y-99149122D01*
X159969323Y-99149122D02*
X159945514Y-99101503D01*
X159945514Y-99101503D02*
X159921704Y-99006265D01*
X159921704Y-99006265D02*
X159897895Y-98958646D01*
X159897895Y-98958646D02*
X159874085Y-98934836D01*
X159874085Y-98934836D02*
X159826466Y-98911027D01*
X159826466Y-98911027D02*
X159778847Y-98911027D01*
X159778847Y-98911027D02*
X159731228Y-98934836D01*
X159731228Y-98934836D02*
X159707419Y-98958646D01*
X159707419Y-98958646D02*
X159683609Y-99006265D01*
X159683609Y-99006265D02*
X159683609Y-99125312D01*
X159683609Y-99125312D02*
X159707419Y-99196741D01*
X160135990Y-99696740D02*
X160159800Y-99672931D01*
X160159800Y-99672931D02*
X160183609Y-99601502D01*
X160183609Y-99601502D02*
X160183609Y-99553883D01*
X160183609Y-99553883D02*
X160159800Y-99482455D01*
X160159800Y-99482455D02*
X160112180Y-99434836D01*
X160112180Y-99434836D02*
X160064561Y-99411026D01*
X160064561Y-99411026D02*
X159969323Y-99387217D01*
X159969323Y-99387217D02*
X159897895Y-99387217D01*
X159897895Y-99387217D02*
X159802657Y-99411026D01*
X159802657Y-99411026D02*
X159755038Y-99434836D01*
X159755038Y-99434836D02*
X159707419Y-99482455D01*
X159707419Y-99482455D02*
X159683609Y-99553883D01*
X159683609Y-99553883D02*
X159683609Y-99601502D01*
X159683609Y-99601502D02*
X159707419Y-99672931D01*
X159707419Y-99672931D02*
X159731228Y-99696740D01*
X160183609Y-100149121D02*
X160183609Y-99911026D01*
X160183609Y-99911026D02*
X159683609Y-99911026D01*
X162635990Y-99720550D02*
X162659800Y-99696741D01*
X162659800Y-99696741D02*
X162683609Y-99625312D01*
X162683609Y-99625312D02*
X162683609Y-99577693D01*
X162683609Y-99577693D02*
X162659800Y-99506265D01*
X162659800Y-99506265D02*
X162612180Y-99458646D01*
X162612180Y-99458646D02*
X162564561Y-99434836D01*
X162564561Y-99434836D02*
X162469323Y-99411027D01*
X162469323Y-99411027D02*
X162397895Y-99411027D01*
X162397895Y-99411027D02*
X162302657Y-99434836D01*
X162302657Y-99434836D02*
X162255038Y-99458646D01*
X162255038Y-99458646D02*
X162207419Y-99506265D01*
X162207419Y-99506265D02*
X162183609Y-99577693D01*
X162183609Y-99577693D02*
X162183609Y-99625312D01*
X162183609Y-99625312D02*
X162207419Y-99696741D01*
X162207419Y-99696741D02*
X162231228Y-99720550D01*
X162659800Y-99911027D02*
X162683609Y-99982455D01*
X162683609Y-99982455D02*
X162683609Y-100101503D01*
X162683609Y-100101503D02*
X162659800Y-100149122D01*
X162659800Y-100149122D02*
X162635990Y-100172931D01*
X162635990Y-100172931D02*
X162588371Y-100196741D01*
X162588371Y-100196741D02*
X162540752Y-100196741D01*
X162540752Y-100196741D02*
X162493133Y-100172931D01*
X162493133Y-100172931D02*
X162469323Y-100149122D01*
X162469323Y-100149122D02*
X162445514Y-100101503D01*
X162445514Y-100101503D02*
X162421704Y-100006265D01*
X162421704Y-100006265D02*
X162397895Y-99958646D01*
X162397895Y-99958646D02*
X162374085Y-99934836D01*
X162374085Y-99934836D02*
X162326466Y-99911027D01*
X162326466Y-99911027D02*
X162278847Y-99911027D01*
X162278847Y-99911027D02*
X162231228Y-99934836D01*
X162231228Y-99934836D02*
X162207419Y-99958646D01*
X162207419Y-99958646D02*
X162183609Y-100006265D01*
X162183609Y-100006265D02*
X162183609Y-100125312D01*
X162183609Y-100125312D02*
X162207419Y-100196741D01*
X165183609Y-99434836D02*
X164683609Y-99434836D01*
X164683609Y-99434836D02*
X164683609Y-99553884D01*
X164683609Y-99553884D02*
X164707419Y-99625312D01*
X164707419Y-99625312D02*
X164755038Y-99672931D01*
X164755038Y-99672931D02*
X164802657Y-99696741D01*
X164802657Y-99696741D02*
X164897895Y-99720550D01*
X164897895Y-99720550D02*
X164969323Y-99720550D01*
X164969323Y-99720550D02*
X165064561Y-99696741D01*
X165064561Y-99696741D02*
X165112180Y-99672931D01*
X165112180Y-99672931D02*
X165159800Y-99625312D01*
X165159800Y-99625312D02*
X165183609Y-99553884D01*
X165183609Y-99553884D02*
X165183609Y-99434836D01*
X165135990Y-100220550D02*
X165159800Y-100196741D01*
X165159800Y-100196741D02*
X165183609Y-100125312D01*
X165183609Y-100125312D02*
X165183609Y-100077693D01*
X165183609Y-100077693D02*
X165159800Y-100006265D01*
X165159800Y-100006265D02*
X165112180Y-99958646D01*
X165112180Y-99958646D02*
X165064561Y-99934836D01*
X165064561Y-99934836D02*
X164969323Y-99911027D01*
X164969323Y-99911027D02*
X164897895Y-99911027D01*
X164897895Y-99911027D02*
X164802657Y-99934836D01*
X164802657Y-99934836D02*
X164755038Y-99958646D01*
X164755038Y-99958646D02*
X164707419Y-100006265D01*
X164707419Y-100006265D02*
X164683609Y-100077693D01*
X164683609Y-100077693D02*
X164683609Y-100125312D01*
X164683609Y-100125312D02*
X164707419Y-100196741D01*
X164707419Y-100196741D02*
X164731228Y-100220550D01*
X167671704Y-98101503D02*
X167695514Y-98172931D01*
X167695514Y-98172931D02*
X167719323Y-98196741D01*
X167719323Y-98196741D02*
X167766942Y-98220550D01*
X167766942Y-98220550D02*
X167838371Y-98220550D01*
X167838371Y-98220550D02*
X167885990Y-98196741D01*
X167885990Y-98196741D02*
X167909800Y-98172931D01*
X167909800Y-98172931D02*
X167933609Y-98125312D01*
X167933609Y-98125312D02*
X167933609Y-97934836D01*
X167933609Y-97934836D02*
X167433609Y-97934836D01*
X167433609Y-97934836D02*
X167433609Y-98101503D01*
X167433609Y-98101503D02*
X167457419Y-98149122D01*
X167457419Y-98149122D02*
X167481228Y-98172931D01*
X167481228Y-98172931D02*
X167528847Y-98196741D01*
X167528847Y-98196741D02*
X167576466Y-98196741D01*
X167576466Y-98196741D02*
X167624085Y-98172931D01*
X167624085Y-98172931D02*
X167647895Y-98149122D01*
X167647895Y-98149122D02*
X167671704Y-98101503D01*
X167671704Y-98101503D02*
X167671704Y-97934836D01*
X167933609Y-98672931D02*
X167933609Y-98434836D01*
X167933609Y-98434836D02*
X167433609Y-98434836D01*
X167981228Y-98720551D02*
X167981228Y-99101503D01*
X167933609Y-99458645D02*
X167933609Y-99220550D01*
X167933609Y-99220550D02*
X167433609Y-99220550D01*
X167671704Y-99625312D02*
X167671704Y-99791979D01*
X167933609Y-99863407D02*
X167933609Y-99625312D01*
X167933609Y-99625312D02*
X167433609Y-99625312D01*
X167433609Y-99625312D02*
X167433609Y-99863407D01*
X167933609Y-100077693D02*
X167433609Y-100077693D01*
X167433609Y-100077693D02*
X167433609Y-100196741D01*
X167433609Y-100196741D02*
X167457419Y-100268169D01*
X167457419Y-100268169D02*
X167505038Y-100315788D01*
X167505038Y-100315788D02*
X167552657Y-100339598D01*
X167552657Y-100339598D02*
X167647895Y-100363407D01*
X167647895Y-100363407D02*
X167719323Y-100363407D01*
X167719323Y-100363407D02*
X167814561Y-100339598D01*
X167814561Y-100339598D02*
X167862180Y-100315788D01*
X167862180Y-100315788D02*
X167909800Y-100268169D01*
X167909800Y-100268169D02*
X167933609Y-100196741D01*
X167933609Y-100196741D02*
X167933609Y-100077693D01*
D11*
X136306028Y-41738720D02*
X134806028Y-41738720D01*
X136306028Y-42381578D02*
X135520314Y-42381578D01*
X135520314Y-42381578D02*
X135377457Y-42310149D01*
X135377457Y-42310149D02*
X135306028Y-42167292D01*
X135306028Y-42167292D02*
X135306028Y-41953006D01*
X135306028Y-41953006D02*
X135377457Y-41810149D01*
X135377457Y-41810149D02*
X135448885Y-41738720D01*
X135306028Y-42881578D02*
X135306028Y-43453006D01*
X134806028Y-43095863D02*
X136091742Y-43095863D01*
X136091742Y-43095863D02*
X136234600Y-43167292D01*
X136234600Y-43167292D02*
X136306028Y-43310149D01*
X136306028Y-43310149D02*
X136306028Y-43453006D01*
X135306028Y-43738721D02*
X135306028Y-44310149D01*
X134806028Y-43953006D02*
X136091742Y-43953006D01*
X136091742Y-43953006D02*
X136234600Y-44024435D01*
X136234600Y-44024435D02*
X136306028Y-44167292D01*
X136306028Y-44167292D02*
X136306028Y-44310149D01*
X135306028Y-44810149D02*
X136806028Y-44810149D01*
X135377457Y-44810149D02*
X135306028Y-44953007D01*
X135306028Y-44953007D02*
X135306028Y-45238721D01*
X135306028Y-45238721D02*
X135377457Y-45381578D01*
X135377457Y-45381578D02*
X135448885Y-45453007D01*
X135448885Y-45453007D02*
X135591742Y-45524435D01*
X135591742Y-45524435D02*
X136020314Y-45524435D01*
X136020314Y-45524435D02*
X136163171Y-45453007D01*
X136163171Y-45453007D02*
X136234600Y-45381578D01*
X136234600Y-45381578D02*
X136306028Y-45238721D01*
X136306028Y-45238721D02*
X136306028Y-44953007D01*
X136306028Y-44953007D02*
X136234600Y-44810149D01*
X136234600Y-46095864D02*
X136306028Y-46238721D01*
X136306028Y-46238721D02*
X136306028Y-46524435D01*
X136306028Y-46524435D02*
X136234600Y-46667292D01*
X136234600Y-46667292D02*
X136091742Y-46738721D01*
X136091742Y-46738721D02*
X136020314Y-46738721D01*
X136020314Y-46738721D02*
X135877457Y-46667292D01*
X135877457Y-46667292D02*
X135806028Y-46524435D01*
X135806028Y-46524435D02*
X135806028Y-46310150D01*
X135806028Y-46310150D02*
X135734600Y-46167292D01*
X135734600Y-46167292D02*
X135591742Y-46095864D01*
X135591742Y-46095864D02*
X135520314Y-46095864D01*
X135520314Y-46095864D02*
X135377457Y-46167292D01*
X135377457Y-46167292D02*
X135306028Y-46310150D01*
X135306028Y-46310150D02*
X135306028Y-46524435D01*
X135306028Y-46524435D02*
X135377457Y-46667292D01*
X136163171Y-47381578D02*
X136234600Y-47453007D01*
X136234600Y-47453007D02*
X136306028Y-47381578D01*
X136306028Y-47381578D02*
X136234600Y-47310150D01*
X136234600Y-47310150D02*
X136163171Y-47381578D01*
X136163171Y-47381578D02*
X136306028Y-47381578D01*
X135377457Y-47381578D02*
X135448885Y-47453007D01*
X135448885Y-47453007D02*
X135520314Y-47381578D01*
X135520314Y-47381578D02*
X135448885Y-47310150D01*
X135448885Y-47310150D02*
X135377457Y-47381578D01*
X135377457Y-47381578D02*
X135520314Y-47381578D01*
X134734600Y-49167293D02*
X136663171Y-47881579D01*
X134734600Y-50738722D02*
X136663171Y-49453008D01*
X135306028Y-51024437D02*
X135306028Y-51595865D01*
X136306028Y-51238722D02*
X135020314Y-51238722D01*
X135020314Y-51238722D02*
X134877457Y-51310151D01*
X134877457Y-51310151D02*
X134806028Y-51453008D01*
X134806028Y-51453008D02*
X134806028Y-51595865D01*
X136306028Y-52310151D02*
X136234600Y-52167294D01*
X136234600Y-52167294D02*
X136163171Y-52095865D01*
X136163171Y-52095865D02*
X136020314Y-52024437D01*
X136020314Y-52024437D02*
X135591742Y-52024437D01*
X135591742Y-52024437D02*
X135448885Y-52095865D01*
X135448885Y-52095865D02*
X135377457Y-52167294D01*
X135377457Y-52167294D02*
X135306028Y-52310151D01*
X135306028Y-52310151D02*
X135306028Y-52524437D01*
X135306028Y-52524437D02*
X135377457Y-52667294D01*
X135377457Y-52667294D02*
X135448885Y-52738723D01*
X135448885Y-52738723D02*
X135591742Y-52810151D01*
X135591742Y-52810151D02*
X136020314Y-52810151D01*
X136020314Y-52810151D02*
X136163171Y-52738723D01*
X136163171Y-52738723D02*
X136234600Y-52667294D01*
X136234600Y-52667294D02*
X136306028Y-52524437D01*
X136306028Y-52524437D02*
X136306028Y-52310151D01*
X136306028Y-53453008D02*
X135306028Y-53453008D01*
X135591742Y-53453008D02*
X135448885Y-53524437D01*
X135448885Y-53524437D02*
X135377457Y-53595866D01*
X135377457Y-53595866D02*
X135306028Y-53738723D01*
X135306028Y-53738723D02*
X135306028Y-53881580D01*
X135306028Y-55024437D02*
X136306028Y-55024437D01*
X135306028Y-54381579D02*
X136091742Y-54381579D01*
X136091742Y-54381579D02*
X136234600Y-54453008D01*
X136234600Y-54453008D02*
X136306028Y-54595865D01*
X136306028Y-54595865D02*
X136306028Y-54810151D01*
X136306028Y-54810151D02*
X136234600Y-54953008D01*
X136234600Y-54953008D02*
X136163171Y-55024437D01*
X136306028Y-55738722D02*
X135306028Y-55738722D01*
X135448885Y-55738722D02*
X135377457Y-55810151D01*
X135377457Y-55810151D02*
X135306028Y-55953008D01*
X135306028Y-55953008D02*
X135306028Y-56167294D01*
X135306028Y-56167294D02*
X135377457Y-56310151D01*
X135377457Y-56310151D02*
X135520314Y-56381580D01*
X135520314Y-56381580D02*
X136306028Y-56381580D01*
X135520314Y-56381580D02*
X135377457Y-56453008D01*
X135377457Y-56453008D02*
X135306028Y-56595865D01*
X135306028Y-56595865D02*
X135306028Y-56810151D01*
X135306028Y-56810151D02*
X135377457Y-56953008D01*
X135377457Y-56953008D02*
X135520314Y-57024437D01*
X135520314Y-57024437D02*
X136306028Y-57024437D01*
X136163171Y-57738722D02*
X136234600Y-57810151D01*
X136234600Y-57810151D02*
X136306028Y-57738722D01*
X136306028Y-57738722D02*
X136234600Y-57667294D01*
X136234600Y-57667294D02*
X136163171Y-57738722D01*
X136163171Y-57738722D02*
X136306028Y-57738722D01*
X136306028Y-58667294D02*
X136234600Y-58524437D01*
X136234600Y-58524437D02*
X136091742Y-58453008D01*
X136091742Y-58453008D02*
X134806028Y-58453008D01*
X136306028Y-59453008D02*
X136234600Y-59310151D01*
X136234600Y-59310151D02*
X136163171Y-59238722D01*
X136163171Y-59238722D02*
X136020314Y-59167294D01*
X136020314Y-59167294D02*
X135591742Y-59167294D01*
X135591742Y-59167294D02*
X135448885Y-59238722D01*
X135448885Y-59238722D02*
X135377457Y-59310151D01*
X135377457Y-59310151D02*
X135306028Y-59453008D01*
X135306028Y-59453008D02*
X135306028Y-59667294D01*
X135306028Y-59667294D02*
X135377457Y-59810151D01*
X135377457Y-59810151D02*
X135448885Y-59881580D01*
X135448885Y-59881580D02*
X135591742Y-59953008D01*
X135591742Y-59953008D02*
X136020314Y-59953008D01*
X136020314Y-59953008D02*
X136163171Y-59881580D01*
X136163171Y-59881580D02*
X136234600Y-59810151D01*
X136234600Y-59810151D02*
X136306028Y-59667294D01*
X136306028Y-59667294D02*
X136306028Y-59453008D01*
X135306028Y-60381580D02*
X135306028Y-60953008D01*
X134806028Y-60595865D02*
X136091742Y-60595865D01*
X136091742Y-60595865D02*
X136234600Y-60667294D01*
X136234600Y-60667294D02*
X136306028Y-60810151D01*
X136306028Y-60810151D02*
X136306028Y-60953008D01*
X136306028Y-61453008D02*
X134806028Y-61453008D01*
X136306028Y-62095866D02*
X135520314Y-62095866D01*
X135520314Y-62095866D02*
X135377457Y-62024437D01*
X135377457Y-62024437D02*
X135306028Y-61881580D01*
X135306028Y-61881580D02*
X135306028Y-61667294D01*
X135306028Y-61667294D02*
X135377457Y-61524437D01*
X135377457Y-61524437D02*
X135448885Y-61453008D01*
X136306028Y-63453009D02*
X135520314Y-63453009D01*
X135520314Y-63453009D02*
X135377457Y-63381580D01*
X135377457Y-63381580D02*
X135306028Y-63238723D01*
X135306028Y-63238723D02*
X135306028Y-62953009D01*
X135306028Y-62953009D02*
X135377457Y-62810151D01*
X136234600Y-63453009D02*
X136306028Y-63310151D01*
X136306028Y-63310151D02*
X136306028Y-62953009D01*
X136306028Y-62953009D02*
X136234600Y-62810151D01*
X136234600Y-62810151D02*
X136091742Y-62738723D01*
X136091742Y-62738723D02*
X135948885Y-62738723D01*
X135948885Y-62738723D02*
X135806028Y-62810151D01*
X135806028Y-62810151D02*
X135734600Y-62953009D01*
X135734600Y-62953009D02*
X135734600Y-63310151D01*
X135734600Y-63310151D02*
X135663171Y-63453009D01*
X136306028Y-64167294D02*
X135306028Y-64167294D01*
X135591742Y-64167294D02*
X135448885Y-64238723D01*
X135448885Y-64238723D02*
X135377457Y-64310152D01*
X135377457Y-64310152D02*
X135306028Y-64453009D01*
X135306028Y-64453009D02*
X135306028Y-64595866D01*
X135734600Y-65095865D02*
X135734600Y-66238723D01*
X135306028Y-66738723D02*
X135306028Y-67310151D01*
X134806028Y-66953008D02*
X136091742Y-66953008D01*
X136091742Y-66953008D02*
X136234600Y-67024437D01*
X136234600Y-67024437D02*
X136306028Y-67167294D01*
X136306028Y-67167294D02*
X136306028Y-67310151D01*
X136234600Y-68381580D02*
X136306028Y-68238723D01*
X136306028Y-68238723D02*
X136306028Y-67953009D01*
X136306028Y-67953009D02*
X136234600Y-67810151D01*
X136234600Y-67810151D02*
X136091742Y-67738723D01*
X136091742Y-67738723D02*
X135520314Y-67738723D01*
X135520314Y-67738723D02*
X135377457Y-67810151D01*
X135377457Y-67810151D02*
X135306028Y-67953009D01*
X135306028Y-67953009D02*
X135306028Y-68238723D01*
X135306028Y-68238723D02*
X135377457Y-68381580D01*
X135377457Y-68381580D02*
X135520314Y-68453009D01*
X135520314Y-68453009D02*
X135663171Y-68453009D01*
X135663171Y-68453009D02*
X135806028Y-67738723D01*
X136306028Y-69738723D02*
X135520314Y-69738723D01*
X135520314Y-69738723D02*
X135377457Y-69667294D01*
X135377457Y-69667294D02*
X135306028Y-69524437D01*
X135306028Y-69524437D02*
X135306028Y-69238723D01*
X135306028Y-69238723D02*
X135377457Y-69095865D01*
X136234600Y-69738723D02*
X136306028Y-69595865D01*
X136306028Y-69595865D02*
X136306028Y-69238723D01*
X136306028Y-69238723D02*
X136234600Y-69095865D01*
X136234600Y-69095865D02*
X136091742Y-69024437D01*
X136091742Y-69024437D02*
X135948885Y-69024437D01*
X135948885Y-69024437D02*
X135806028Y-69095865D01*
X135806028Y-69095865D02*
X135734600Y-69238723D01*
X135734600Y-69238723D02*
X135734600Y-69595865D01*
X135734600Y-69595865D02*
X135663171Y-69738723D01*
X136306028Y-70453008D02*
X135306028Y-70453008D01*
X135448885Y-70453008D02*
X135377457Y-70524437D01*
X135377457Y-70524437D02*
X135306028Y-70667294D01*
X135306028Y-70667294D02*
X135306028Y-70881580D01*
X135306028Y-70881580D02*
X135377457Y-71024437D01*
X135377457Y-71024437D02*
X135520314Y-71095866D01*
X135520314Y-71095866D02*
X136306028Y-71095866D01*
X135520314Y-71095866D02*
X135377457Y-71167294D01*
X135377457Y-71167294D02*
X135306028Y-71310151D01*
X135306028Y-71310151D02*
X135306028Y-71524437D01*
X135306028Y-71524437D02*
X135377457Y-71667294D01*
X135377457Y-71667294D02*
X135520314Y-71738723D01*
X135520314Y-71738723D02*
X136306028Y-71738723D01*
X136163171Y-72453008D02*
X136234600Y-72524437D01*
X136234600Y-72524437D02*
X136306028Y-72453008D01*
X136306028Y-72453008D02*
X136234600Y-72381580D01*
X136234600Y-72381580D02*
X136163171Y-72453008D01*
X136163171Y-72453008D02*
X136306028Y-72453008D01*
X135306028Y-73167294D02*
X136806028Y-73167294D01*
X135377457Y-73167294D02*
X135306028Y-73310152D01*
X135306028Y-73310152D02*
X135306028Y-73595866D01*
X135306028Y-73595866D02*
X135377457Y-73738723D01*
X135377457Y-73738723D02*
X135448885Y-73810152D01*
X135448885Y-73810152D02*
X135591742Y-73881580D01*
X135591742Y-73881580D02*
X136020314Y-73881580D01*
X136020314Y-73881580D02*
X136163171Y-73810152D01*
X136163171Y-73810152D02*
X136234600Y-73738723D01*
X136234600Y-73738723D02*
X136306028Y-73595866D01*
X136306028Y-73595866D02*
X136306028Y-73310152D01*
X136306028Y-73310152D02*
X136234600Y-73167294D01*
X136306028Y-74738723D02*
X136234600Y-74595866D01*
X136234600Y-74595866D02*
X136091742Y-74524437D01*
X136091742Y-74524437D02*
X134806028Y-74524437D01*
D12*
G36*
X192368623Y-102227588D02*
G01*
X192411366Y-102270330D01*
X192460526Y-102368650D01*
X192460526Y-102738206D01*
X192411365Y-102836528D01*
X192368626Y-102879266D01*
X192270303Y-102928428D01*
X192043606Y-102928428D01*
X191996241Y-102904745D01*
X191996241Y-102202110D01*
X192043606Y-102178428D01*
X192270304Y-102178428D01*
X192368623Y-102227588D01*
G37*
G36*
X188531955Y-102202110D02*
G01*
X188531955Y-102904745D01*
X188484589Y-102928428D01*
X188257891Y-102928428D01*
X188159571Y-102879268D01*
X188116829Y-102836525D01*
X188067669Y-102738205D01*
X188067669Y-102368650D01*
X188116829Y-102270329D01*
X188159571Y-102227588D01*
X188257891Y-102178428D01*
X188484590Y-102178428D01*
X188531955Y-102202110D01*
G37*
G36*
X195635213Y-102218025D02*
G01*
X195674812Y-102297222D01*
X195674812Y-102400952D01*
X195210527Y-102308095D01*
X195210527Y-102297222D01*
X195250125Y-102218025D01*
X195329320Y-102178428D01*
X195556019Y-102178428D01*
X195635213Y-102218025D01*
G37*
G36*
X196940052Y-102227588D02*
G01*
X196982795Y-102270330D01*
X197031955Y-102368650D01*
X197031955Y-102738206D01*
X196982794Y-102836528D01*
X196940055Y-102879266D01*
X196841732Y-102928428D01*
X196615035Y-102928428D01*
X196567670Y-102904745D01*
X196567670Y-102202110D01*
X196615035Y-102178428D01*
X196841733Y-102178428D01*
X196940052Y-102227588D01*
G37*
G36*
X199603384Y-102928428D02*
G01*
X199186463Y-102928428D01*
X199088141Y-102879267D01*
X199045402Y-102836528D01*
X198996241Y-102738205D01*
X198996241Y-102582936D01*
X199045402Y-102484613D01*
X199081618Y-102448397D01*
X199248670Y-102392714D01*
X199603384Y-102392714D01*
X199603384Y-102928428D01*
G37*
G36*
X199603384Y-102142714D02*
G01*
X199257892Y-102142714D01*
X199159572Y-102093553D01*
X199116828Y-102050810D01*
X199067669Y-101952491D01*
X199067669Y-101868650D01*
X199116828Y-101770331D01*
X199159572Y-101727588D01*
X199257892Y-101678428D01*
X199603384Y-101678428D01*
X199603384Y-102142714D01*
G37*
G36*
X202603384Y-102214142D02*
G01*
X202186463Y-102214142D01*
X202088141Y-102164981D01*
X202045402Y-102122242D01*
X201996241Y-102023919D01*
X201996241Y-101868650D01*
X202045400Y-101770330D01*
X202088143Y-101727588D01*
X202186463Y-101678428D01*
X202603384Y-101678428D01*
X202603384Y-102214142D01*
G37*
G36*
X203020051Y-103845095D02*
G01*
X179293859Y-103845095D01*
X179293859Y-101553428D01*
X179460526Y-101553428D01*
X179460526Y-103053428D01*
X179462928Y-103077814D01*
X179481592Y-103122874D01*
X179516080Y-103157362D01*
X179561140Y-103176026D01*
X179609912Y-103176026D01*
X179654972Y-103157362D01*
X179689460Y-103122874D01*
X179708124Y-103077814D01*
X179710526Y-103053428D01*
X179710526Y-102116874D01*
X179972253Y-102677718D01*
X179977542Y-102686647D01*
X179978643Y-102689673D01*
X179980602Y-102691813D01*
X179984742Y-102698800D01*
X179998750Y-102711628D01*
X180011583Y-102725641D01*
X180016615Y-102727989D01*
X180020711Y-102731740D01*
X180038561Y-102738231D01*
X180055779Y-102746266D01*
X180061328Y-102746509D01*
X180066548Y-102748408D01*
X180085526Y-102747573D01*
X180104505Y-102748408D01*
X180109724Y-102746509D01*
X180115273Y-102746266D01*
X180132486Y-102738232D01*
X180150342Y-102731740D01*
X180154438Y-102727988D01*
X180159469Y-102725641D01*
X180172299Y-102711630D01*
X180186310Y-102698800D01*
X180190449Y-102691813D01*
X180192409Y-102689673D01*
X180193509Y-102686647D01*
X180198799Y-102677718D01*
X180460526Y-102116873D01*
X180460526Y-103053428D01*
X180462928Y-103077814D01*
X180481592Y-103122874D01*
X180516080Y-103157362D01*
X180561140Y-103176026D01*
X180609912Y-103176026D01*
X180654972Y-103157362D01*
X180689460Y-103122874D01*
X180708124Y-103077814D01*
X180710526Y-103053428D01*
X180710526Y-102053428D01*
X181174812Y-102053428D01*
X181174812Y-103053428D01*
X181177214Y-103077814D01*
X181195878Y-103122874D01*
X181230366Y-103157362D01*
X181275426Y-103176026D01*
X181324198Y-103176026D01*
X181369258Y-103157362D01*
X181403746Y-103122874D01*
X181422410Y-103077814D01*
X181424812Y-103053428D01*
X181424812Y-102053428D01*
X181422410Y-102029042D01*
X181403746Y-101983982D01*
X181369258Y-101949494D01*
X181324198Y-101930830D01*
X181275426Y-101930830D01*
X181230366Y-101949494D01*
X181195878Y-101983982D01*
X181177214Y-102029042D01*
X181174812Y-102053428D01*
X180710526Y-102053428D01*
X180710526Y-101600471D01*
X181105785Y-101600471D01*
X181105785Y-101649245D01*
X181124450Y-101694304D01*
X181139995Y-101713246D01*
X181211424Y-101784674D01*
X181230365Y-101800218D01*
X181230366Y-101800219D01*
X181262227Y-101813416D01*
X181275425Y-101818883D01*
X181275426Y-101818883D01*
X181324198Y-101818883D01*
X181324199Y-101818883D01*
X181342863Y-101811151D01*
X181369258Y-101800219D01*
X181369263Y-101800213D01*
X181388200Y-101784673D01*
X181459628Y-101713246D01*
X181475173Y-101694304D01*
X181493838Y-101649244D01*
X181493838Y-101600471D01*
X181488544Y-101587690D01*
X181475174Y-101555411D01*
X181459629Y-101536469D01*
X181452202Y-101529042D01*
X181677214Y-101529042D01*
X181677214Y-101577814D01*
X181695878Y-101622874D01*
X181730366Y-101657362D01*
X181775426Y-101676026D01*
X181799812Y-101678428D01*
X181913161Y-101678428D01*
X181992356Y-101718026D01*
X182031955Y-101797222D01*
X182031955Y-101928428D01*
X181799812Y-101928428D01*
X181775426Y-101930830D01*
X181730366Y-101949494D01*
X181695878Y-101983982D01*
X181677214Y-102029042D01*
X181677214Y-102077814D01*
X181695878Y-102122874D01*
X181730366Y-102157362D01*
X181775426Y-102176026D01*
X181799812Y-102178428D01*
X182031955Y-102178428D01*
X182031955Y-103053428D01*
X182034357Y-103077814D01*
X182053021Y-103122874D01*
X182087509Y-103157362D01*
X182132569Y-103176026D01*
X182181341Y-103176026D01*
X182226401Y-103157362D01*
X182260889Y-103122874D01*
X182279553Y-103077814D01*
X182281955Y-103053428D01*
X182281955Y-102178428D01*
X182371240Y-102178428D01*
X182395626Y-102176026D01*
X182440686Y-102157362D01*
X182475174Y-102122874D01*
X182493838Y-102077814D01*
X182493838Y-102053428D01*
X182746241Y-102053428D01*
X182746241Y-103053428D01*
X182748643Y-103077814D01*
X182767307Y-103122874D01*
X182801795Y-103157362D01*
X182846855Y-103176026D01*
X182895627Y-103176026D01*
X182940687Y-103157362D01*
X182965086Y-103132962D01*
X183029625Y-103165232D01*
X183052511Y-103173989D01*
X183056990Y-103174307D01*
X183061140Y-103176026D01*
X183085526Y-103178428D01*
X183299812Y-103178428D01*
X183324198Y-103176026D01*
X183328346Y-103174307D01*
X183332828Y-103173989D01*
X183355713Y-103165232D01*
X183498571Y-103093803D01*
X183502647Y-103091236D01*
X183504573Y-103090595D01*
X183506971Y-103088515D01*
X183519308Y-103080749D01*
X183529577Y-103068908D01*
X183541418Y-103058639D01*
X183549184Y-103046302D01*
X183551264Y-103043904D01*
X183551905Y-103041978D01*
X183554472Y-103037902D01*
X183625901Y-102895044D01*
X183634659Y-102872158D01*
X183634977Y-102867676D01*
X183636696Y-102863528D01*
X183639098Y-102839142D01*
X183639098Y-102410571D01*
X184031955Y-102410571D01*
X184031955Y-102910571D01*
X184034357Y-102934957D01*
X184053021Y-102980017D01*
X184068566Y-102998959D01*
X184139994Y-103070388D01*
X184158936Y-103085933D01*
X184163087Y-103087652D01*
X184166480Y-103090595D01*
X184188855Y-103100586D01*
X184403141Y-103172014D01*
X184415234Y-103174763D01*
X184418283Y-103176026D01*
X184422704Y-103176461D01*
X184427035Y-103177446D01*
X184430325Y-103177212D01*
X184442669Y-103178428D01*
X184585526Y-103178428D01*
X184597869Y-103177212D01*
X184601160Y-103177446D01*
X184605490Y-103176461D01*
X184609912Y-103176026D01*
X184612960Y-103174763D01*
X184625054Y-103172014D01*
X184839340Y-103100586D01*
X184861715Y-103090595D01*
X184865107Y-103087652D01*
X184869259Y-103085933D01*
X184888201Y-103070388D01*
X185031058Y-102927530D01*
X185038926Y-102917941D01*
X185041418Y-102915781D01*
X185043782Y-102912024D01*
X185046603Y-102908588D01*
X185047866Y-102905536D01*
X185054472Y-102895044D01*
X185125901Y-102752187D01*
X185126584Y-102750401D01*
X185127121Y-102749677D01*
X185130773Y-102739456D01*
X185134659Y-102729302D01*
X185134723Y-102728401D01*
X185135366Y-102726602D01*
X185206794Y-102440888D01*
X185207419Y-102436658D01*
X185208124Y-102434957D01*
X185209028Y-102425775D01*
X185210378Y-102416647D01*
X185210106Y-102414825D01*
X185210526Y-102410571D01*
X185210526Y-102196285D01*
X185210106Y-102192030D01*
X185210378Y-102190209D01*
X185209028Y-102181080D01*
X185208124Y-102171899D01*
X185207419Y-102170197D01*
X185206794Y-102165968D01*
X185183226Y-102071697D01*
X186604725Y-102071697D01*
X186610665Y-102095470D01*
X186967808Y-103095470D01*
X186968811Y-103097593D01*
X186969466Y-103099852D01*
X187112323Y-103456995D01*
X187123610Y-103478745D01*
X187124154Y-103479302D01*
X187124450Y-103480017D01*
X187139995Y-103498959D01*
X187211424Y-103570388D01*
X187221009Y-103578254D01*
X187223173Y-103580749D01*
X187226934Y-103583117D01*
X187230366Y-103585933D01*
X187233412Y-103587194D01*
X187243911Y-103593804D01*
X187386768Y-103665232D01*
X187409654Y-103673989D01*
X187458303Y-103677447D01*
X187504574Y-103662023D01*
X187541419Y-103630067D01*
X187563230Y-103586444D01*
X187566688Y-103537794D01*
X187551264Y-103491524D01*
X187519308Y-103454679D01*
X187498571Y-103441625D01*
X187373855Y-103379267D01*
X187334915Y-103340327D01*
X187219153Y-103050923D01*
X187473361Y-102339142D01*
X187817669Y-102339142D01*
X187817669Y-102767714D01*
X187820071Y-102792100D01*
X187821789Y-102796248D01*
X187822108Y-102800730D01*
X187830866Y-102823616D01*
X187902295Y-102966473D01*
X187908900Y-102976965D01*
X187910164Y-102980017D01*
X187912984Y-102983453D01*
X187915349Y-102987210D01*
X187917840Y-102989370D01*
X187925709Y-102998959D01*
X187997137Y-103070388D01*
X188006725Y-103078257D01*
X188008887Y-103080749D01*
X188012644Y-103083114D01*
X188016079Y-103085933D01*
X188019128Y-103087196D01*
X188029625Y-103093804D01*
X188172482Y-103165232D01*
X188195368Y-103173989D01*
X188199847Y-103174307D01*
X188203997Y-103176026D01*
X188228383Y-103178428D01*
X188514098Y-103178428D01*
X188538484Y-103176026D01*
X188542632Y-103174307D01*
X188547114Y-103173989D01*
X188569999Y-103165232D01*
X188586919Y-103156772D01*
X188587509Y-103157362D01*
X188632569Y-103176026D01*
X188681341Y-103176026D01*
X188726401Y-103157362D01*
X188760889Y-103122874D01*
X188779553Y-103077814D01*
X188781955Y-103053428D01*
X188781955Y-102267714D01*
X190389098Y-102267714D01*
X190389098Y-103053428D01*
X190391500Y-103077814D01*
X190410164Y-103122874D01*
X190444652Y-103157362D01*
X190489712Y-103176026D01*
X190538484Y-103176026D01*
X190583544Y-103157362D01*
X190618032Y-103122874D01*
X190636696Y-103077814D01*
X190639098Y-103053428D01*
X190639098Y-102297222D01*
X190678696Y-102218025D01*
X190757891Y-102178428D01*
X190913161Y-102178428D01*
X191011480Y-102227588D01*
X191031955Y-102248062D01*
X191031955Y-103053428D01*
X191034357Y-103077814D01*
X191053021Y-103122874D01*
X191087509Y-103157362D01*
X191132569Y-103176026D01*
X191181341Y-103176026D01*
X191226401Y-103157362D01*
X191260889Y-103122874D01*
X191279553Y-103077814D01*
X191281955Y-103053428D01*
X191281955Y-102053428D01*
X191746241Y-102053428D01*
X191746241Y-103267714D01*
X191748643Y-103292100D01*
X191750361Y-103296248D01*
X191750680Y-103300730D01*
X191759437Y-103323615D01*
X191830866Y-103466473D01*
X191837473Y-103476969D01*
X191838736Y-103480017D01*
X191841552Y-103483448D01*
X191843920Y-103487210D01*
X191846414Y-103489373D01*
X191854281Y-103498959D01*
X191925710Y-103570388D01*
X191935295Y-103578254D01*
X191937459Y-103580749D01*
X191941220Y-103583117D01*
X191944652Y-103585933D01*
X191947698Y-103587194D01*
X191958197Y-103593804D01*
X192101054Y-103665232D01*
X192123940Y-103673989D01*
X192128419Y-103674307D01*
X192132569Y-103676026D01*
X192156955Y-103678428D01*
X192371241Y-103678428D01*
X192395627Y-103676026D01*
X192399775Y-103674307D01*
X192404257Y-103673989D01*
X192427142Y-103665232D01*
X192570000Y-103593803D01*
X192590737Y-103580749D01*
X192622693Y-103543904D01*
X192638117Y-103497634D01*
X192634659Y-103448984D01*
X192612848Y-103405361D01*
X192576003Y-103373405D01*
X192529732Y-103357981D01*
X192481083Y-103361439D01*
X192458197Y-103370196D01*
X192341732Y-103428428D01*
X192186463Y-103428428D01*
X192088141Y-103379267D01*
X192045402Y-103336528D01*
X191996241Y-103238205D01*
X191996241Y-103176669D01*
X192014098Y-103178428D01*
X192299812Y-103178428D01*
X192324198Y-103176026D01*
X192328346Y-103174307D01*
X192332828Y-103173989D01*
X192355713Y-103165232D01*
X192498571Y-103093803D01*
X192509067Y-103087195D01*
X192512115Y-103085933D01*
X192515546Y-103083116D01*
X192519308Y-103080749D01*
X192521471Y-103078254D01*
X192531057Y-103070388D01*
X192602486Y-102998959D01*
X192610352Y-102989373D01*
X192612847Y-102987210D01*
X192615215Y-102983448D01*
X192618031Y-102980017D01*
X192619292Y-102976970D01*
X192625902Y-102966472D01*
X192697330Y-102823615D01*
X192706087Y-102800729D01*
X192706405Y-102796249D01*
X192708124Y-102792100D01*
X192710526Y-102767714D01*
X192710526Y-102339142D01*
X192708124Y-102314756D01*
X192706405Y-102310606D01*
X192706087Y-102306127D01*
X192697330Y-102283241D01*
X192625902Y-102140384D01*
X192619294Y-102129887D01*
X192618031Y-102126838D01*
X192615212Y-102123403D01*
X192612847Y-102119646D01*
X192610355Y-102117484D01*
X192602486Y-102107896D01*
X192548017Y-102053428D01*
X193103384Y-102053428D01*
X193103384Y-103053428D01*
X193105786Y-103077814D01*
X193124450Y-103122874D01*
X193158938Y-103157362D01*
X193203998Y-103176026D01*
X193252770Y-103176026D01*
X193297830Y-103157362D01*
X193332318Y-103122874D01*
X193350982Y-103077814D01*
X193353384Y-103053428D01*
X193353384Y-102767714D01*
X193746241Y-102767714D01*
X193746241Y-102839142D01*
X193748643Y-102863528D01*
X193750361Y-102867676D01*
X193750680Y-102872158D01*
X193759438Y-102895044D01*
X193830867Y-103037902D01*
X193833432Y-103041977D01*
X193834075Y-103043905D01*
X193836157Y-103046305D01*
X193843921Y-103058639D01*
X193855760Y-103068907D01*
X193866031Y-103080749D01*
X193878368Y-103088515D01*
X193880766Y-103090595D01*
X193882690Y-103091236D01*
X193886769Y-103093804D01*
X194029626Y-103165232D01*
X194052512Y-103173989D01*
X194056991Y-103174307D01*
X194061141Y-103176026D01*
X194085527Y-103178428D01*
X194371241Y-103178428D01*
X194395627Y-103176026D01*
X194399775Y-103174307D01*
X194404257Y-103173989D01*
X194427142Y-103165232D01*
X194570000Y-103093803D01*
X194590737Y-103080749D01*
X194622693Y-103043904D01*
X194638117Y-102997634D01*
X194634659Y-102948984D01*
X194612848Y-102905361D01*
X194576003Y-102873405D01*
X194529732Y-102857981D01*
X194481083Y-102861439D01*
X194458197Y-102870196D01*
X194341732Y-102928428D01*
X194115035Y-102928428D01*
X194035839Y-102888830D01*
X193996241Y-102809634D01*
X193996241Y-102797222D01*
X194035839Y-102718026D01*
X194115035Y-102678428D01*
X194299813Y-102678428D01*
X194324199Y-102676026D01*
X194328347Y-102674307D01*
X194332829Y-102673989D01*
X194355714Y-102665232D01*
X194498572Y-102593803D01*
X194502647Y-102591237D01*
X194504575Y-102590595D01*
X194506975Y-102588513D01*
X194519309Y-102580749D01*
X194529577Y-102568909D01*
X194541420Y-102558638D01*
X194549186Y-102546300D01*
X194551265Y-102543904D01*
X194551906Y-102541979D01*
X194554474Y-102537901D01*
X194625902Y-102395043D01*
X194634659Y-102372157D01*
X194634977Y-102367677D01*
X194636696Y-102363528D01*
X194639098Y-102339142D01*
X194639098Y-102267714D01*
X194960527Y-102267714D01*
X194960527Y-102410571D01*
X194962929Y-102434957D01*
X194967615Y-102446271D01*
X194969992Y-102458285D01*
X194976856Y-102468582D01*
X194981593Y-102480017D01*
X194990252Y-102488676D01*
X194997046Y-102498867D01*
X195007330Y-102505754D01*
X195016081Y-102514505D01*
X195027395Y-102519191D01*
X195037571Y-102526006D01*
X195061012Y-102533144D01*
X195674812Y-102655903D01*
X195674812Y-102809633D01*
X195635214Y-102888830D01*
X195556018Y-102928428D01*
X195329320Y-102928428D01*
X195212856Y-102870196D01*
X195189971Y-102861439D01*
X195141321Y-102857981D01*
X195095050Y-102873405D01*
X195058206Y-102905361D01*
X195036394Y-102948984D01*
X195032936Y-102997634D01*
X195048360Y-103043905D01*
X195080316Y-103080749D01*
X195101054Y-103093804D01*
X195243911Y-103165232D01*
X195266797Y-103173989D01*
X195271276Y-103174307D01*
X195275426Y-103176026D01*
X195299812Y-103178428D01*
X195585527Y-103178428D01*
X195609913Y-103176026D01*
X195614061Y-103174307D01*
X195618543Y-103173989D01*
X195641428Y-103165232D01*
X195784286Y-103093803D01*
X195788361Y-103091237D01*
X195790289Y-103090595D01*
X195792689Y-103088513D01*
X195805023Y-103080749D01*
X195815291Y-103068909D01*
X195827134Y-103058638D01*
X195834900Y-103046300D01*
X195836979Y-103043904D01*
X195837620Y-103041979D01*
X195840188Y-103037901D01*
X195911616Y-102895043D01*
X195920373Y-102872157D01*
X195920691Y-102867677D01*
X195922410Y-102863528D01*
X195924812Y-102839142D01*
X195924812Y-102267714D01*
X195922410Y-102243328D01*
X195920691Y-102239178D01*
X195920373Y-102234699D01*
X195911616Y-102211813D01*
X195840188Y-102068956D01*
X195837620Y-102064877D01*
X195836979Y-102062953D01*
X195834899Y-102060555D01*
X195827133Y-102048218D01*
X195815291Y-102037947D01*
X195805023Y-102026108D01*
X195792689Y-102018344D01*
X195790289Y-102016262D01*
X195788361Y-102015619D01*
X195784286Y-102013054D01*
X195641429Y-101941625D01*
X195618543Y-101932867D01*
X195614061Y-101932548D01*
X195609913Y-101930830D01*
X195585527Y-101928428D01*
X195299812Y-101928428D01*
X195275426Y-101930830D01*
X195271277Y-101932548D01*
X195266795Y-101932867D01*
X195243910Y-101941625D01*
X195101053Y-102013054D01*
X195096976Y-102015620D01*
X195095051Y-102016262D01*
X195092652Y-102018341D01*
X195080316Y-102026108D01*
X195070046Y-102037948D01*
X195058206Y-102048218D01*
X195050439Y-102060554D01*
X195048360Y-102062953D01*
X195047718Y-102064878D01*
X195045152Y-102068955D01*
X194973723Y-102211813D01*
X194964966Y-102234698D01*
X194964647Y-102239179D01*
X194962929Y-102243328D01*
X194960527Y-102267714D01*
X194639098Y-102267714D01*
X194636696Y-102243328D01*
X194634977Y-102239178D01*
X194634659Y-102234699D01*
X194625902Y-102211813D01*
X194554474Y-102068956D01*
X194551906Y-102064877D01*
X194551265Y-102062953D01*
X194549185Y-102060555D01*
X194541419Y-102048218D01*
X194529577Y-102037947D01*
X194519309Y-102026108D01*
X194506975Y-102018344D01*
X194504575Y-102016262D01*
X194502647Y-102015619D01*
X194498572Y-102013054D01*
X194355715Y-101941625D01*
X194332829Y-101932867D01*
X194328347Y-101932548D01*
X194324199Y-101930830D01*
X194299813Y-101928428D01*
X194085527Y-101928428D01*
X194061141Y-101930830D01*
X194056992Y-101932548D01*
X194052510Y-101932867D01*
X194029625Y-101941625D01*
X193886768Y-102013054D01*
X193866031Y-102026108D01*
X193834075Y-102062953D01*
X193818651Y-102109224D01*
X193822109Y-102157873D01*
X193843921Y-102201496D01*
X193880766Y-102233452D01*
X193927037Y-102248876D01*
X193975686Y-102245418D01*
X193998572Y-102236660D01*
X194115035Y-102178428D01*
X194270305Y-102178428D01*
X194349499Y-102218025D01*
X194389098Y-102297222D01*
X194389098Y-102309633D01*
X194349500Y-102388830D01*
X194270304Y-102428428D01*
X194085527Y-102428428D01*
X194061141Y-102430830D01*
X194056992Y-102432548D01*
X194052510Y-102432867D01*
X194029625Y-102441625D01*
X193886768Y-102513054D01*
X193882691Y-102515620D01*
X193880766Y-102516262D01*
X193878367Y-102518341D01*
X193866031Y-102526108D01*
X193855761Y-102537948D01*
X193843921Y-102548218D01*
X193836154Y-102560554D01*
X193834075Y-102562953D01*
X193833433Y-102564878D01*
X193830867Y-102568955D01*
X193759438Y-102711812D01*
X193750680Y-102734698D01*
X193750361Y-102739179D01*
X193748643Y-102743328D01*
X193746241Y-102767714D01*
X193353384Y-102767714D01*
X193353384Y-102053428D01*
X193350982Y-102029042D01*
X193332318Y-101983982D01*
X193297830Y-101949494D01*
X193252770Y-101930830D01*
X193203998Y-101930830D01*
X193158938Y-101949494D01*
X193124450Y-101983982D01*
X193105786Y-102029042D01*
X193103384Y-102053428D01*
X192548017Y-102053428D01*
X192531057Y-102036468D01*
X192521468Y-102028599D01*
X192519308Y-102026108D01*
X192515551Y-102023743D01*
X192512115Y-102020923D01*
X192509063Y-102019659D01*
X192498571Y-102013054D01*
X192355714Y-101941625D01*
X192332828Y-101932867D01*
X192328346Y-101932548D01*
X192324198Y-101930830D01*
X192299812Y-101928428D01*
X192014098Y-101928428D01*
X191989712Y-101930830D01*
X191985563Y-101932548D01*
X191981081Y-101932867D01*
X191958196Y-101941625D01*
X191941277Y-101950084D01*
X191940687Y-101949494D01*
X191895627Y-101930830D01*
X191846855Y-101930830D01*
X191801795Y-101949494D01*
X191767307Y-101983982D01*
X191748643Y-102029042D01*
X191746241Y-102053428D01*
X191281955Y-102053428D01*
X191279553Y-102029042D01*
X191260889Y-101983982D01*
X191226401Y-101949494D01*
X191181341Y-101930830D01*
X191132569Y-101930830D01*
X191087509Y-101949494D01*
X191063108Y-101973894D01*
X190998571Y-101941625D01*
X190975685Y-101932867D01*
X190971203Y-101932548D01*
X190967055Y-101930830D01*
X190942669Y-101928428D01*
X190728383Y-101928428D01*
X190703997Y-101930830D01*
X190699848Y-101932548D01*
X190695366Y-101932867D01*
X190672481Y-101941625D01*
X190529624Y-102013054D01*
X190525547Y-102015620D01*
X190523622Y-102016262D01*
X190521223Y-102018341D01*
X190508887Y-102026108D01*
X190498617Y-102037948D01*
X190486777Y-102048218D01*
X190479010Y-102060554D01*
X190476931Y-102062953D01*
X190476289Y-102064878D01*
X190473723Y-102068955D01*
X190402294Y-102211813D01*
X190393537Y-102234698D01*
X190393218Y-102239179D01*
X190391500Y-102243328D01*
X190389098Y-102267714D01*
X188781955Y-102267714D01*
X188781955Y-101600471D01*
X193034357Y-101600471D01*
X193034357Y-101649245D01*
X193053022Y-101694304D01*
X193068567Y-101713246D01*
X193139996Y-101784674D01*
X193158937Y-101800218D01*
X193158938Y-101800219D01*
X193190799Y-101813416D01*
X193203997Y-101818883D01*
X193203998Y-101818883D01*
X193252770Y-101818883D01*
X193252771Y-101818883D01*
X193271435Y-101811151D01*
X193297830Y-101800219D01*
X193297835Y-101800213D01*
X193316772Y-101784673D01*
X193388200Y-101713246D01*
X193403745Y-101694304D01*
X193422410Y-101649244D01*
X193422410Y-101600471D01*
X193417116Y-101587690D01*
X193403746Y-101555411D01*
X193402119Y-101553428D01*
X196317670Y-101553428D01*
X196317670Y-103053428D01*
X196320072Y-103077814D01*
X196338736Y-103122874D01*
X196373224Y-103157362D01*
X196418284Y-103176026D01*
X196467056Y-103176026D01*
X196512116Y-103157362D01*
X196512705Y-103156772D01*
X196529626Y-103165232D01*
X196552512Y-103173989D01*
X196556991Y-103174307D01*
X196561141Y-103176026D01*
X196585527Y-103178428D01*
X196871241Y-103178428D01*
X196895627Y-103176026D01*
X196899775Y-103174307D01*
X196904257Y-103173989D01*
X196927142Y-103165232D01*
X197070000Y-103093803D01*
X197080496Y-103087195D01*
X197083544Y-103085933D01*
X197086975Y-103083116D01*
X197090737Y-103080749D01*
X197092900Y-103078254D01*
X197102486Y-103070388D01*
X197173915Y-102998959D01*
X197181781Y-102989373D01*
X197184276Y-102987210D01*
X197186644Y-102983448D01*
X197189460Y-102980017D01*
X197190721Y-102976970D01*
X197197331Y-102966472D01*
X197268759Y-102823615D01*
X197277516Y-102800729D01*
X197277834Y-102796249D01*
X197279553Y-102792100D01*
X197281955Y-102767714D01*
X197281955Y-102553428D01*
X198746241Y-102553428D01*
X198746241Y-102767714D01*
X198748643Y-102792100D01*
X198750361Y-102796248D01*
X198750680Y-102800730D01*
X198759437Y-102823615D01*
X198830866Y-102966473D01*
X198837473Y-102976969D01*
X198838736Y-102980017D01*
X198841552Y-102983448D01*
X198843920Y-102987210D01*
X198846414Y-102989373D01*
X198854281Y-102998959D01*
X198925710Y-103070388D01*
X198935295Y-103078254D01*
X198937459Y-103080749D01*
X198941220Y-103083117D01*
X198944652Y-103085933D01*
X198947698Y-103087194D01*
X198958197Y-103093804D01*
X199101054Y-103165232D01*
X199123940Y-103173989D01*
X199128419Y-103174307D01*
X199132569Y-103176026D01*
X199156955Y-103178428D01*
X199728384Y-103178428D01*
X199752770Y-103176026D01*
X199797830Y-103157362D01*
X199832318Y-103122874D01*
X199850982Y-103077814D01*
X199853384Y-103053428D01*
X199853384Y-101671898D01*
X200248643Y-101671898D01*
X200248643Y-101720672D01*
X200267308Y-101765731D01*
X200301795Y-101800218D01*
X200346854Y-101818883D01*
X200395628Y-101818883D01*
X200440687Y-101800218D01*
X200459629Y-101784673D01*
X200510192Y-101734110D01*
X200677238Y-101678428D01*
X200779528Y-101678428D01*
X200946575Y-101734110D01*
X201054224Y-101841759D01*
X201110443Y-101954198D01*
X201174812Y-102211673D01*
X201174812Y-102395182D01*
X201110443Y-102652657D01*
X201054224Y-102765096D01*
X200946575Y-102872745D01*
X200779526Y-102928428D01*
X200677241Y-102928428D01*
X200510191Y-102872745D01*
X200459630Y-102822183D01*
X200440688Y-102806638D01*
X200395629Y-102787973D01*
X200346855Y-102787973D01*
X200301795Y-102806637D01*
X200267308Y-102841124D01*
X200248643Y-102886183D01*
X200248643Y-102934957D01*
X200267307Y-102980017D01*
X200282852Y-102998959D01*
X200354280Y-103070388D01*
X200373222Y-103085933D01*
X200377373Y-103087652D01*
X200380766Y-103090595D01*
X200403141Y-103100586D01*
X200617427Y-103172014D01*
X200629520Y-103174763D01*
X200632569Y-103176026D01*
X200636990Y-103176461D01*
X200641321Y-103177446D01*
X200644611Y-103177212D01*
X200656955Y-103178428D01*
X200799812Y-103178428D01*
X200812155Y-103177212D01*
X200815446Y-103177446D01*
X200819776Y-103176461D01*
X200824198Y-103176026D01*
X200827246Y-103174763D01*
X200839340Y-103172014D01*
X201053626Y-103100586D01*
X201076001Y-103090595D01*
X201079393Y-103087652D01*
X201083545Y-103085933D01*
X201102487Y-103070388D01*
X201245344Y-102927530D01*
X201253212Y-102917941D01*
X201255704Y-102915781D01*
X201258068Y-102912024D01*
X201260889Y-102908588D01*
X201262152Y-102905536D01*
X201268758Y-102895044D01*
X201340187Y-102752187D01*
X201340870Y-102750401D01*
X201341407Y-102749677D01*
X201345059Y-102739456D01*
X201348945Y-102729302D01*
X201349009Y-102728401D01*
X201349652Y-102726602D01*
X201421080Y-102440888D01*
X201421705Y-102436658D01*
X201422410Y-102434957D01*
X201423314Y-102425775D01*
X201424664Y-102416647D01*
X201424392Y-102414825D01*
X201424812Y-102410571D01*
X201424812Y-102196285D01*
X201424392Y-102192030D01*
X201424664Y-102190209D01*
X201423314Y-102181080D01*
X201422410Y-102171899D01*
X201421705Y-102170197D01*
X201421080Y-102165968D01*
X201349652Y-101880254D01*
X201349009Y-101878454D01*
X201348945Y-101877554D01*
X201345059Y-101867399D01*
X201341407Y-101857179D01*
X201340870Y-101856454D01*
X201340187Y-101854669D01*
X201332423Y-101839142D01*
X201746241Y-101839142D01*
X201746241Y-102053428D01*
X201748643Y-102077814D01*
X201750361Y-102081962D01*
X201750680Y-102086444D01*
X201759437Y-102109329D01*
X201830866Y-102252187D01*
X201837473Y-102262683D01*
X201838736Y-102265731D01*
X201841552Y-102269162D01*
X201843920Y-102272924D01*
X201846414Y-102275087D01*
X201854281Y-102284673D01*
X201925710Y-102356102D01*
X201935295Y-102363968D01*
X201937459Y-102366463D01*
X201941220Y-102368831D01*
X201944652Y-102371647D01*
X201947698Y-102372908D01*
X201958197Y-102379518D01*
X202101054Y-102450946D01*
X202123940Y-102459703D01*
X202128419Y-102460021D01*
X202132569Y-102461740D01*
X202156955Y-102464142D01*
X202603384Y-102464142D01*
X202603384Y-103053428D01*
X202605786Y-103077814D01*
X202624450Y-103122874D01*
X202658938Y-103157362D01*
X202703998Y-103176026D01*
X202752770Y-103176026D01*
X202797830Y-103157362D01*
X202832318Y-103122874D01*
X202850982Y-103077814D01*
X202853384Y-103053428D01*
X202853384Y-101553428D01*
X202850982Y-101529042D01*
X202832318Y-101483982D01*
X202797830Y-101449494D01*
X202752770Y-101430830D01*
X202728384Y-101428428D01*
X202156955Y-101428428D01*
X202132569Y-101430830D01*
X202128420Y-101432548D01*
X202123938Y-101432867D01*
X202101053Y-101441625D01*
X201958196Y-101513054D01*
X201947703Y-101519659D01*
X201944652Y-101520923D01*
X201941215Y-101523743D01*
X201937459Y-101526108D01*
X201935298Y-101528599D01*
X201925710Y-101536468D01*
X201854281Y-101607896D01*
X201846411Y-101617484D01*
X201843920Y-101619646D01*
X201841554Y-101623403D01*
X201838736Y-101626838D01*
X201837472Y-101629888D01*
X201830866Y-101640383D01*
X201759437Y-101783241D01*
X201750680Y-101806126D01*
X201750361Y-101810607D01*
X201748643Y-101814756D01*
X201746241Y-101839142D01*
X201332423Y-101839142D01*
X201268758Y-101711812D01*
X201262151Y-101701317D01*
X201260888Y-101698267D01*
X201258069Y-101694832D01*
X201255704Y-101691075D01*
X201253212Y-101688913D01*
X201245343Y-101679325D01*
X201102486Y-101536469D01*
X201083544Y-101520924D01*
X201079394Y-101519205D01*
X201076001Y-101516262D01*
X201053626Y-101506272D01*
X200839341Y-101434843D01*
X200827248Y-101432093D01*
X200824198Y-101430830D01*
X200819775Y-101430394D01*
X200815446Y-101429410D01*
X200812155Y-101429643D01*
X200799812Y-101428428D01*
X200656955Y-101428428D01*
X200644611Y-101429643D01*
X200641320Y-101429410D01*
X200636990Y-101430394D01*
X200632569Y-101430830D01*
X200629519Y-101432093D01*
X200617426Y-101434843D01*
X200403140Y-101506272D01*
X200380765Y-101516262D01*
X200377371Y-101519205D01*
X200373222Y-101520924D01*
X200354280Y-101536469D01*
X200282853Y-101607897D01*
X200267308Y-101626839D01*
X200248643Y-101671898D01*
X199853384Y-101671898D01*
X199853384Y-101553428D01*
X199850982Y-101529042D01*
X199832318Y-101483982D01*
X199797830Y-101449494D01*
X199752770Y-101430830D01*
X199728384Y-101428428D01*
X199228384Y-101428428D01*
X199203998Y-101430830D01*
X199199849Y-101432548D01*
X199195367Y-101432867D01*
X199172482Y-101441625D01*
X199029625Y-101513054D01*
X199019132Y-101519659D01*
X199016081Y-101520923D01*
X199012644Y-101523743D01*
X199008888Y-101526108D01*
X199006727Y-101528599D01*
X198997139Y-101536468D01*
X198925710Y-101607896D01*
X198917840Y-101617484D01*
X198915349Y-101619646D01*
X198912983Y-101623403D01*
X198910165Y-101626838D01*
X198908901Y-101629888D01*
X198902295Y-101640383D01*
X198830866Y-101783240D01*
X198822108Y-101806126D01*
X198821789Y-101810607D01*
X198820071Y-101814756D01*
X198817669Y-101839142D01*
X198817669Y-101982000D01*
X198820071Y-102006386D01*
X198821789Y-102010534D01*
X198822108Y-102015016D01*
X198830866Y-102037902D01*
X198902295Y-102180759D01*
X198908901Y-102191253D01*
X198910165Y-102194304D01*
X198912983Y-102197738D01*
X198915349Y-102201496D01*
X198917840Y-102203657D01*
X198925710Y-102213246D01*
X198946788Y-102234324D01*
X198944652Y-102235209D01*
X198925710Y-102250754D01*
X198854281Y-102322183D01*
X198846414Y-102331768D01*
X198843920Y-102333932D01*
X198841552Y-102337693D01*
X198838736Y-102341125D01*
X198837473Y-102344172D01*
X198830866Y-102354669D01*
X198759437Y-102497527D01*
X198750680Y-102520412D01*
X198750361Y-102524893D01*
X198748643Y-102529042D01*
X198746241Y-102553428D01*
X197281955Y-102553428D01*
X197281955Y-102339142D01*
X197279553Y-102314756D01*
X197277834Y-102310606D01*
X197277516Y-102306127D01*
X197268759Y-102283241D01*
X197197331Y-102140384D01*
X197190723Y-102129887D01*
X197189460Y-102126838D01*
X197186641Y-102123403D01*
X197184276Y-102119646D01*
X197181784Y-102117484D01*
X197173915Y-102107896D01*
X197102486Y-102036468D01*
X197092897Y-102028599D01*
X197090737Y-102026108D01*
X197086980Y-102023743D01*
X197083544Y-102020923D01*
X197080492Y-102019659D01*
X197070000Y-102013054D01*
X196927143Y-101941625D01*
X196904257Y-101932867D01*
X196899775Y-101932548D01*
X196895627Y-101930830D01*
X196871241Y-101928428D01*
X196585527Y-101928428D01*
X196567670Y-101930186D01*
X196567670Y-101553428D01*
X196565268Y-101529042D01*
X196546604Y-101483982D01*
X196512116Y-101449494D01*
X196467056Y-101430830D01*
X196418284Y-101430830D01*
X196373224Y-101449494D01*
X196338736Y-101483982D01*
X196320072Y-101529042D01*
X196317670Y-101553428D01*
X193402119Y-101553428D01*
X193388201Y-101536469D01*
X193316773Y-101465040D01*
X193297831Y-101449495D01*
X193297830Y-101449494D01*
X193278832Y-101441625D01*
X193252772Y-101430830D01*
X193252771Y-101430830D01*
X193203997Y-101430830D01*
X193190799Y-101436296D01*
X193158938Y-101449494D01*
X193158932Y-101449499D01*
X193139996Y-101465040D01*
X193068567Y-101536469D01*
X193053026Y-101555405D01*
X193053021Y-101555411D01*
X193041521Y-101583175D01*
X193035573Y-101597536D01*
X193034357Y-101600471D01*
X188781955Y-101600471D01*
X188781955Y-101553428D01*
X188779553Y-101529042D01*
X188760889Y-101483982D01*
X188726401Y-101449494D01*
X188681341Y-101430830D01*
X188632569Y-101430830D01*
X188587509Y-101449494D01*
X188553021Y-101483982D01*
X188534357Y-101529042D01*
X188531955Y-101553428D01*
X188531955Y-101930186D01*
X188514098Y-101928428D01*
X188228383Y-101928428D01*
X188203997Y-101930830D01*
X188199848Y-101932548D01*
X188195366Y-101932867D01*
X188172481Y-101941625D01*
X188029624Y-102013054D01*
X188019129Y-102019660D01*
X188016079Y-102020924D01*
X188012644Y-102023742D01*
X188008887Y-102026108D01*
X188006725Y-102028599D01*
X187997137Y-102036469D01*
X187925710Y-102107897D01*
X187917843Y-102117482D01*
X187915349Y-102119646D01*
X187912981Y-102123407D01*
X187910165Y-102126839D01*
X187908902Y-102129886D01*
X187902295Y-102140383D01*
X187830866Y-102283240D01*
X187822108Y-102306126D01*
X187821789Y-102310607D01*
X187820071Y-102314756D01*
X187817669Y-102339142D01*
X187473361Y-102339142D01*
X187560387Y-102095470D01*
X187566327Y-102071697D01*
X187563905Y-102022985D01*
X187543026Y-101978906D01*
X187506868Y-101946174D01*
X187460938Y-101929771D01*
X187412226Y-101932192D01*
X187368147Y-101953071D01*
X187335415Y-101989229D01*
X187324951Y-102011386D01*
X187085526Y-102681775D01*
X186846101Y-102011386D01*
X186835637Y-101989228D01*
X186802905Y-101953071D01*
X186758826Y-101932192D01*
X186710114Y-101929770D01*
X186664183Y-101946174D01*
X186628026Y-101978906D01*
X186607147Y-102022985D01*
X186604725Y-102071697D01*
X185183226Y-102071697D01*
X185135366Y-101880254D01*
X185134723Y-101878454D01*
X185134659Y-101877554D01*
X185130773Y-101867399D01*
X185127121Y-101857179D01*
X185126584Y-101856454D01*
X185125901Y-101854669D01*
X185054472Y-101711812D01*
X185047865Y-101701317D01*
X185046602Y-101698267D01*
X185043783Y-101694832D01*
X185041418Y-101691075D01*
X185038926Y-101688913D01*
X185031057Y-101679325D01*
X184888200Y-101536469D01*
X184869258Y-101520924D01*
X184865108Y-101519205D01*
X184861715Y-101516262D01*
X184839340Y-101506272D01*
X184625055Y-101434843D01*
X184612962Y-101432093D01*
X184609912Y-101430830D01*
X184605489Y-101430394D01*
X184601160Y-101429410D01*
X184597869Y-101429643D01*
X184585526Y-101428428D01*
X184371241Y-101428428D01*
X184346855Y-101430830D01*
X184342706Y-101432548D01*
X184338225Y-101432867D01*
X184315339Y-101441625D01*
X184172481Y-101513054D01*
X184151744Y-101526108D01*
X184119788Y-101562953D01*
X184104364Y-101609223D01*
X184107822Y-101657873D01*
X184129634Y-101701496D01*
X184166479Y-101733452D01*
X184212749Y-101748876D01*
X184261399Y-101745418D01*
X184284285Y-101736660D01*
X184400749Y-101678428D01*
X184565242Y-101678428D01*
X184732289Y-101734110D01*
X184839938Y-101841759D01*
X184896157Y-101954198D01*
X184960526Y-102211673D01*
X184960526Y-102395182D01*
X184896157Y-102652657D01*
X184839938Y-102765096D01*
X184732289Y-102872745D01*
X184565240Y-102928428D01*
X184462955Y-102928428D01*
X184295905Y-102872745D01*
X184281955Y-102858794D01*
X184281955Y-102535571D01*
X184442669Y-102535571D01*
X184467055Y-102533169D01*
X184512115Y-102514505D01*
X184546603Y-102480017D01*
X184565267Y-102434957D01*
X184565267Y-102386185D01*
X184546603Y-102341125D01*
X184512115Y-102306637D01*
X184467055Y-102287973D01*
X184442669Y-102285571D01*
X184156955Y-102285571D01*
X184132569Y-102287973D01*
X184087509Y-102306637D01*
X184053021Y-102341125D01*
X184034357Y-102386185D01*
X184031955Y-102410571D01*
X183639098Y-102410571D01*
X183639098Y-102053428D01*
X183636696Y-102029042D01*
X183618032Y-101983982D01*
X183583544Y-101949494D01*
X183538484Y-101930830D01*
X183489712Y-101930830D01*
X183444652Y-101949494D01*
X183410164Y-101983982D01*
X183391500Y-102029042D01*
X183389098Y-102053428D01*
X183389098Y-102809634D01*
X183349500Y-102888829D01*
X183270303Y-102928428D01*
X183115034Y-102928428D01*
X183016714Y-102879268D01*
X182996241Y-102858794D01*
X182996241Y-102053428D01*
X182993839Y-102029042D01*
X182975175Y-101983982D01*
X182940687Y-101949494D01*
X182895627Y-101930830D01*
X182846855Y-101930830D01*
X182801795Y-101949494D01*
X182767307Y-101983982D01*
X182748643Y-102029042D01*
X182746241Y-102053428D01*
X182493838Y-102053428D01*
X182493838Y-102029042D01*
X182475174Y-101983982D01*
X182440686Y-101949494D01*
X182395626Y-101930830D01*
X182371240Y-101928428D01*
X182281955Y-101928428D01*
X182281955Y-101767714D01*
X182279553Y-101743328D01*
X182277834Y-101739179D01*
X182277516Y-101734697D01*
X182268758Y-101711812D01*
X182197329Y-101568955D01*
X182194762Y-101564878D01*
X182194121Y-101562953D01*
X182192041Y-101560554D01*
X182184275Y-101548218D01*
X182172434Y-101537948D01*
X182162165Y-101526108D01*
X182149828Y-101518341D01*
X182147430Y-101516262D01*
X182145504Y-101515620D01*
X182141428Y-101513054D01*
X181998571Y-101441625D01*
X181975685Y-101432867D01*
X181971203Y-101432548D01*
X181967055Y-101430830D01*
X181942669Y-101428428D01*
X181799812Y-101428428D01*
X181775426Y-101430830D01*
X181730366Y-101449494D01*
X181695878Y-101483982D01*
X181677214Y-101529042D01*
X181452202Y-101529042D01*
X181388201Y-101465040D01*
X181369259Y-101449495D01*
X181369258Y-101449494D01*
X181350260Y-101441625D01*
X181324200Y-101430830D01*
X181324199Y-101430830D01*
X181275425Y-101430830D01*
X181262227Y-101436296D01*
X181230366Y-101449494D01*
X181230360Y-101449499D01*
X181211424Y-101465040D01*
X181139995Y-101536469D01*
X181124454Y-101555405D01*
X181124449Y-101555411D01*
X181112949Y-101583175D01*
X181107001Y-101597536D01*
X181105785Y-101600471D01*
X180710526Y-101600471D01*
X180710526Y-101553428D01*
X180708947Y-101537400D01*
X180709077Y-101534449D01*
X180708500Y-101532863D01*
X180708124Y-101529042D01*
X180699824Y-101509005D01*
X180692409Y-101488612D01*
X180690526Y-101486556D01*
X180689460Y-101483982D01*
X180674122Y-101468644D01*
X180659469Y-101452644D01*
X180656943Y-101451465D01*
X180654972Y-101449494D01*
X180634933Y-101441193D01*
X180615273Y-101432019D01*
X180612486Y-101431896D01*
X180609912Y-101430830D01*
X180588226Y-101430830D01*
X180566548Y-101429877D01*
X180563927Y-101430830D01*
X180561140Y-101430830D01*
X180541096Y-101439132D01*
X180520711Y-101446545D01*
X180518655Y-101448427D01*
X180516080Y-101449494D01*
X180500737Y-101464836D01*
X180484742Y-101479485D01*
X180482784Y-101482789D01*
X180481592Y-101483982D01*
X180480462Y-101486709D01*
X180472253Y-101500567D01*
X180085525Y-102329268D01*
X179698799Y-101500567D01*
X179690589Y-101486709D01*
X179689460Y-101483982D01*
X179688267Y-101482789D01*
X179686310Y-101479485D01*
X179670309Y-101464831D01*
X179654972Y-101449494D01*
X179652397Y-101448427D01*
X179650342Y-101446545D01*
X179629948Y-101439129D01*
X179609912Y-101430830D01*
X179607126Y-101430830D01*
X179604505Y-101429877D01*
X179582826Y-101430830D01*
X179561140Y-101430830D01*
X179558565Y-101431896D01*
X179555779Y-101432019D01*
X179536118Y-101441193D01*
X179516080Y-101449494D01*
X179514108Y-101451465D01*
X179511583Y-101452644D01*
X179496929Y-101468644D01*
X179481592Y-101483982D01*
X179480525Y-101486556D01*
X179478643Y-101488612D01*
X179471227Y-101509005D01*
X179462928Y-101529042D01*
X179462551Y-101532863D01*
X179461975Y-101534449D01*
X179462104Y-101537400D01*
X179460526Y-101553428D01*
X179293859Y-101553428D01*
X179293859Y-101261761D01*
X203020051Y-101261761D01*
X203020051Y-103845095D01*
G37*
D13*
X167040100Y-62884000D02*
X166754386Y-62979238D01*
X166754386Y-62979238D02*
X166278195Y-62979238D01*
X166278195Y-62979238D02*
X166087719Y-62884000D01*
X166087719Y-62884000D02*
X165992481Y-62788761D01*
X165992481Y-62788761D02*
X165897243Y-62598285D01*
X165897243Y-62598285D02*
X165897243Y-62407809D01*
X165897243Y-62407809D02*
X165992481Y-62217333D01*
X165992481Y-62217333D02*
X166087719Y-62122095D01*
X166087719Y-62122095D02*
X166278195Y-62026857D01*
X166278195Y-62026857D02*
X166659148Y-61931619D01*
X166659148Y-61931619D02*
X166849624Y-61836380D01*
X166849624Y-61836380D02*
X166944862Y-61741142D01*
X166944862Y-61741142D02*
X167040100Y-61550666D01*
X167040100Y-61550666D02*
X167040100Y-61360190D01*
X167040100Y-61360190D02*
X166944862Y-61169714D01*
X166944862Y-61169714D02*
X166849624Y-61074476D01*
X166849624Y-61074476D02*
X166659148Y-60979238D01*
X166659148Y-60979238D02*
X166182957Y-60979238D01*
X166182957Y-60979238D02*
X165897243Y-61074476D01*
X164182957Y-61645904D02*
X164182957Y-62979238D01*
X165040100Y-61645904D02*
X165040100Y-62693523D01*
X165040100Y-62693523D02*
X164944862Y-62884000D01*
X164944862Y-62884000D02*
X164754386Y-62979238D01*
X164754386Y-62979238D02*
X164468671Y-62979238D01*
X164468671Y-62979238D02*
X164278195Y-62884000D01*
X164278195Y-62884000D02*
X164182957Y-62788761D01*
X163230576Y-61645904D02*
X163230576Y-62979238D01*
X163230576Y-61836380D02*
X163135338Y-61741142D01*
X163135338Y-61741142D02*
X162944862Y-61645904D01*
X162944862Y-61645904D02*
X162659147Y-61645904D01*
X162659147Y-61645904D02*
X162468671Y-61741142D01*
X162468671Y-61741142D02*
X162373433Y-61931619D01*
X162373433Y-61931619D02*
X162373433Y-62979238D01*
X160278195Y-62979238D02*
X160944862Y-62026857D01*
X161421052Y-62979238D02*
X161421052Y-60979238D01*
X161421052Y-60979238D02*
X160659147Y-60979238D01*
X160659147Y-60979238D02*
X160468671Y-61074476D01*
X160468671Y-61074476D02*
X160373433Y-61169714D01*
X160373433Y-61169714D02*
X160278195Y-61360190D01*
X160278195Y-61360190D02*
X160278195Y-61645904D01*
X160278195Y-61645904D02*
X160373433Y-61836380D01*
X160373433Y-61836380D02*
X160468671Y-61931619D01*
X160468671Y-61931619D02*
X160659147Y-62026857D01*
X160659147Y-62026857D02*
X161421052Y-62026857D01*
X159421052Y-62979238D02*
X159421052Y-61645904D01*
X159421052Y-60979238D02*
X159516290Y-61074476D01*
X159516290Y-61074476D02*
X159421052Y-61169714D01*
X159421052Y-61169714D02*
X159325814Y-61074476D01*
X159325814Y-61074476D02*
X159421052Y-60979238D01*
X159421052Y-60979238D02*
X159421052Y-61169714D01*
X158659147Y-61645904D02*
X158182957Y-62979238D01*
X158182957Y-62979238D02*
X157706766Y-61645904D01*
X156182956Y-62884000D02*
X156373432Y-62979238D01*
X156373432Y-62979238D02*
X156754385Y-62979238D01*
X156754385Y-62979238D02*
X156944861Y-62884000D01*
X156944861Y-62884000D02*
X157040099Y-62693523D01*
X157040099Y-62693523D02*
X157040099Y-61931619D01*
X157040099Y-61931619D02*
X156944861Y-61741142D01*
X156944861Y-61741142D02*
X156754385Y-61645904D01*
X156754385Y-61645904D02*
X156373432Y-61645904D01*
X156373432Y-61645904D02*
X156182956Y-61741142D01*
X156182956Y-61741142D02*
X156087718Y-61931619D01*
X156087718Y-61931619D02*
X156087718Y-62122095D01*
X156087718Y-62122095D02*
X157040099Y-62312571D01*
X155230575Y-62979238D02*
X155230575Y-61645904D01*
X155230575Y-62026857D02*
X155135337Y-61836380D01*
X155135337Y-61836380D02*
X155040099Y-61741142D01*
X155040099Y-61741142D02*
X154849623Y-61645904D01*
X154849623Y-61645904D02*
X154659146Y-61645904D01*
X171290100Y-66384000D02*
X171004386Y-66479238D01*
X171004386Y-66479238D02*
X170528195Y-66479238D01*
X170528195Y-66479238D02*
X170337719Y-66384000D01*
X170337719Y-66384000D02*
X170242481Y-66288761D01*
X170242481Y-66288761D02*
X170147243Y-66098285D01*
X170147243Y-66098285D02*
X170147243Y-65907809D01*
X170147243Y-65907809D02*
X170242481Y-65717333D01*
X170242481Y-65717333D02*
X170337719Y-65622095D01*
X170337719Y-65622095D02*
X170528195Y-65526857D01*
X170528195Y-65526857D02*
X170909148Y-65431619D01*
X170909148Y-65431619D02*
X171099624Y-65336380D01*
X171099624Y-65336380D02*
X171194862Y-65241142D01*
X171194862Y-65241142D02*
X171290100Y-65050666D01*
X171290100Y-65050666D02*
X171290100Y-64860190D01*
X171290100Y-64860190D02*
X171194862Y-64669714D01*
X171194862Y-64669714D02*
X171099624Y-64574476D01*
X171099624Y-64574476D02*
X170909148Y-64479238D01*
X170909148Y-64479238D02*
X170432957Y-64479238D01*
X170432957Y-64479238D02*
X170147243Y-64574476D01*
X168432957Y-65145904D02*
X168432957Y-66479238D01*
X169290100Y-65145904D02*
X169290100Y-66193523D01*
X169290100Y-66193523D02*
X169194862Y-66384000D01*
X169194862Y-66384000D02*
X169004386Y-66479238D01*
X169004386Y-66479238D02*
X168718671Y-66479238D01*
X168718671Y-66479238D02*
X168528195Y-66384000D01*
X168528195Y-66384000D02*
X168432957Y-66288761D01*
X167480576Y-65145904D02*
X167480576Y-66479238D01*
X167480576Y-65336380D02*
X167385338Y-65241142D01*
X167385338Y-65241142D02*
X167194862Y-65145904D01*
X167194862Y-65145904D02*
X166909147Y-65145904D01*
X166909147Y-65145904D02*
X166718671Y-65241142D01*
X166718671Y-65241142D02*
X166623433Y-65431619D01*
X166623433Y-65431619D02*
X166623433Y-66479238D01*
X164623433Y-64574476D02*
X164813909Y-64479238D01*
X164813909Y-64479238D02*
X165099623Y-64479238D01*
X165099623Y-64479238D02*
X165385338Y-64574476D01*
X165385338Y-64574476D02*
X165575814Y-64764952D01*
X165575814Y-64764952D02*
X165671052Y-64955428D01*
X165671052Y-64955428D02*
X165766290Y-65336380D01*
X165766290Y-65336380D02*
X165766290Y-65622095D01*
X165766290Y-65622095D02*
X165671052Y-66003047D01*
X165671052Y-66003047D02*
X165575814Y-66193523D01*
X165575814Y-66193523D02*
X165385338Y-66384000D01*
X165385338Y-66384000D02*
X165099623Y-66479238D01*
X165099623Y-66479238D02*
X164909147Y-66479238D01*
X164909147Y-66479238D02*
X164623433Y-66384000D01*
X164623433Y-66384000D02*
X164528195Y-66288761D01*
X164528195Y-66288761D02*
X164528195Y-65622095D01*
X164528195Y-65622095D02*
X164909147Y-65622095D01*
X163290100Y-64479238D02*
X162909147Y-64479238D01*
X162909147Y-64479238D02*
X162718671Y-64574476D01*
X162718671Y-64574476D02*
X162528195Y-64764952D01*
X162528195Y-64764952D02*
X162432957Y-65145904D01*
X162432957Y-65145904D02*
X162432957Y-65812571D01*
X162432957Y-65812571D02*
X162528195Y-66193523D01*
X162528195Y-66193523D02*
X162718671Y-66384000D01*
X162718671Y-66384000D02*
X162909147Y-66479238D01*
X162909147Y-66479238D02*
X163290100Y-66479238D01*
X163290100Y-66479238D02*
X163480576Y-66384000D01*
X163480576Y-66384000D02*
X163671052Y-66193523D01*
X163671052Y-66193523D02*
X163766290Y-65812571D01*
X163766290Y-65812571D02*
X163766290Y-65145904D01*
X163766290Y-65145904D02*
X163671052Y-64764952D01*
X163671052Y-64764952D02*
X163480576Y-64574476D01*
X163480576Y-64574476D02*
X163290100Y-64479238D01*
X162052005Y-66669714D02*
X160528195Y-66669714D01*
X160052004Y-66479238D02*
X160052004Y-64479238D01*
X160052004Y-64479238D02*
X159290099Y-64479238D01*
X159290099Y-64479238D02*
X159099623Y-64574476D01*
X159099623Y-64574476D02*
X159004385Y-64669714D01*
X159004385Y-64669714D02*
X158909147Y-64860190D01*
X158909147Y-64860190D02*
X158909147Y-65145904D01*
X158909147Y-65145904D02*
X159004385Y-65336380D01*
X159004385Y-65336380D02*
X159099623Y-65431619D01*
X159099623Y-65431619D02*
X159290099Y-65526857D01*
X159290099Y-65526857D02*
X160052004Y-65526857D01*
X158147242Y-65907809D02*
X157194861Y-65907809D01*
X158337718Y-66479238D02*
X157671052Y-64479238D01*
X157671052Y-64479238D02*
X157004385Y-66479238D01*
X156337718Y-66479238D02*
X156337718Y-64479238D01*
X156337718Y-64479238D02*
X155861528Y-64479238D01*
X155861528Y-64479238D02*
X155575813Y-64574476D01*
X155575813Y-64574476D02*
X155385337Y-64764952D01*
X155385337Y-64764952D02*
X155290099Y-64955428D01*
X155290099Y-64955428D02*
X155194861Y-65336380D01*
X155194861Y-65336380D02*
X155194861Y-65622095D01*
X155194861Y-65622095D02*
X155290099Y-66003047D01*
X155290099Y-66003047D02*
X155385337Y-66193523D01*
X155385337Y-66193523D02*
X155575813Y-66384000D01*
X155575813Y-66384000D02*
X155861528Y-66479238D01*
X155861528Y-66479238D02*
X156337718Y-66479238D01*
X154813909Y-66669714D02*
X153290099Y-66669714D01*
X153004384Y-65145904D02*
X152528194Y-66479238D01*
X152528194Y-66479238D02*
X152052003Y-65145904D01*
X151385336Y-64669714D02*
X151290098Y-64574476D01*
X151290098Y-64574476D02*
X151099622Y-64479238D01*
X151099622Y-64479238D02*
X150623431Y-64479238D01*
X150623431Y-64479238D02*
X150432955Y-64574476D01*
X150432955Y-64574476D02*
X150337717Y-64669714D01*
X150337717Y-64669714D02*
X150242479Y-64860190D01*
X150242479Y-64860190D02*
X150242479Y-65050666D01*
X150242479Y-65050666D02*
X150337717Y-65336380D01*
X150337717Y-65336380D02*
X151480574Y-66479238D01*
X151480574Y-66479238D02*
X150242479Y-66479238D01*
D14*
X190254166Y-97104819D02*
X190587499Y-96628628D01*
X190825594Y-97104819D02*
X190825594Y-96104819D01*
X190825594Y-96104819D02*
X190444642Y-96104819D01*
X190444642Y-96104819D02*
X190349404Y-96152438D01*
X190349404Y-96152438D02*
X190301785Y-96200057D01*
X190301785Y-96200057D02*
X190254166Y-96295295D01*
X190254166Y-96295295D02*
X190254166Y-96438152D01*
X190254166Y-96438152D02*
X190301785Y-96533390D01*
X190301785Y-96533390D02*
X190349404Y-96581009D01*
X190349404Y-96581009D02*
X190444642Y-96628628D01*
X190444642Y-96628628D02*
X190825594Y-96628628D01*
X189682737Y-96533390D02*
X189777975Y-96485771D01*
X189777975Y-96485771D02*
X189825594Y-96438152D01*
X189825594Y-96438152D02*
X189873213Y-96342914D01*
X189873213Y-96342914D02*
X189873213Y-96295295D01*
X189873213Y-96295295D02*
X189825594Y-96200057D01*
X189825594Y-96200057D02*
X189777975Y-96152438D01*
X189777975Y-96152438D02*
X189682737Y-96104819D01*
X189682737Y-96104819D02*
X189492261Y-96104819D01*
X189492261Y-96104819D02*
X189397023Y-96152438D01*
X189397023Y-96152438D02*
X189349404Y-96200057D01*
X189349404Y-96200057D02*
X189301785Y-96295295D01*
X189301785Y-96295295D02*
X189301785Y-96342914D01*
X189301785Y-96342914D02*
X189349404Y-96438152D01*
X189349404Y-96438152D02*
X189397023Y-96485771D01*
X189397023Y-96485771D02*
X189492261Y-96533390D01*
X189492261Y-96533390D02*
X189682737Y-96533390D01*
X189682737Y-96533390D02*
X189777975Y-96581009D01*
X189777975Y-96581009D02*
X189825594Y-96628628D01*
X189825594Y-96628628D02*
X189873213Y-96723866D01*
X189873213Y-96723866D02*
X189873213Y-96914342D01*
X189873213Y-96914342D02*
X189825594Y-97009580D01*
X189825594Y-97009580D02*
X189777975Y-97057200D01*
X189777975Y-97057200D02*
X189682737Y-97104819D01*
X189682737Y-97104819D02*
X189492261Y-97104819D01*
X189492261Y-97104819D02*
X189397023Y-97057200D01*
X189397023Y-97057200D02*
X189349404Y-97009580D01*
X189349404Y-97009580D02*
X189301785Y-96914342D01*
X189301785Y-96914342D02*
X189301785Y-96723866D01*
X189301785Y-96723866D02*
X189349404Y-96628628D01*
X189349404Y-96628628D02*
X189397023Y-96581009D01*
X189397023Y-96581009D02*
X189492261Y-96533390D01*
X84910713Y-49209819D02*
X84910713Y-48209819D01*
X84910713Y-48209819D02*
X84577380Y-48924104D01*
X84577380Y-48924104D02*
X84244047Y-48209819D01*
X84244047Y-48209819D02*
X84244047Y-49209819D01*
X83863094Y-48209819D02*
X83196428Y-49209819D01*
X83196428Y-48209819D02*
X83863094Y-49209819D01*
X82291666Y-49209819D02*
X82863094Y-49209819D01*
X82577380Y-49209819D02*
X82577380Y-48209819D01*
X82577380Y-48209819D02*
X82672618Y-48352676D01*
X82672618Y-48352676D02*
X82767856Y-48447914D01*
X82767856Y-48447914D02*
X82863094Y-48495533D01*
X153619580Y-82703333D02*
X153667200Y-82655714D01*
X153667200Y-82655714D02*
X153714819Y-82512857D01*
X153714819Y-82512857D02*
X153714819Y-82417619D01*
X153714819Y-82417619D02*
X153667200Y-82274762D01*
X153667200Y-82274762D02*
X153571961Y-82179524D01*
X153571961Y-82179524D02*
X153476723Y-82131905D01*
X153476723Y-82131905D02*
X153286247Y-82084286D01*
X153286247Y-82084286D02*
X153143390Y-82084286D01*
X153143390Y-82084286D02*
X152952914Y-82131905D01*
X152952914Y-82131905D02*
X152857676Y-82179524D01*
X152857676Y-82179524D02*
X152762438Y-82274762D01*
X152762438Y-82274762D02*
X152714819Y-82417619D01*
X152714819Y-82417619D02*
X152714819Y-82512857D01*
X152714819Y-82512857D02*
X152762438Y-82655714D01*
X152762438Y-82655714D02*
X152810057Y-82703333D01*
X153714819Y-83655714D02*
X153714819Y-83084286D01*
X153714819Y-83370000D02*
X152714819Y-83370000D01*
X152714819Y-83370000D02*
X152857676Y-83274762D01*
X152857676Y-83274762D02*
X152952914Y-83179524D01*
X152952914Y-83179524D02*
X153000533Y-83084286D01*
X157061904Y-49531619D02*
X157061904Y-48531619D01*
X157061904Y-48531619D02*
X156728571Y-49245904D01*
X156728571Y-49245904D02*
X156395238Y-48531619D01*
X156395238Y-48531619D02*
X156395238Y-49531619D01*
X156014285Y-48531619D02*
X155347619Y-49531619D01*
X155347619Y-48531619D02*
X156014285Y-49531619D01*
X154442857Y-49531619D02*
X155014285Y-49531619D01*
X154728571Y-49531619D02*
X154728571Y-48531619D01*
X154728571Y-48531619D02*
X154823809Y-48674476D01*
X154823809Y-48674476D02*
X154919047Y-48769714D01*
X154919047Y-48769714D02*
X155014285Y-48817333D01*
X153823809Y-48531619D02*
X153728571Y-48531619D01*
X153728571Y-48531619D02*
X153633333Y-48579238D01*
X153633333Y-48579238D02*
X153585714Y-48626857D01*
X153585714Y-48626857D02*
X153538095Y-48722095D01*
X153538095Y-48722095D02*
X153490476Y-48912571D01*
X153490476Y-48912571D02*
X153490476Y-49150666D01*
X153490476Y-49150666D02*
X153538095Y-49341142D01*
X153538095Y-49341142D02*
X153585714Y-49436380D01*
X153585714Y-49436380D02*
X153633333Y-49484000D01*
X153633333Y-49484000D02*
X153728571Y-49531619D01*
X153728571Y-49531619D02*
X153823809Y-49531619D01*
X153823809Y-49531619D02*
X153919047Y-49484000D01*
X153919047Y-49484000D02*
X153966666Y-49436380D01*
X153966666Y-49436380D02*
X154014285Y-49341142D01*
X154014285Y-49341142D02*
X154061904Y-49150666D01*
X154061904Y-49150666D02*
X154061904Y-48912571D01*
X154061904Y-48912571D02*
X154014285Y-48722095D01*
X154014285Y-48722095D02*
X153966666Y-48626857D01*
X153966666Y-48626857D02*
X153919047Y-48579238D01*
X153919047Y-48579238D02*
X153823809Y-48531619D01*
X122507647Y-53696019D02*
X122983837Y-53696019D01*
X122983837Y-53696019D02*
X122983837Y-52696019D01*
X122174313Y-53172209D02*
X121840980Y-53172209D01*
X121698123Y-53696019D02*
X122174313Y-53696019D01*
X122174313Y-53696019D02*
X122174313Y-52696019D01*
X122174313Y-52696019D02*
X121698123Y-52696019D01*
X121269551Y-53696019D02*
X121269551Y-52696019D01*
X121269551Y-52696019D02*
X121031456Y-52696019D01*
X121031456Y-52696019D02*
X120888599Y-52743638D01*
X120888599Y-52743638D02*
X120793361Y-52838876D01*
X120793361Y-52838876D02*
X120745742Y-52934114D01*
X120745742Y-52934114D02*
X120698123Y-53124590D01*
X120698123Y-53124590D02*
X120698123Y-53267447D01*
X120698123Y-53267447D02*
X120745742Y-53457923D01*
X120745742Y-53457923D02*
X120793361Y-53553161D01*
X120793361Y-53553161D02*
X120888599Y-53648400D01*
X120888599Y-53648400D02*
X121031456Y-53696019D01*
X121031456Y-53696019D02*
X121269551Y-53696019D01*
X120364789Y-52696019D02*
X119745742Y-52696019D01*
X119745742Y-52696019D02*
X120079075Y-53076971D01*
X120079075Y-53076971D02*
X119936218Y-53076971D01*
X119936218Y-53076971D02*
X119840980Y-53124590D01*
X119840980Y-53124590D02*
X119793361Y-53172209D01*
X119793361Y-53172209D02*
X119745742Y-53267447D01*
X119745742Y-53267447D02*
X119745742Y-53505542D01*
X119745742Y-53505542D02*
X119793361Y-53600780D01*
X119793361Y-53600780D02*
X119840980Y-53648400D01*
X119840980Y-53648400D02*
X119936218Y-53696019D01*
X119936218Y-53696019D02*
X120221932Y-53696019D01*
X120221932Y-53696019D02*
X120317170Y-53648400D01*
X120317170Y-53648400D02*
X120364789Y-53600780D01*
X122404071Y-100835658D02*
X122880261Y-100835658D01*
X122880261Y-100835658D02*
X122880261Y-99835658D01*
X122070737Y-100311848D02*
X121737404Y-100311848D01*
X121594547Y-100835658D02*
X122070737Y-100835658D01*
X122070737Y-100835658D02*
X122070737Y-99835658D01*
X122070737Y-99835658D02*
X121594547Y-99835658D01*
X121165975Y-100835658D02*
X121165975Y-99835658D01*
X121165975Y-99835658D02*
X120927880Y-99835658D01*
X120927880Y-99835658D02*
X120785023Y-99883277D01*
X120785023Y-99883277D02*
X120689785Y-99978515D01*
X120689785Y-99978515D02*
X120642166Y-100073753D01*
X120642166Y-100073753D02*
X120594547Y-100264229D01*
X120594547Y-100264229D02*
X120594547Y-100407086D01*
X120594547Y-100407086D02*
X120642166Y-100597562D01*
X120642166Y-100597562D02*
X120689785Y-100692800D01*
X120689785Y-100692800D02*
X120785023Y-100788039D01*
X120785023Y-100788039D02*
X120927880Y-100835658D01*
X120927880Y-100835658D02*
X121165975Y-100835658D01*
X120118356Y-100835658D02*
X119927880Y-100835658D01*
X119927880Y-100835658D02*
X119832642Y-100788039D01*
X119832642Y-100788039D02*
X119785023Y-100740419D01*
X119785023Y-100740419D02*
X119689785Y-100597562D01*
X119689785Y-100597562D02*
X119642166Y-100407086D01*
X119642166Y-100407086D02*
X119642166Y-100026134D01*
X119642166Y-100026134D02*
X119689785Y-99930896D01*
X119689785Y-99930896D02*
X119737404Y-99883277D01*
X119737404Y-99883277D02*
X119832642Y-99835658D01*
X119832642Y-99835658D02*
X120023118Y-99835658D01*
X120023118Y-99835658D02*
X120118356Y-99883277D01*
X120118356Y-99883277D02*
X120165975Y-99930896D01*
X120165975Y-99930896D02*
X120213594Y-100026134D01*
X120213594Y-100026134D02*
X120213594Y-100264229D01*
X120213594Y-100264229D02*
X120165975Y-100359467D01*
X120165975Y-100359467D02*
X120118356Y-100407086D01*
X120118356Y-100407086D02*
X120023118Y-100454705D01*
X120023118Y-100454705D02*
X119832642Y-100454705D01*
X119832642Y-100454705D02*
X119737404Y-100407086D01*
X119737404Y-100407086D02*
X119689785Y-100359467D01*
X119689785Y-100359467D02*
X119642166Y-100264229D01*
X194559038Y-59154219D02*
X195035228Y-59154219D01*
X195035228Y-59154219D02*
X195035228Y-58154219D01*
X194225704Y-58630409D02*
X193892371Y-58630409D01*
X193749514Y-59154219D02*
X194225704Y-59154219D01*
X194225704Y-59154219D02*
X194225704Y-58154219D01*
X194225704Y-58154219D02*
X193749514Y-58154219D01*
X193320942Y-59154219D02*
X193320942Y-58154219D01*
X193320942Y-58154219D02*
X193082847Y-58154219D01*
X193082847Y-58154219D02*
X192939990Y-58201838D01*
X192939990Y-58201838D02*
X192844752Y-58297076D01*
X192844752Y-58297076D02*
X192797133Y-58392314D01*
X192797133Y-58392314D02*
X192749514Y-58582790D01*
X192749514Y-58582790D02*
X192749514Y-58725647D01*
X192749514Y-58725647D02*
X192797133Y-58916123D01*
X192797133Y-58916123D02*
X192844752Y-59011361D01*
X192844752Y-59011361D02*
X192939990Y-59106600D01*
X192939990Y-59106600D02*
X193082847Y-59154219D01*
X193082847Y-59154219D02*
X193320942Y-59154219D01*
X191797133Y-59154219D02*
X192368561Y-59154219D01*
X192082847Y-59154219D02*
X192082847Y-58154219D01*
X192082847Y-58154219D02*
X192178085Y-58297076D01*
X192178085Y-58297076D02*
X192273323Y-58392314D01*
X192273323Y-58392314D02*
X192368561Y-58439933D01*
X191416180Y-58249457D02*
X191368561Y-58201838D01*
X191368561Y-58201838D02*
X191273323Y-58154219D01*
X191273323Y-58154219D02*
X191035228Y-58154219D01*
X191035228Y-58154219D02*
X190939990Y-58201838D01*
X190939990Y-58201838D02*
X190892371Y-58249457D01*
X190892371Y-58249457D02*
X190844752Y-58344695D01*
X190844752Y-58344695D02*
X190844752Y-58439933D01*
X190844752Y-58439933D02*
X190892371Y-58582790D01*
X190892371Y-58582790D02*
X191463799Y-59154219D01*
X191463799Y-59154219D02*
X190844752Y-59154219D01*
X178096904Y-49504819D02*
X178096904Y-48504819D01*
X178096904Y-48504819D02*
X177763571Y-49219104D01*
X177763571Y-49219104D02*
X177430238Y-48504819D01*
X177430238Y-48504819D02*
X177430238Y-49504819D01*
X177049285Y-48504819D02*
X176382619Y-49504819D01*
X176382619Y-48504819D02*
X177049285Y-49504819D01*
X175477857Y-49504819D02*
X176049285Y-49504819D01*
X175763571Y-49504819D02*
X175763571Y-48504819D01*
X175763571Y-48504819D02*
X175858809Y-48647676D01*
X175858809Y-48647676D02*
X175954047Y-48742914D01*
X175954047Y-48742914D02*
X176049285Y-48790533D01*
X174525476Y-49504819D02*
X175096904Y-49504819D01*
X174811190Y-49504819D02*
X174811190Y-48504819D01*
X174811190Y-48504819D02*
X174906428Y-48647676D01*
X174906428Y-48647676D02*
X175001666Y-48742914D01*
X175001666Y-48742914D02*
X175096904Y-48790533D01*
X108914580Y-54682142D02*
X108962200Y-54634523D01*
X108962200Y-54634523D02*
X109009819Y-54491666D01*
X109009819Y-54491666D02*
X109009819Y-54396428D01*
X109009819Y-54396428D02*
X108962200Y-54253571D01*
X108962200Y-54253571D02*
X108866961Y-54158333D01*
X108866961Y-54158333D02*
X108771723Y-54110714D01*
X108771723Y-54110714D02*
X108581247Y-54063095D01*
X108581247Y-54063095D02*
X108438390Y-54063095D01*
X108438390Y-54063095D02*
X108247914Y-54110714D01*
X108247914Y-54110714D02*
X108152676Y-54158333D01*
X108152676Y-54158333D02*
X108057438Y-54253571D01*
X108057438Y-54253571D02*
X108009819Y-54396428D01*
X108009819Y-54396428D02*
X108009819Y-54491666D01*
X108009819Y-54491666D02*
X108057438Y-54634523D01*
X108057438Y-54634523D02*
X108105057Y-54682142D01*
X109009819Y-55634523D02*
X109009819Y-55063095D01*
X109009819Y-55348809D02*
X108009819Y-55348809D01*
X108009819Y-55348809D02*
X108152676Y-55253571D01*
X108152676Y-55253571D02*
X108247914Y-55158333D01*
X108247914Y-55158333D02*
X108295533Y-55063095D01*
X109009819Y-56586904D02*
X109009819Y-56015476D01*
X109009819Y-56301190D02*
X108009819Y-56301190D01*
X108009819Y-56301190D02*
X108152676Y-56205952D01*
X108152676Y-56205952D02*
X108247914Y-56110714D01*
X108247914Y-56110714D02*
X108295533Y-56015476D01*
X160728819Y-82740833D02*
X160252628Y-82407500D01*
X160728819Y-82169405D02*
X159728819Y-82169405D01*
X159728819Y-82169405D02*
X159728819Y-82550357D01*
X159728819Y-82550357D02*
X159776438Y-82645595D01*
X159776438Y-82645595D02*
X159824057Y-82693214D01*
X159824057Y-82693214D02*
X159919295Y-82740833D01*
X159919295Y-82740833D02*
X160062152Y-82740833D01*
X160062152Y-82740833D02*
X160157390Y-82693214D01*
X160157390Y-82693214D02*
X160205009Y-82645595D01*
X160205009Y-82645595D02*
X160252628Y-82550357D01*
X160252628Y-82550357D02*
X160252628Y-82169405D01*
X160728819Y-83693214D02*
X160728819Y-83121786D01*
X160728819Y-83407500D02*
X159728819Y-83407500D01*
X159728819Y-83407500D02*
X159871676Y-83312262D01*
X159871676Y-83312262D02*
X159966914Y-83217024D01*
X159966914Y-83217024D02*
X160014533Y-83121786D01*
X126820713Y-49504819D02*
X126820713Y-48504819D01*
X126820713Y-48504819D02*
X126487380Y-49219104D01*
X126487380Y-49219104D02*
X126154047Y-48504819D01*
X126154047Y-48504819D02*
X126154047Y-49504819D01*
X125773094Y-48504819D02*
X125106428Y-49504819D01*
X125106428Y-48504819D02*
X125773094Y-49504819D01*
X124820713Y-48504819D02*
X124201666Y-48504819D01*
X124201666Y-48504819D02*
X124534999Y-48885771D01*
X124534999Y-48885771D02*
X124392142Y-48885771D01*
X124392142Y-48885771D02*
X124296904Y-48933390D01*
X124296904Y-48933390D02*
X124249285Y-48981009D01*
X124249285Y-48981009D02*
X124201666Y-49076247D01*
X124201666Y-49076247D02*
X124201666Y-49314342D01*
X124201666Y-49314342D02*
X124249285Y-49409580D01*
X124249285Y-49409580D02*
X124296904Y-49457200D01*
X124296904Y-49457200D02*
X124392142Y-49504819D01*
X124392142Y-49504819D02*
X124677856Y-49504819D01*
X124677856Y-49504819D02*
X124773094Y-49457200D01*
X124773094Y-49457200D02*
X124820713Y-49409580D01*
X126467857Y-61039580D02*
X126515476Y-61087200D01*
X126515476Y-61087200D02*
X126658333Y-61134819D01*
X126658333Y-61134819D02*
X126753571Y-61134819D01*
X126753571Y-61134819D02*
X126896428Y-61087200D01*
X126896428Y-61087200D02*
X126991666Y-60991961D01*
X126991666Y-60991961D02*
X127039285Y-60896723D01*
X127039285Y-60896723D02*
X127086904Y-60706247D01*
X127086904Y-60706247D02*
X127086904Y-60563390D01*
X127086904Y-60563390D02*
X127039285Y-60372914D01*
X127039285Y-60372914D02*
X126991666Y-60277676D01*
X126991666Y-60277676D02*
X126896428Y-60182438D01*
X126896428Y-60182438D02*
X126753571Y-60134819D01*
X126753571Y-60134819D02*
X126658333Y-60134819D01*
X126658333Y-60134819D02*
X126515476Y-60182438D01*
X126515476Y-60182438D02*
X126467857Y-60230057D01*
X125515476Y-61134819D02*
X126086904Y-61134819D01*
X125801190Y-61134819D02*
X125801190Y-60134819D01*
X125801190Y-60134819D02*
X125896428Y-60277676D01*
X125896428Y-60277676D02*
X125991666Y-60372914D01*
X125991666Y-60372914D02*
X126086904Y-60420533D01*
X125134523Y-60230057D02*
X125086904Y-60182438D01*
X125086904Y-60182438D02*
X124991666Y-60134819D01*
X124991666Y-60134819D02*
X124753571Y-60134819D01*
X124753571Y-60134819D02*
X124658333Y-60182438D01*
X124658333Y-60182438D02*
X124610714Y-60230057D01*
X124610714Y-60230057D02*
X124563095Y-60325295D01*
X124563095Y-60325295D02*
X124563095Y-60420533D01*
X124563095Y-60420533D02*
X124610714Y-60563390D01*
X124610714Y-60563390D02*
X125182142Y-61134819D01*
X125182142Y-61134819D02*
X124563095Y-61134819D01*
X196579166Y-93804819D02*
X196912499Y-93328628D01*
X197150594Y-93804819D02*
X197150594Y-92804819D01*
X197150594Y-92804819D02*
X196769642Y-92804819D01*
X196769642Y-92804819D02*
X196674404Y-92852438D01*
X196674404Y-92852438D02*
X196626785Y-92900057D01*
X196626785Y-92900057D02*
X196579166Y-92995295D01*
X196579166Y-92995295D02*
X196579166Y-93138152D01*
X196579166Y-93138152D02*
X196626785Y-93233390D01*
X196626785Y-93233390D02*
X196674404Y-93281009D01*
X196674404Y-93281009D02*
X196769642Y-93328628D01*
X196769642Y-93328628D02*
X197150594Y-93328628D01*
X195722023Y-92804819D02*
X195912499Y-92804819D01*
X195912499Y-92804819D02*
X196007737Y-92852438D01*
X196007737Y-92852438D02*
X196055356Y-92900057D01*
X196055356Y-92900057D02*
X196150594Y-93042914D01*
X196150594Y-93042914D02*
X196198213Y-93233390D01*
X196198213Y-93233390D02*
X196198213Y-93614342D01*
X196198213Y-93614342D02*
X196150594Y-93709580D01*
X196150594Y-93709580D02*
X196102975Y-93757200D01*
X196102975Y-93757200D02*
X196007737Y-93804819D01*
X196007737Y-93804819D02*
X195817261Y-93804819D01*
X195817261Y-93804819D02*
X195722023Y-93757200D01*
X195722023Y-93757200D02*
X195674404Y-93709580D01*
X195674404Y-93709580D02*
X195626785Y-93614342D01*
X195626785Y-93614342D02*
X195626785Y-93376247D01*
X195626785Y-93376247D02*
X195674404Y-93281009D01*
X195674404Y-93281009D02*
X195722023Y-93233390D01*
X195722023Y-93233390D02*
X195817261Y-93185771D01*
X195817261Y-93185771D02*
X196007737Y-93185771D01*
X196007737Y-93185771D02*
X196102975Y-93233390D01*
X196102975Y-93233390D02*
X196150594Y-93281009D01*
X196150594Y-93281009D02*
X196198213Y-93376247D01*
X108614580Y-97033333D02*
X108662200Y-96985714D01*
X108662200Y-96985714D02*
X108709819Y-96842857D01*
X108709819Y-96842857D02*
X108709819Y-96747619D01*
X108709819Y-96747619D02*
X108662200Y-96604762D01*
X108662200Y-96604762D02*
X108566961Y-96509524D01*
X108566961Y-96509524D02*
X108471723Y-96461905D01*
X108471723Y-96461905D02*
X108281247Y-96414286D01*
X108281247Y-96414286D02*
X108138390Y-96414286D01*
X108138390Y-96414286D02*
X107947914Y-96461905D01*
X107947914Y-96461905D02*
X107852676Y-96509524D01*
X107852676Y-96509524D02*
X107757438Y-96604762D01*
X107757438Y-96604762D02*
X107709819Y-96747619D01*
X107709819Y-96747619D02*
X107709819Y-96842857D01*
X107709819Y-96842857D02*
X107757438Y-96985714D01*
X107757438Y-96985714D02*
X107805057Y-97033333D01*
X107709819Y-97890476D02*
X107709819Y-97700000D01*
X107709819Y-97700000D02*
X107757438Y-97604762D01*
X107757438Y-97604762D02*
X107805057Y-97557143D01*
X107805057Y-97557143D02*
X107947914Y-97461905D01*
X107947914Y-97461905D02*
X108138390Y-97414286D01*
X108138390Y-97414286D02*
X108519342Y-97414286D01*
X108519342Y-97414286D02*
X108614580Y-97461905D01*
X108614580Y-97461905D02*
X108662200Y-97509524D01*
X108662200Y-97509524D02*
X108709819Y-97604762D01*
X108709819Y-97604762D02*
X108709819Y-97795238D01*
X108709819Y-97795238D02*
X108662200Y-97890476D01*
X108662200Y-97890476D02*
X108614580Y-97938095D01*
X108614580Y-97938095D02*
X108519342Y-97985714D01*
X108519342Y-97985714D02*
X108281247Y-97985714D01*
X108281247Y-97985714D02*
X108186009Y-97938095D01*
X108186009Y-97938095D02*
X108138390Y-97890476D01*
X108138390Y-97890476D02*
X108090771Y-97795238D01*
X108090771Y-97795238D02*
X108090771Y-97604762D01*
X108090771Y-97604762D02*
X108138390Y-97509524D01*
X108138390Y-97509524D02*
X108186009Y-97461905D01*
X108186009Y-97461905D02*
X108281247Y-97414286D01*
X105865713Y-70459819D02*
X105865713Y-69459819D01*
X105865713Y-69459819D02*
X105532380Y-70174104D01*
X105532380Y-70174104D02*
X105199047Y-69459819D01*
X105199047Y-69459819D02*
X105199047Y-70459819D01*
X104818094Y-69459819D02*
X104151428Y-70459819D01*
X104151428Y-69459819D02*
X104818094Y-70459819D01*
X103294285Y-69459819D02*
X103770475Y-69459819D01*
X103770475Y-69459819D02*
X103818094Y-69936009D01*
X103818094Y-69936009D02*
X103770475Y-69888390D01*
X103770475Y-69888390D02*
X103675237Y-69840771D01*
X103675237Y-69840771D02*
X103437142Y-69840771D01*
X103437142Y-69840771D02*
X103341904Y-69888390D01*
X103341904Y-69888390D02*
X103294285Y-69936009D01*
X103294285Y-69936009D02*
X103246666Y-70031247D01*
X103246666Y-70031247D02*
X103246666Y-70269342D01*
X103246666Y-70269342D02*
X103294285Y-70364580D01*
X103294285Y-70364580D02*
X103341904Y-70412200D01*
X103341904Y-70412200D02*
X103437142Y-70459819D01*
X103437142Y-70459819D02*
X103675237Y-70459819D01*
X103675237Y-70459819D02*
X103770475Y-70412200D01*
X103770475Y-70412200D02*
X103818094Y-70364580D01*
X101423615Y-100911819D02*
X101899805Y-100911819D01*
X101899805Y-100911819D02*
X101899805Y-99911819D01*
X101090281Y-100388009D02*
X100756948Y-100388009D01*
X100614091Y-100911819D02*
X101090281Y-100911819D01*
X101090281Y-100911819D02*
X101090281Y-99911819D01*
X101090281Y-99911819D02*
X100614091Y-99911819D01*
X100185519Y-100911819D02*
X100185519Y-99911819D01*
X100185519Y-99911819D02*
X99947424Y-99911819D01*
X99947424Y-99911819D02*
X99804567Y-99959438D01*
X99804567Y-99959438D02*
X99709329Y-100054676D01*
X99709329Y-100054676D02*
X99661710Y-100149914D01*
X99661710Y-100149914D02*
X99614091Y-100340390D01*
X99614091Y-100340390D02*
X99614091Y-100483247D01*
X99614091Y-100483247D02*
X99661710Y-100673723D01*
X99661710Y-100673723D02*
X99709329Y-100768961D01*
X99709329Y-100768961D02*
X99804567Y-100864200D01*
X99804567Y-100864200D02*
X99947424Y-100911819D01*
X99947424Y-100911819D02*
X100185519Y-100911819D01*
X99042662Y-100340390D02*
X99137900Y-100292771D01*
X99137900Y-100292771D02*
X99185519Y-100245152D01*
X99185519Y-100245152D02*
X99233138Y-100149914D01*
X99233138Y-100149914D02*
X99233138Y-100102295D01*
X99233138Y-100102295D02*
X99185519Y-100007057D01*
X99185519Y-100007057D02*
X99137900Y-99959438D01*
X99137900Y-99959438D02*
X99042662Y-99911819D01*
X99042662Y-99911819D02*
X98852186Y-99911819D01*
X98852186Y-99911819D02*
X98756948Y-99959438D01*
X98756948Y-99959438D02*
X98709329Y-100007057D01*
X98709329Y-100007057D02*
X98661710Y-100102295D01*
X98661710Y-100102295D02*
X98661710Y-100149914D01*
X98661710Y-100149914D02*
X98709329Y-100245152D01*
X98709329Y-100245152D02*
X98756948Y-100292771D01*
X98756948Y-100292771D02*
X98852186Y-100340390D01*
X98852186Y-100340390D02*
X99042662Y-100340390D01*
X99042662Y-100340390D02*
X99137900Y-100388009D01*
X99137900Y-100388009D02*
X99185519Y-100435628D01*
X99185519Y-100435628D02*
X99233138Y-100530866D01*
X99233138Y-100530866D02*
X99233138Y-100721342D01*
X99233138Y-100721342D02*
X99185519Y-100816580D01*
X99185519Y-100816580D02*
X99137900Y-100864200D01*
X99137900Y-100864200D02*
X99042662Y-100911819D01*
X99042662Y-100911819D02*
X98852186Y-100911819D01*
X98852186Y-100911819D02*
X98756948Y-100864200D01*
X98756948Y-100864200D02*
X98709329Y-100816580D01*
X98709329Y-100816580D02*
X98661710Y-100721342D01*
X98661710Y-100721342D02*
X98661710Y-100530866D01*
X98661710Y-100530866D02*
X98709329Y-100435628D01*
X98709329Y-100435628D02*
X98756948Y-100388009D01*
X98756948Y-100388009D02*
X98852186Y-100340390D01*
X152623662Y-59179635D02*
X153099852Y-59179635D01*
X153099852Y-59179635D02*
X153099852Y-58179635D01*
X152290328Y-58655825D02*
X151956995Y-58655825D01*
X151814138Y-59179635D02*
X152290328Y-59179635D01*
X152290328Y-59179635D02*
X152290328Y-58179635D01*
X152290328Y-58179635D02*
X151814138Y-58179635D01*
X151385566Y-59179635D02*
X151385566Y-58179635D01*
X151385566Y-58179635D02*
X151147471Y-58179635D01*
X151147471Y-58179635D02*
X151004614Y-58227254D01*
X151004614Y-58227254D02*
X150909376Y-58322492D01*
X150909376Y-58322492D02*
X150861757Y-58417730D01*
X150861757Y-58417730D02*
X150814138Y-58608206D01*
X150814138Y-58608206D02*
X150814138Y-58751063D01*
X150814138Y-58751063D02*
X150861757Y-58941539D01*
X150861757Y-58941539D02*
X150909376Y-59036777D01*
X150909376Y-59036777D02*
X151004614Y-59132016D01*
X151004614Y-59132016D02*
X151147471Y-59179635D01*
X151147471Y-59179635D02*
X151385566Y-59179635D01*
X149861757Y-59179635D02*
X150433185Y-59179635D01*
X150147471Y-59179635D02*
X150147471Y-58179635D01*
X150147471Y-58179635D02*
X150242709Y-58322492D01*
X150242709Y-58322492D02*
X150337947Y-58417730D01*
X150337947Y-58417730D02*
X150433185Y-58465349D01*
X149242709Y-58179635D02*
X149147471Y-58179635D01*
X149147471Y-58179635D02*
X149052233Y-58227254D01*
X149052233Y-58227254D02*
X149004614Y-58274873D01*
X149004614Y-58274873D02*
X148956995Y-58370111D01*
X148956995Y-58370111D02*
X148909376Y-58560587D01*
X148909376Y-58560587D02*
X148909376Y-58798682D01*
X148909376Y-58798682D02*
X148956995Y-58989158D01*
X148956995Y-58989158D02*
X149004614Y-59084396D01*
X149004614Y-59084396D02*
X149052233Y-59132016D01*
X149052233Y-59132016D02*
X149147471Y-59179635D01*
X149147471Y-59179635D02*
X149242709Y-59179635D01*
X149242709Y-59179635D02*
X149337947Y-59132016D01*
X149337947Y-59132016D02*
X149385566Y-59084396D01*
X149385566Y-59084396D02*
X149433185Y-58989158D01*
X149433185Y-58989158D02*
X149480804Y-58798682D01*
X149480804Y-58798682D02*
X149480804Y-58560587D01*
X149480804Y-58560587D02*
X149433185Y-58370111D01*
X149433185Y-58370111D02*
X149385566Y-58274873D01*
X149385566Y-58274873D02*
X149337947Y-58227254D01*
X149337947Y-58227254D02*
X149242709Y-58179635D01*
X122404047Y-80160019D02*
X122880237Y-80160019D01*
X122880237Y-80160019D02*
X122880237Y-79160019D01*
X122070713Y-79636209D02*
X121737380Y-79636209D01*
X121594523Y-80160019D02*
X122070713Y-80160019D01*
X122070713Y-80160019D02*
X122070713Y-79160019D01*
X122070713Y-79160019D02*
X121594523Y-79160019D01*
X121165951Y-80160019D02*
X121165951Y-79160019D01*
X121165951Y-79160019D02*
X120927856Y-79160019D01*
X120927856Y-79160019D02*
X120784999Y-79207638D01*
X120784999Y-79207638D02*
X120689761Y-79302876D01*
X120689761Y-79302876D02*
X120642142Y-79398114D01*
X120642142Y-79398114D02*
X120594523Y-79588590D01*
X120594523Y-79588590D02*
X120594523Y-79731447D01*
X120594523Y-79731447D02*
X120642142Y-79921923D01*
X120642142Y-79921923D02*
X120689761Y-80017161D01*
X120689761Y-80017161D02*
X120784999Y-80112400D01*
X120784999Y-80112400D02*
X120927856Y-80160019D01*
X120927856Y-80160019D02*
X121165951Y-80160019D01*
X119737380Y-79160019D02*
X119927856Y-79160019D01*
X119927856Y-79160019D02*
X120023094Y-79207638D01*
X120023094Y-79207638D02*
X120070713Y-79255257D01*
X120070713Y-79255257D02*
X120165951Y-79398114D01*
X120165951Y-79398114D02*
X120213570Y-79588590D01*
X120213570Y-79588590D02*
X120213570Y-79969542D01*
X120213570Y-79969542D02*
X120165951Y-80064780D01*
X120165951Y-80064780D02*
X120118332Y-80112400D01*
X120118332Y-80112400D02*
X120023094Y-80160019D01*
X120023094Y-80160019D02*
X119832618Y-80160019D01*
X119832618Y-80160019D02*
X119737380Y-80112400D01*
X119737380Y-80112400D02*
X119689761Y-80064780D01*
X119689761Y-80064780D02*
X119642142Y-79969542D01*
X119642142Y-79969542D02*
X119642142Y-79731447D01*
X119642142Y-79731447D02*
X119689761Y-79636209D01*
X119689761Y-79636209D02*
X119737380Y-79588590D01*
X119737380Y-79588590D02*
X119832618Y-79540971D01*
X119832618Y-79540971D02*
X120023094Y-79540971D01*
X120023094Y-79540971D02*
X120118332Y-79588590D01*
X120118332Y-79588590D02*
X120165951Y-79636209D01*
X120165951Y-79636209D02*
X120213570Y-79731447D01*
X168114580Y-55932142D02*
X168162200Y-55884523D01*
X168162200Y-55884523D02*
X168209819Y-55741666D01*
X168209819Y-55741666D02*
X168209819Y-55646428D01*
X168209819Y-55646428D02*
X168162200Y-55503571D01*
X168162200Y-55503571D02*
X168066961Y-55408333D01*
X168066961Y-55408333D02*
X167971723Y-55360714D01*
X167971723Y-55360714D02*
X167781247Y-55313095D01*
X167781247Y-55313095D02*
X167638390Y-55313095D01*
X167638390Y-55313095D02*
X167447914Y-55360714D01*
X167447914Y-55360714D02*
X167352676Y-55408333D01*
X167352676Y-55408333D02*
X167257438Y-55503571D01*
X167257438Y-55503571D02*
X167209819Y-55646428D01*
X167209819Y-55646428D02*
X167209819Y-55741666D01*
X167209819Y-55741666D02*
X167257438Y-55884523D01*
X167257438Y-55884523D02*
X167305057Y-55932142D01*
X168209819Y-56884523D02*
X168209819Y-56313095D01*
X168209819Y-56598809D02*
X167209819Y-56598809D01*
X167209819Y-56598809D02*
X167352676Y-56503571D01*
X167352676Y-56503571D02*
X167447914Y-56408333D01*
X167447914Y-56408333D02*
X167495533Y-56313095D01*
X167543152Y-57741666D02*
X168209819Y-57741666D01*
X167162200Y-57503571D02*
X167876485Y-57265476D01*
X167876485Y-57265476D02*
X167876485Y-57884523D01*
X190666666Y-71104819D02*
X190999999Y-70628628D01*
X191238094Y-71104819D02*
X191238094Y-70104819D01*
X191238094Y-70104819D02*
X190857142Y-70104819D01*
X190857142Y-70104819D02*
X190761904Y-70152438D01*
X190761904Y-70152438D02*
X190714285Y-70200057D01*
X190714285Y-70200057D02*
X190666666Y-70295295D01*
X190666666Y-70295295D02*
X190666666Y-70438152D01*
X190666666Y-70438152D02*
X190714285Y-70533390D01*
X190714285Y-70533390D02*
X190761904Y-70581009D01*
X190761904Y-70581009D02*
X190857142Y-70628628D01*
X190857142Y-70628628D02*
X191238094Y-70628628D01*
X190333332Y-70104819D02*
X189714285Y-70104819D01*
X189714285Y-70104819D02*
X190047618Y-70485771D01*
X190047618Y-70485771D02*
X189904761Y-70485771D01*
X189904761Y-70485771D02*
X189809523Y-70533390D01*
X189809523Y-70533390D02*
X189761904Y-70581009D01*
X189761904Y-70581009D02*
X189714285Y-70676247D01*
X189714285Y-70676247D02*
X189714285Y-70914342D01*
X189714285Y-70914342D02*
X189761904Y-71009580D01*
X189761904Y-71009580D02*
X189809523Y-71057200D01*
X189809523Y-71057200D02*
X189904761Y-71104819D01*
X189904761Y-71104819D02*
X190190475Y-71104819D01*
X190190475Y-71104819D02*
X190285713Y-71057200D01*
X190285713Y-71057200D02*
X190333332Y-71009580D01*
X86609580Y-75933333D02*
X86657200Y-75885714D01*
X86657200Y-75885714D02*
X86704819Y-75742857D01*
X86704819Y-75742857D02*
X86704819Y-75647619D01*
X86704819Y-75647619D02*
X86657200Y-75504762D01*
X86657200Y-75504762D02*
X86561961Y-75409524D01*
X86561961Y-75409524D02*
X86466723Y-75361905D01*
X86466723Y-75361905D02*
X86276247Y-75314286D01*
X86276247Y-75314286D02*
X86133390Y-75314286D01*
X86133390Y-75314286D02*
X85942914Y-75361905D01*
X85942914Y-75361905D02*
X85847676Y-75409524D01*
X85847676Y-75409524D02*
X85752438Y-75504762D01*
X85752438Y-75504762D02*
X85704819Y-75647619D01*
X85704819Y-75647619D02*
X85704819Y-75742857D01*
X85704819Y-75742857D02*
X85752438Y-75885714D01*
X85752438Y-75885714D02*
X85800057Y-75933333D01*
X85704819Y-76266667D02*
X85704819Y-76933333D01*
X85704819Y-76933333D02*
X86704819Y-76504762D01*
X101545447Y-59027219D02*
X102021637Y-59027219D01*
X102021637Y-59027219D02*
X102021637Y-58027219D01*
X101212113Y-58503409D02*
X100878780Y-58503409D01*
X100735923Y-59027219D02*
X101212113Y-59027219D01*
X101212113Y-59027219D02*
X101212113Y-58027219D01*
X101212113Y-58027219D02*
X100735923Y-58027219D01*
X100307351Y-59027219D02*
X100307351Y-58027219D01*
X100307351Y-58027219D02*
X100069256Y-58027219D01*
X100069256Y-58027219D02*
X99926399Y-58074838D01*
X99926399Y-58074838D02*
X99831161Y-58170076D01*
X99831161Y-58170076D02*
X99783542Y-58265314D01*
X99783542Y-58265314D02*
X99735923Y-58455790D01*
X99735923Y-58455790D02*
X99735923Y-58598647D01*
X99735923Y-58598647D02*
X99783542Y-58789123D01*
X99783542Y-58789123D02*
X99831161Y-58884361D01*
X99831161Y-58884361D02*
X99926399Y-58979600D01*
X99926399Y-58979600D02*
X100069256Y-59027219D01*
X100069256Y-59027219D02*
X100307351Y-59027219D01*
X99354970Y-58122457D02*
X99307351Y-58074838D01*
X99307351Y-58074838D02*
X99212113Y-58027219D01*
X99212113Y-58027219D02*
X98974018Y-58027219D01*
X98974018Y-58027219D02*
X98878780Y-58074838D01*
X98878780Y-58074838D02*
X98831161Y-58122457D01*
X98831161Y-58122457D02*
X98783542Y-58217695D01*
X98783542Y-58217695D02*
X98783542Y-58312933D01*
X98783542Y-58312933D02*
X98831161Y-58455790D01*
X98831161Y-58455790D02*
X99402589Y-59027219D01*
X99402589Y-59027219D02*
X98783542Y-59027219D01*
X105865713Y-49504819D02*
X105865713Y-48504819D01*
X105865713Y-48504819D02*
X105532380Y-49219104D01*
X105532380Y-49219104D02*
X105199047Y-48504819D01*
X105199047Y-48504819D02*
X105199047Y-49504819D01*
X104818094Y-48504819D02*
X104151428Y-49504819D01*
X104151428Y-48504819D02*
X104818094Y-49504819D01*
X103818094Y-48600057D02*
X103770475Y-48552438D01*
X103770475Y-48552438D02*
X103675237Y-48504819D01*
X103675237Y-48504819D02*
X103437142Y-48504819D01*
X103437142Y-48504819D02*
X103341904Y-48552438D01*
X103341904Y-48552438D02*
X103294285Y-48600057D01*
X103294285Y-48600057D02*
X103246666Y-48695295D01*
X103246666Y-48695295D02*
X103246666Y-48790533D01*
X103246666Y-48790533D02*
X103294285Y-48933390D01*
X103294285Y-48933390D02*
X103865713Y-49504819D01*
X103865713Y-49504819D02*
X103246666Y-49504819D01*
X172539819Y-82740833D02*
X172063628Y-82407500D01*
X172539819Y-82169405D02*
X171539819Y-82169405D01*
X171539819Y-82169405D02*
X171539819Y-82550357D01*
X171539819Y-82550357D02*
X171587438Y-82645595D01*
X171587438Y-82645595D02*
X171635057Y-82693214D01*
X171635057Y-82693214D02*
X171730295Y-82740833D01*
X171730295Y-82740833D02*
X171873152Y-82740833D01*
X171873152Y-82740833D02*
X171968390Y-82693214D01*
X171968390Y-82693214D02*
X172016009Y-82645595D01*
X172016009Y-82645595D02*
X172063628Y-82550357D01*
X172063628Y-82550357D02*
X172063628Y-82169405D01*
X171635057Y-83121786D02*
X171587438Y-83169405D01*
X171587438Y-83169405D02*
X171539819Y-83264643D01*
X171539819Y-83264643D02*
X171539819Y-83502738D01*
X171539819Y-83502738D02*
X171587438Y-83597976D01*
X171587438Y-83597976D02*
X171635057Y-83645595D01*
X171635057Y-83645595D02*
X171730295Y-83693214D01*
X171730295Y-83693214D02*
X171825533Y-83693214D01*
X171825533Y-83693214D02*
X171968390Y-83645595D01*
X171968390Y-83645595D02*
X172539819Y-83074167D01*
X172539819Y-83074167D02*
X172539819Y-83693214D01*
X79935247Y-79956819D02*
X80411437Y-79956819D01*
X80411437Y-79956819D02*
X80411437Y-78956819D01*
X79601913Y-79433009D02*
X79268580Y-79433009D01*
X79125723Y-79956819D02*
X79601913Y-79956819D01*
X79601913Y-79956819D02*
X79601913Y-78956819D01*
X79601913Y-78956819D02*
X79125723Y-78956819D01*
X78697151Y-79956819D02*
X78697151Y-78956819D01*
X78697151Y-78956819D02*
X78459056Y-78956819D01*
X78459056Y-78956819D02*
X78316199Y-79004438D01*
X78316199Y-79004438D02*
X78220961Y-79099676D01*
X78220961Y-79099676D02*
X78173342Y-79194914D01*
X78173342Y-79194914D02*
X78125723Y-79385390D01*
X78125723Y-79385390D02*
X78125723Y-79528247D01*
X78125723Y-79528247D02*
X78173342Y-79718723D01*
X78173342Y-79718723D02*
X78220961Y-79813961D01*
X78220961Y-79813961D02*
X78316199Y-79909200D01*
X78316199Y-79909200D02*
X78459056Y-79956819D01*
X78459056Y-79956819D02*
X78697151Y-79956819D01*
X77268580Y-79290152D02*
X77268580Y-79956819D01*
X77506675Y-78909200D02*
X77744770Y-79623485D01*
X77744770Y-79623485D02*
X77125723Y-79623485D01*
X196754166Y-72804819D02*
X197087499Y-72328628D01*
X197325594Y-72804819D02*
X197325594Y-71804819D01*
X197325594Y-71804819D02*
X196944642Y-71804819D01*
X196944642Y-71804819D02*
X196849404Y-71852438D01*
X196849404Y-71852438D02*
X196801785Y-71900057D01*
X196801785Y-71900057D02*
X196754166Y-71995295D01*
X196754166Y-71995295D02*
X196754166Y-72138152D01*
X196754166Y-72138152D02*
X196801785Y-72233390D01*
X196801785Y-72233390D02*
X196849404Y-72281009D01*
X196849404Y-72281009D02*
X196944642Y-72328628D01*
X196944642Y-72328628D02*
X197325594Y-72328628D01*
X195849404Y-71804819D02*
X196325594Y-71804819D01*
X196325594Y-71804819D02*
X196373213Y-72281009D01*
X196373213Y-72281009D02*
X196325594Y-72233390D01*
X196325594Y-72233390D02*
X196230356Y-72185771D01*
X196230356Y-72185771D02*
X195992261Y-72185771D01*
X195992261Y-72185771D02*
X195897023Y-72233390D01*
X195897023Y-72233390D02*
X195849404Y-72281009D01*
X195849404Y-72281009D02*
X195801785Y-72376247D01*
X195801785Y-72376247D02*
X195801785Y-72614342D01*
X195801785Y-72614342D02*
X195849404Y-72709580D01*
X195849404Y-72709580D02*
X195897023Y-72757200D01*
X195897023Y-72757200D02*
X195992261Y-72804819D01*
X195992261Y-72804819D02*
X196230356Y-72804819D01*
X196230356Y-72804819D02*
X196325594Y-72757200D01*
X196325594Y-72757200D02*
X196373213Y-72709580D01*
X101550671Y-79779019D02*
X102026861Y-79779019D01*
X102026861Y-79779019D02*
X102026861Y-78779019D01*
X101217337Y-79255209D02*
X100884004Y-79255209D01*
X100741147Y-79779019D02*
X101217337Y-79779019D01*
X101217337Y-79779019D02*
X101217337Y-78779019D01*
X101217337Y-78779019D02*
X100741147Y-78779019D01*
X100312575Y-79779019D02*
X100312575Y-78779019D01*
X100312575Y-78779019D02*
X100074480Y-78779019D01*
X100074480Y-78779019D02*
X99931623Y-78826638D01*
X99931623Y-78826638D02*
X99836385Y-78921876D01*
X99836385Y-78921876D02*
X99788766Y-79017114D01*
X99788766Y-79017114D02*
X99741147Y-79207590D01*
X99741147Y-79207590D02*
X99741147Y-79350447D01*
X99741147Y-79350447D02*
X99788766Y-79540923D01*
X99788766Y-79540923D02*
X99836385Y-79636161D01*
X99836385Y-79636161D02*
X99931623Y-79731400D01*
X99931623Y-79731400D02*
X100074480Y-79779019D01*
X100074480Y-79779019D02*
X100312575Y-79779019D01*
X98836385Y-78779019D02*
X99312575Y-78779019D01*
X99312575Y-78779019D02*
X99360194Y-79255209D01*
X99360194Y-79255209D02*
X99312575Y-79207590D01*
X99312575Y-79207590D02*
X99217337Y-79159971D01*
X99217337Y-79159971D02*
X98979242Y-79159971D01*
X98979242Y-79159971D02*
X98884004Y-79207590D01*
X98884004Y-79207590D02*
X98836385Y-79255209D01*
X98836385Y-79255209D02*
X98788766Y-79350447D01*
X98788766Y-79350447D02*
X98788766Y-79588542D01*
X98788766Y-79588542D02*
X98836385Y-79683780D01*
X98836385Y-79683780D02*
X98884004Y-79731400D01*
X98884004Y-79731400D02*
X98979242Y-79779019D01*
X98979242Y-79779019D02*
X99217337Y-79779019D01*
X99217337Y-79779019D02*
X99312575Y-79731400D01*
X99312575Y-79731400D02*
X99360194Y-79683780D01*
X189164580Y-55907142D02*
X189212200Y-55859523D01*
X189212200Y-55859523D02*
X189259819Y-55716666D01*
X189259819Y-55716666D02*
X189259819Y-55621428D01*
X189259819Y-55621428D02*
X189212200Y-55478571D01*
X189212200Y-55478571D02*
X189116961Y-55383333D01*
X189116961Y-55383333D02*
X189021723Y-55335714D01*
X189021723Y-55335714D02*
X188831247Y-55288095D01*
X188831247Y-55288095D02*
X188688390Y-55288095D01*
X188688390Y-55288095D02*
X188497914Y-55335714D01*
X188497914Y-55335714D02*
X188402676Y-55383333D01*
X188402676Y-55383333D02*
X188307438Y-55478571D01*
X188307438Y-55478571D02*
X188259819Y-55621428D01*
X188259819Y-55621428D02*
X188259819Y-55716666D01*
X188259819Y-55716666D02*
X188307438Y-55859523D01*
X188307438Y-55859523D02*
X188355057Y-55907142D01*
X189259819Y-56859523D02*
X189259819Y-56288095D01*
X189259819Y-56573809D02*
X188259819Y-56573809D01*
X188259819Y-56573809D02*
X188402676Y-56478571D01*
X188402676Y-56478571D02*
X188497914Y-56383333D01*
X188497914Y-56383333D02*
X188545533Y-56288095D01*
X188259819Y-57764285D02*
X188259819Y-57288095D01*
X188259819Y-57288095D02*
X188736009Y-57240476D01*
X188736009Y-57240476D02*
X188688390Y-57288095D01*
X188688390Y-57288095D02*
X188640771Y-57383333D01*
X188640771Y-57383333D02*
X188640771Y-57621428D01*
X188640771Y-57621428D02*
X188688390Y-57716666D01*
X188688390Y-57716666D02*
X188736009Y-57764285D01*
X188736009Y-57764285D02*
X188831247Y-57811904D01*
X188831247Y-57811904D02*
X189069342Y-57811904D01*
X189069342Y-57811904D02*
X189164580Y-57764285D01*
X189164580Y-57764285D02*
X189212200Y-57716666D01*
X189212200Y-57716666D02*
X189259819Y-57621428D01*
X189259819Y-57621428D02*
X189259819Y-57383333D01*
X189259819Y-57383333D02*
X189212200Y-57288095D01*
X189212200Y-57288095D02*
X189164580Y-57240476D01*
X168952057Y-82914261D02*
X168904438Y-82819023D01*
X168904438Y-82819023D02*
X168809200Y-82723785D01*
X168809200Y-82723785D02*
X168666342Y-82580928D01*
X168666342Y-82580928D02*
X168618723Y-82485690D01*
X168618723Y-82485690D02*
X168618723Y-82390452D01*
X168856819Y-82438071D02*
X168809200Y-82342833D01*
X168809200Y-82342833D02*
X168713961Y-82247595D01*
X168713961Y-82247595D02*
X168523485Y-82199976D01*
X168523485Y-82199976D02*
X168190152Y-82199976D01*
X168190152Y-82199976D02*
X167999676Y-82247595D01*
X167999676Y-82247595D02*
X167904438Y-82342833D01*
X167904438Y-82342833D02*
X167856819Y-82438071D01*
X167856819Y-82438071D02*
X167856819Y-82628547D01*
X167856819Y-82628547D02*
X167904438Y-82723785D01*
X167904438Y-82723785D02*
X167999676Y-82819023D01*
X167999676Y-82819023D02*
X168190152Y-82866642D01*
X168190152Y-82866642D02*
X168523485Y-82866642D01*
X168523485Y-82866642D02*
X168713961Y-82819023D01*
X168713961Y-82819023D02*
X168809200Y-82723785D01*
X168809200Y-82723785D02*
X168856819Y-82628547D01*
X168856819Y-82628547D02*
X168856819Y-82438071D01*
X167952057Y-83247595D02*
X167904438Y-83295214D01*
X167904438Y-83295214D02*
X167856819Y-83390452D01*
X167856819Y-83390452D02*
X167856819Y-83628547D01*
X167856819Y-83628547D02*
X167904438Y-83723785D01*
X167904438Y-83723785D02*
X167952057Y-83771404D01*
X167952057Y-83771404D02*
X168047295Y-83819023D01*
X168047295Y-83819023D02*
X168142533Y-83819023D01*
X168142533Y-83819023D02*
X168285390Y-83771404D01*
X168285390Y-83771404D02*
X168856819Y-83199976D01*
X168856819Y-83199976D02*
X168856819Y-83819023D01*
X105773413Y-91414819D02*
X105773413Y-90414819D01*
X105773413Y-90414819D02*
X105440080Y-91129104D01*
X105440080Y-91129104D02*
X105106747Y-90414819D01*
X105106747Y-90414819D02*
X105106747Y-91414819D01*
X104725794Y-90414819D02*
X104059128Y-91414819D01*
X104059128Y-90414819D02*
X104725794Y-91414819D01*
X103535318Y-90843390D02*
X103630556Y-90795771D01*
X103630556Y-90795771D02*
X103678175Y-90748152D01*
X103678175Y-90748152D02*
X103725794Y-90652914D01*
X103725794Y-90652914D02*
X103725794Y-90605295D01*
X103725794Y-90605295D02*
X103678175Y-90510057D01*
X103678175Y-90510057D02*
X103630556Y-90462438D01*
X103630556Y-90462438D02*
X103535318Y-90414819D01*
X103535318Y-90414819D02*
X103344842Y-90414819D01*
X103344842Y-90414819D02*
X103249604Y-90462438D01*
X103249604Y-90462438D02*
X103201985Y-90510057D01*
X103201985Y-90510057D02*
X103154366Y-90605295D01*
X103154366Y-90605295D02*
X103154366Y-90652914D01*
X103154366Y-90652914D02*
X103201985Y-90748152D01*
X103201985Y-90748152D02*
X103249604Y-90795771D01*
X103249604Y-90795771D02*
X103344842Y-90843390D01*
X103344842Y-90843390D02*
X103535318Y-90843390D01*
X103535318Y-90843390D02*
X103630556Y-90891009D01*
X103630556Y-90891009D02*
X103678175Y-90938628D01*
X103678175Y-90938628D02*
X103725794Y-91033866D01*
X103725794Y-91033866D02*
X103725794Y-91224342D01*
X103725794Y-91224342D02*
X103678175Y-91319580D01*
X103678175Y-91319580D02*
X103630556Y-91367200D01*
X103630556Y-91367200D02*
X103535318Y-91414819D01*
X103535318Y-91414819D02*
X103344842Y-91414819D01*
X103344842Y-91414819D02*
X103249604Y-91367200D01*
X103249604Y-91367200D02*
X103201985Y-91319580D01*
X103201985Y-91319580D02*
X103154366Y-91224342D01*
X103154366Y-91224342D02*
X103154366Y-91033866D01*
X103154366Y-91033866D02*
X103201985Y-90938628D01*
X103201985Y-90938628D02*
X103249604Y-90891009D01*
X103249604Y-90891009D02*
X103344842Y-90843390D01*
X190079166Y-92104819D02*
X190412499Y-91628628D01*
X190650594Y-92104819D02*
X190650594Y-91104819D01*
X190650594Y-91104819D02*
X190269642Y-91104819D01*
X190269642Y-91104819D02*
X190174404Y-91152438D01*
X190174404Y-91152438D02*
X190126785Y-91200057D01*
X190126785Y-91200057D02*
X190079166Y-91295295D01*
X190079166Y-91295295D02*
X190079166Y-91438152D01*
X190079166Y-91438152D02*
X190126785Y-91533390D01*
X190126785Y-91533390D02*
X190174404Y-91581009D01*
X190174404Y-91581009D02*
X190269642Y-91628628D01*
X190269642Y-91628628D02*
X190650594Y-91628628D01*
X189745832Y-91104819D02*
X189079166Y-91104819D01*
X189079166Y-91104819D02*
X189507737Y-92104819D01*
X190754166Y-76104819D02*
X191087499Y-75628628D01*
X191325594Y-76104819D02*
X191325594Y-75104819D01*
X191325594Y-75104819D02*
X190944642Y-75104819D01*
X190944642Y-75104819D02*
X190849404Y-75152438D01*
X190849404Y-75152438D02*
X190801785Y-75200057D01*
X190801785Y-75200057D02*
X190754166Y-75295295D01*
X190754166Y-75295295D02*
X190754166Y-75438152D01*
X190754166Y-75438152D02*
X190801785Y-75533390D01*
X190801785Y-75533390D02*
X190849404Y-75581009D01*
X190849404Y-75581009D02*
X190944642Y-75628628D01*
X190944642Y-75628628D02*
X191325594Y-75628628D01*
X189897023Y-75438152D02*
X189897023Y-76104819D01*
X190135118Y-75057200D02*
X190373213Y-75771485D01*
X190373213Y-75771485D02*
X189754166Y-75771485D01*
X109339580Y-75933333D02*
X109387200Y-75885714D01*
X109387200Y-75885714D02*
X109434819Y-75742857D01*
X109434819Y-75742857D02*
X109434819Y-75647619D01*
X109434819Y-75647619D02*
X109387200Y-75504762D01*
X109387200Y-75504762D02*
X109291961Y-75409524D01*
X109291961Y-75409524D02*
X109196723Y-75361905D01*
X109196723Y-75361905D02*
X109006247Y-75314286D01*
X109006247Y-75314286D02*
X108863390Y-75314286D01*
X108863390Y-75314286D02*
X108672914Y-75361905D01*
X108672914Y-75361905D02*
X108577676Y-75409524D01*
X108577676Y-75409524D02*
X108482438Y-75504762D01*
X108482438Y-75504762D02*
X108434819Y-75647619D01*
X108434819Y-75647619D02*
X108434819Y-75742857D01*
X108434819Y-75742857D02*
X108482438Y-75885714D01*
X108482438Y-75885714D02*
X108530057Y-75933333D01*
X108863390Y-76504762D02*
X108815771Y-76409524D01*
X108815771Y-76409524D02*
X108768152Y-76361905D01*
X108768152Y-76361905D02*
X108672914Y-76314286D01*
X108672914Y-76314286D02*
X108625295Y-76314286D01*
X108625295Y-76314286D02*
X108530057Y-76361905D01*
X108530057Y-76361905D02*
X108482438Y-76409524D01*
X108482438Y-76409524D02*
X108434819Y-76504762D01*
X108434819Y-76504762D02*
X108434819Y-76695238D01*
X108434819Y-76695238D02*
X108482438Y-76790476D01*
X108482438Y-76790476D02*
X108530057Y-76838095D01*
X108530057Y-76838095D02*
X108625295Y-76885714D01*
X108625295Y-76885714D02*
X108672914Y-76885714D01*
X108672914Y-76885714D02*
X108768152Y-76838095D01*
X108768152Y-76838095D02*
X108815771Y-76790476D01*
X108815771Y-76790476D02*
X108863390Y-76695238D01*
X108863390Y-76695238D02*
X108863390Y-76504762D01*
X108863390Y-76504762D02*
X108911009Y-76409524D01*
X108911009Y-76409524D02*
X108958628Y-76361905D01*
X108958628Y-76361905D02*
X109053866Y-76314286D01*
X109053866Y-76314286D02*
X109244342Y-76314286D01*
X109244342Y-76314286D02*
X109339580Y-76361905D01*
X109339580Y-76361905D02*
X109387200Y-76409524D01*
X109387200Y-76409524D02*
X109434819Y-76504762D01*
X109434819Y-76504762D02*
X109434819Y-76695238D01*
X109434819Y-76695238D02*
X109387200Y-76790476D01*
X109387200Y-76790476D02*
X109339580Y-76838095D01*
X109339580Y-76838095D02*
X109244342Y-76885714D01*
X109244342Y-76885714D02*
X109053866Y-76885714D01*
X109053866Y-76885714D02*
X108958628Y-76838095D01*
X108958628Y-76838095D02*
X108911009Y-76790476D01*
X108911009Y-76790476D02*
X108863390Y-76695238D01*
X84611913Y-91391219D02*
X84611913Y-90391219D01*
X84611913Y-90391219D02*
X84278580Y-91105504D01*
X84278580Y-91105504D02*
X83945247Y-90391219D01*
X83945247Y-90391219D02*
X83945247Y-91391219D01*
X83564294Y-90391219D02*
X82897628Y-91391219D01*
X82897628Y-90391219D02*
X83564294Y-91391219D01*
X82611913Y-90391219D02*
X81945247Y-90391219D01*
X81945247Y-90391219D02*
X82373818Y-91391219D01*
X126820713Y-70459819D02*
X126820713Y-69459819D01*
X126820713Y-69459819D02*
X126487380Y-70174104D01*
X126487380Y-70174104D02*
X126154047Y-69459819D01*
X126154047Y-69459819D02*
X126154047Y-70459819D01*
X125773094Y-69459819D02*
X125106428Y-70459819D01*
X125106428Y-69459819D02*
X125773094Y-70459819D01*
X124296904Y-69459819D02*
X124487380Y-69459819D01*
X124487380Y-69459819D02*
X124582618Y-69507438D01*
X124582618Y-69507438D02*
X124630237Y-69555057D01*
X124630237Y-69555057D02*
X124725475Y-69697914D01*
X124725475Y-69697914D02*
X124773094Y-69888390D01*
X124773094Y-69888390D02*
X124773094Y-70269342D01*
X124773094Y-70269342D02*
X124725475Y-70364580D01*
X124725475Y-70364580D02*
X124677856Y-70412200D01*
X124677856Y-70412200D02*
X124582618Y-70459819D01*
X124582618Y-70459819D02*
X124392142Y-70459819D01*
X124392142Y-70459819D02*
X124296904Y-70412200D01*
X124296904Y-70412200D02*
X124249285Y-70364580D01*
X124249285Y-70364580D02*
X124201666Y-70269342D01*
X124201666Y-70269342D02*
X124201666Y-70031247D01*
X124201666Y-70031247D02*
X124249285Y-69936009D01*
X124249285Y-69936009D02*
X124296904Y-69888390D01*
X124296904Y-69888390D02*
X124392142Y-69840771D01*
X124392142Y-69840771D02*
X124582618Y-69840771D01*
X124582618Y-69840771D02*
X124677856Y-69888390D01*
X124677856Y-69888390D02*
X124725475Y-69936009D01*
X124725475Y-69936009D02*
X124773094Y-70031247D01*
X80361871Y-59103419D02*
X80838061Y-59103419D01*
X80838061Y-59103419D02*
X80838061Y-58103419D01*
X80028537Y-58579609D02*
X79695204Y-58579609D01*
X79552347Y-59103419D02*
X80028537Y-59103419D01*
X80028537Y-59103419D02*
X80028537Y-58103419D01*
X80028537Y-58103419D02*
X79552347Y-58103419D01*
X79123775Y-59103419D02*
X79123775Y-58103419D01*
X79123775Y-58103419D02*
X78885680Y-58103419D01*
X78885680Y-58103419D02*
X78742823Y-58151038D01*
X78742823Y-58151038D02*
X78647585Y-58246276D01*
X78647585Y-58246276D02*
X78599966Y-58341514D01*
X78599966Y-58341514D02*
X78552347Y-58531990D01*
X78552347Y-58531990D02*
X78552347Y-58674847D01*
X78552347Y-58674847D02*
X78599966Y-58865323D01*
X78599966Y-58865323D02*
X78647585Y-58960561D01*
X78647585Y-58960561D02*
X78742823Y-59055800D01*
X78742823Y-59055800D02*
X78885680Y-59103419D01*
X78885680Y-59103419D02*
X79123775Y-59103419D01*
X77599966Y-59103419D02*
X78171394Y-59103419D01*
X77885680Y-59103419D02*
X77885680Y-58103419D01*
X77885680Y-58103419D02*
X77980918Y-58246276D01*
X77980918Y-58246276D02*
X78076156Y-58341514D01*
X78076156Y-58341514D02*
X78171394Y-58389133D01*
X199231904Y-49504819D02*
X199231904Y-48504819D01*
X199231904Y-48504819D02*
X198898571Y-49219104D01*
X198898571Y-49219104D02*
X198565238Y-48504819D01*
X198565238Y-48504819D02*
X198565238Y-49504819D01*
X198184285Y-48504819D02*
X197517619Y-49504819D01*
X197517619Y-48504819D02*
X198184285Y-49504819D01*
X196612857Y-49504819D02*
X197184285Y-49504819D01*
X196898571Y-49504819D02*
X196898571Y-48504819D01*
X196898571Y-48504819D02*
X196993809Y-48647676D01*
X196993809Y-48647676D02*
X197089047Y-48742914D01*
X197089047Y-48742914D02*
X197184285Y-48790533D01*
X196231904Y-48600057D02*
X196184285Y-48552438D01*
X196184285Y-48552438D02*
X196089047Y-48504819D01*
X196089047Y-48504819D02*
X195850952Y-48504819D01*
X195850952Y-48504819D02*
X195755714Y-48552438D01*
X195755714Y-48552438D02*
X195708095Y-48600057D01*
X195708095Y-48600057D02*
X195660476Y-48695295D01*
X195660476Y-48695295D02*
X195660476Y-48790533D01*
X195660476Y-48790533D02*
X195708095Y-48933390D01*
X195708095Y-48933390D02*
X196279523Y-49504819D01*
X196279523Y-49504819D02*
X195660476Y-49504819D01*
X158714580Y-54657142D02*
X158762200Y-54609523D01*
X158762200Y-54609523D02*
X158809819Y-54466666D01*
X158809819Y-54466666D02*
X158809819Y-54371428D01*
X158809819Y-54371428D02*
X158762200Y-54228571D01*
X158762200Y-54228571D02*
X158666961Y-54133333D01*
X158666961Y-54133333D02*
X158571723Y-54085714D01*
X158571723Y-54085714D02*
X158381247Y-54038095D01*
X158381247Y-54038095D02*
X158238390Y-54038095D01*
X158238390Y-54038095D02*
X158047914Y-54085714D01*
X158047914Y-54085714D02*
X157952676Y-54133333D01*
X157952676Y-54133333D02*
X157857438Y-54228571D01*
X157857438Y-54228571D02*
X157809819Y-54371428D01*
X157809819Y-54371428D02*
X157809819Y-54466666D01*
X157809819Y-54466666D02*
X157857438Y-54609523D01*
X157857438Y-54609523D02*
X157905057Y-54657142D01*
X158809819Y-55609523D02*
X158809819Y-55038095D01*
X158809819Y-55323809D02*
X157809819Y-55323809D01*
X157809819Y-55323809D02*
X157952676Y-55228571D01*
X157952676Y-55228571D02*
X158047914Y-55133333D01*
X158047914Y-55133333D02*
X158095533Y-55038095D01*
X157809819Y-55942857D02*
X157809819Y-56561904D01*
X157809819Y-56561904D02*
X158190771Y-56228571D01*
X158190771Y-56228571D02*
X158190771Y-56371428D01*
X158190771Y-56371428D02*
X158238390Y-56466666D01*
X158238390Y-56466666D02*
X158286009Y-56514285D01*
X158286009Y-56514285D02*
X158381247Y-56561904D01*
X158381247Y-56561904D02*
X158619342Y-56561904D01*
X158619342Y-56561904D02*
X158714580Y-56514285D01*
X158714580Y-56514285D02*
X158762200Y-56466666D01*
X158762200Y-56466666D02*
X158809819Y-56371428D01*
X158809819Y-56371428D02*
X158809819Y-56085714D01*
X158809819Y-56085714D02*
X158762200Y-55990476D01*
X158762200Y-55990476D02*
X158714580Y-55942857D01*
X80214647Y-100607058D02*
X80690837Y-100607058D01*
X80690837Y-100607058D02*
X80690837Y-99607058D01*
X79881313Y-100083248D02*
X79547980Y-100083248D01*
X79405123Y-100607058D02*
X79881313Y-100607058D01*
X79881313Y-100607058D02*
X79881313Y-99607058D01*
X79881313Y-99607058D02*
X79405123Y-99607058D01*
X78976551Y-100607058D02*
X78976551Y-99607058D01*
X78976551Y-99607058D02*
X78738456Y-99607058D01*
X78738456Y-99607058D02*
X78595599Y-99654677D01*
X78595599Y-99654677D02*
X78500361Y-99749915D01*
X78500361Y-99749915D02*
X78452742Y-99845153D01*
X78452742Y-99845153D02*
X78405123Y-100035629D01*
X78405123Y-100035629D02*
X78405123Y-100178486D01*
X78405123Y-100178486D02*
X78452742Y-100368962D01*
X78452742Y-100368962D02*
X78500361Y-100464200D01*
X78500361Y-100464200D02*
X78595599Y-100559439D01*
X78595599Y-100559439D02*
X78738456Y-100607058D01*
X78738456Y-100607058D02*
X78976551Y-100607058D01*
X78071789Y-99607058D02*
X77405123Y-99607058D01*
X77405123Y-99607058D02*
X77833694Y-100607058D01*
X173705638Y-59154219D02*
X174181828Y-59154219D01*
X174181828Y-59154219D02*
X174181828Y-58154219D01*
X173372304Y-58630409D02*
X173038971Y-58630409D01*
X172896114Y-59154219D02*
X173372304Y-59154219D01*
X173372304Y-59154219D02*
X173372304Y-58154219D01*
X173372304Y-58154219D02*
X172896114Y-58154219D01*
X172467542Y-59154219D02*
X172467542Y-58154219D01*
X172467542Y-58154219D02*
X172229447Y-58154219D01*
X172229447Y-58154219D02*
X172086590Y-58201838D01*
X172086590Y-58201838D02*
X171991352Y-58297076D01*
X171991352Y-58297076D02*
X171943733Y-58392314D01*
X171943733Y-58392314D02*
X171896114Y-58582790D01*
X171896114Y-58582790D02*
X171896114Y-58725647D01*
X171896114Y-58725647D02*
X171943733Y-58916123D01*
X171943733Y-58916123D02*
X171991352Y-59011361D01*
X171991352Y-59011361D02*
X172086590Y-59106600D01*
X172086590Y-59106600D02*
X172229447Y-59154219D01*
X172229447Y-59154219D02*
X172467542Y-59154219D01*
X170943733Y-59154219D02*
X171515161Y-59154219D01*
X171229447Y-59154219D02*
X171229447Y-58154219D01*
X171229447Y-58154219D02*
X171324685Y-58297076D01*
X171324685Y-58297076D02*
X171419923Y-58392314D01*
X171419923Y-58392314D02*
X171515161Y-58439933D01*
X169991352Y-59154219D02*
X170562780Y-59154219D01*
X170277066Y-59154219D02*
X170277066Y-58154219D01*
X170277066Y-58154219D02*
X170372304Y-58297076D01*
X170372304Y-58297076D02*
X170467542Y-58392314D01*
X170467542Y-58392314D02*
X170562780Y-58439933D01*
X126966666Y-97789580D02*
X127014285Y-97837200D01*
X127014285Y-97837200D02*
X127157142Y-97884819D01*
X127157142Y-97884819D02*
X127252380Y-97884819D01*
X127252380Y-97884819D02*
X127395237Y-97837200D01*
X127395237Y-97837200D02*
X127490475Y-97741961D01*
X127490475Y-97741961D02*
X127538094Y-97646723D01*
X127538094Y-97646723D02*
X127585713Y-97456247D01*
X127585713Y-97456247D02*
X127585713Y-97313390D01*
X127585713Y-97313390D02*
X127538094Y-97122914D01*
X127538094Y-97122914D02*
X127490475Y-97027676D01*
X127490475Y-97027676D02*
X127395237Y-96932438D01*
X127395237Y-96932438D02*
X127252380Y-96884819D01*
X127252380Y-96884819D02*
X127157142Y-96884819D01*
X127157142Y-96884819D02*
X127014285Y-96932438D01*
X127014285Y-96932438D02*
X126966666Y-96980057D01*
X126633332Y-96884819D02*
X126014285Y-96884819D01*
X126014285Y-96884819D02*
X126347618Y-97265771D01*
X126347618Y-97265771D02*
X126204761Y-97265771D01*
X126204761Y-97265771D02*
X126109523Y-97313390D01*
X126109523Y-97313390D02*
X126061904Y-97361009D01*
X126061904Y-97361009D02*
X126014285Y-97456247D01*
X126014285Y-97456247D02*
X126014285Y-97694342D01*
X126014285Y-97694342D02*
X126061904Y-97789580D01*
X126061904Y-97789580D02*
X126109523Y-97837200D01*
X126109523Y-97837200D02*
X126204761Y-97884819D01*
X126204761Y-97884819D02*
X126490475Y-97884819D01*
X126490475Y-97884819D02*
X126585713Y-97837200D01*
X126585713Y-97837200D02*
X126633332Y-97789580D01*
X87539580Y-96983333D02*
X87587200Y-96935714D01*
X87587200Y-96935714D02*
X87634819Y-96792857D01*
X87634819Y-96792857D02*
X87634819Y-96697619D01*
X87634819Y-96697619D02*
X87587200Y-96554762D01*
X87587200Y-96554762D02*
X87491961Y-96459524D01*
X87491961Y-96459524D02*
X87396723Y-96411905D01*
X87396723Y-96411905D02*
X87206247Y-96364286D01*
X87206247Y-96364286D02*
X87063390Y-96364286D01*
X87063390Y-96364286D02*
X86872914Y-96411905D01*
X86872914Y-96411905D02*
X86777676Y-96459524D01*
X86777676Y-96459524D02*
X86682438Y-96554762D01*
X86682438Y-96554762D02*
X86634819Y-96697619D01*
X86634819Y-96697619D02*
X86634819Y-96792857D01*
X86634819Y-96792857D02*
X86682438Y-96935714D01*
X86682438Y-96935714D02*
X86730057Y-96983333D01*
X86634819Y-97888095D02*
X86634819Y-97411905D01*
X86634819Y-97411905D02*
X87111009Y-97364286D01*
X87111009Y-97364286D02*
X87063390Y-97411905D01*
X87063390Y-97411905D02*
X87015771Y-97507143D01*
X87015771Y-97507143D02*
X87015771Y-97745238D01*
X87015771Y-97745238D02*
X87063390Y-97840476D01*
X87063390Y-97840476D02*
X87111009Y-97888095D01*
X87111009Y-97888095D02*
X87206247Y-97935714D01*
X87206247Y-97935714D02*
X87444342Y-97935714D01*
X87444342Y-97935714D02*
X87539580Y-97888095D01*
X87539580Y-97888095D02*
X87587200Y-97840476D01*
X87587200Y-97840476D02*
X87634819Y-97745238D01*
X87634819Y-97745238D02*
X87634819Y-97507143D01*
X87634819Y-97507143D02*
X87587200Y-97411905D01*
X87587200Y-97411905D02*
X87539580Y-97364286D01*
X84611913Y-70459819D02*
X84611913Y-69459819D01*
X84611913Y-69459819D02*
X84278580Y-70174104D01*
X84278580Y-70174104D02*
X83945247Y-69459819D01*
X83945247Y-69459819D02*
X83945247Y-70459819D01*
X83564294Y-69459819D02*
X82897628Y-70459819D01*
X82897628Y-69459819D02*
X83564294Y-70459819D01*
X82088104Y-69793152D02*
X82088104Y-70459819D01*
X82326199Y-69412200D02*
X82564294Y-70126485D01*
X82564294Y-70126485D02*
X81945247Y-70126485D01*
X87664580Y-54607142D02*
X87712200Y-54559523D01*
X87712200Y-54559523D02*
X87759819Y-54416666D01*
X87759819Y-54416666D02*
X87759819Y-54321428D01*
X87759819Y-54321428D02*
X87712200Y-54178571D01*
X87712200Y-54178571D02*
X87616961Y-54083333D01*
X87616961Y-54083333D02*
X87521723Y-54035714D01*
X87521723Y-54035714D02*
X87331247Y-53988095D01*
X87331247Y-53988095D02*
X87188390Y-53988095D01*
X87188390Y-53988095D02*
X86997914Y-54035714D01*
X86997914Y-54035714D02*
X86902676Y-54083333D01*
X86902676Y-54083333D02*
X86807438Y-54178571D01*
X86807438Y-54178571D02*
X86759819Y-54321428D01*
X86759819Y-54321428D02*
X86759819Y-54416666D01*
X86759819Y-54416666D02*
X86807438Y-54559523D01*
X86807438Y-54559523D02*
X86855057Y-54607142D01*
X87759819Y-55559523D02*
X87759819Y-54988095D01*
X87759819Y-55273809D02*
X86759819Y-55273809D01*
X86759819Y-55273809D02*
X86902676Y-55178571D01*
X86902676Y-55178571D02*
X86997914Y-55083333D01*
X86997914Y-55083333D02*
X87045533Y-54988095D01*
X86759819Y-56178571D02*
X86759819Y-56273809D01*
X86759819Y-56273809D02*
X86807438Y-56369047D01*
X86807438Y-56369047D02*
X86855057Y-56416666D01*
X86855057Y-56416666D02*
X86950295Y-56464285D01*
X86950295Y-56464285D02*
X87140771Y-56511904D01*
X87140771Y-56511904D02*
X87378866Y-56511904D01*
X87378866Y-56511904D02*
X87569342Y-56464285D01*
X87569342Y-56464285D02*
X87664580Y-56416666D01*
X87664580Y-56416666D02*
X87712200Y-56369047D01*
X87712200Y-56369047D02*
X87759819Y-56273809D01*
X87759819Y-56273809D02*
X87759819Y-56178571D01*
X87759819Y-56178571D02*
X87712200Y-56083333D01*
X87712200Y-56083333D02*
X87664580Y-56035714D01*
X87664580Y-56035714D02*
X87569342Y-55988095D01*
X87569342Y-55988095D02*
X87378866Y-55940476D01*
X87378866Y-55940476D02*
X87140771Y-55940476D01*
X87140771Y-55940476D02*
X86950295Y-55988095D01*
X86950295Y-55988095D02*
X86855057Y-56035714D01*
X86855057Y-56035714D02*
X86807438Y-56083333D01*
X86807438Y-56083333D02*
X86759819Y-56178571D01*
X114209580Y-98033333D02*
X114257200Y-97985714D01*
X114257200Y-97985714D02*
X114304819Y-97842857D01*
X114304819Y-97842857D02*
X114304819Y-97747619D01*
X114304819Y-97747619D02*
X114257200Y-97604762D01*
X114257200Y-97604762D02*
X114161961Y-97509524D01*
X114161961Y-97509524D02*
X114066723Y-97461905D01*
X114066723Y-97461905D02*
X113876247Y-97414286D01*
X113876247Y-97414286D02*
X113733390Y-97414286D01*
X113733390Y-97414286D02*
X113542914Y-97461905D01*
X113542914Y-97461905D02*
X113447676Y-97509524D01*
X113447676Y-97509524D02*
X113352438Y-97604762D01*
X113352438Y-97604762D02*
X113304819Y-97747619D01*
X113304819Y-97747619D02*
X113304819Y-97842857D01*
X113304819Y-97842857D02*
X113352438Y-97985714D01*
X113352438Y-97985714D02*
X113400057Y-98033333D01*
X113638152Y-98890476D02*
X114304819Y-98890476D01*
X113257200Y-98652381D02*
X113971485Y-98414286D01*
X113971485Y-98414286D02*
X113971485Y-99033333D01*
X157175580Y-82703333D02*
X157223200Y-82655714D01*
X157223200Y-82655714D02*
X157270819Y-82512857D01*
X157270819Y-82512857D02*
X157270819Y-82417619D01*
X157270819Y-82417619D02*
X157223200Y-82274762D01*
X157223200Y-82274762D02*
X157127961Y-82179524D01*
X157127961Y-82179524D02*
X157032723Y-82131905D01*
X157032723Y-82131905D02*
X156842247Y-82084286D01*
X156842247Y-82084286D02*
X156699390Y-82084286D01*
X156699390Y-82084286D02*
X156508914Y-82131905D01*
X156508914Y-82131905D02*
X156413676Y-82179524D01*
X156413676Y-82179524D02*
X156318438Y-82274762D01*
X156318438Y-82274762D02*
X156270819Y-82417619D01*
X156270819Y-82417619D02*
X156270819Y-82512857D01*
X156270819Y-82512857D02*
X156318438Y-82655714D01*
X156318438Y-82655714D02*
X156366057Y-82703333D01*
X156366057Y-83084286D02*
X156318438Y-83131905D01*
X156318438Y-83131905D02*
X156270819Y-83227143D01*
X156270819Y-83227143D02*
X156270819Y-83465238D01*
X156270819Y-83465238D02*
X156318438Y-83560476D01*
X156318438Y-83560476D02*
X156366057Y-83608095D01*
X156366057Y-83608095D02*
X156461295Y-83655714D01*
X156461295Y-83655714D02*
X156556533Y-83655714D01*
X156556533Y-83655714D02*
X156699390Y-83608095D01*
X156699390Y-83608095D02*
X157270819Y-83036667D01*
X157270819Y-83036667D02*
X157270819Y-83655714D01*
X114234580Y-77308333D02*
X114282200Y-77260714D01*
X114282200Y-77260714D02*
X114329819Y-77117857D01*
X114329819Y-77117857D02*
X114329819Y-77022619D01*
X114329819Y-77022619D02*
X114282200Y-76879762D01*
X114282200Y-76879762D02*
X114186961Y-76784524D01*
X114186961Y-76784524D02*
X114091723Y-76736905D01*
X114091723Y-76736905D02*
X113901247Y-76689286D01*
X113901247Y-76689286D02*
X113758390Y-76689286D01*
X113758390Y-76689286D02*
X113567914Y-76736905D01*
X113567914Y-76736905D02*
X113472676Y-76784524D01*
X113472676Y-76784524D02*
X113377438Y-76879762D01*
X113377438Y-76879762D02*
X113329819Y-77022619D01*
X113329819Y-77022619D02*
X113329819Y-77117857D01*
X113329819Y-77117857D02*
X113377438Y-77260714D01*
X113377438Y-77260714D02*
X113425057Y-77308333D01*
X114329819Y-77784524D02*
X114329819Y-77975000D01*
X114329819Y-77975000D02*
X114282200Y-78070238D01*
X114282200Y-78070238D02*
X114234580Y-78117857D01*
X114234580Y-78117857D02*
X114091723Y-78213095D01*
X114091723Y-78213095D02*
X113901247Y-78260714D01*
X113901247Y-78260714D02*
X113520295Y-78260714D01*
X113520295Y-78260714D02*
X113425057Y-78213095D01*
X113425057Y-78213095D02*
X113377438Y-78165476D01*
X113377438Y-78165476D02*
X113329819Y-78070238D01*
X113329819Y-78070238D02*
X113329819Y-77879762D01*
X113329819Y-77879762D02*
X113377438Y-77784524D01*
X113377438Y-77784524D02*
X113425057Y-77736905D01*
X113425057Y-77736905D02*
X113520295Y-77689286D01*
X113520295Y-77689286D02*
X113758390Y-77689286D01*
X113758390Y-77689286D02*
X113853628Y-77736905D01*
X113853628Y-77736905D02*
X113901247Y-77784524D01*
X113901247Y-77784524D02*
X113948866Y-77879762D01*
X113948866Y-77879762D02*
X113948866Y-78070238D01*
X113948866Y-78070238D02*
X113901247Y-78165476D01*
X113901247Y-78165476D02*
X113853628Y-78213095D01*
X113853628Y-78213095D02*
X113758390Y-78260714D01*
%TO.C,MX9*%
X115199824Y-88736180D02*
X115199824Y-87936180D01*
X115199824Y-91586180D02*
X115199824Y-91826180D01*
X117199824Y-85936180D02*
X123099824Y-85936180D01*
X124599824Y-85936180D02*
X126149824Y-85936180D01*
X125649824Y-89986180D02*
X121085000Y-89986180D01*
X126149824Y-85936180D02*
X126149824Y-86166180D01*
X126149824Y-89016180D02*
X126149824Y-89486180D01*
X115199824Y-87936180D02*
G75*
G02*
X117199824Y-85936180I2000004J-4D01*
G01*
X118790678Y-91826180D02*
G75*
G02*
X121085000Y-89986180I2293456J-509332D01*
G01*
X126149824Y-89486180D02*
G75*
G02*
X125649824Y-89986180I-500001J1D01*
G01*
%TO.C,R8*%
D15*
X189860436Y-94265000D02*
X190314564Y-94265000D01*
X189860436Y-95735000D02*
X190314564Y-95735000D01*
%TO.C,MX1*%
D14*
X73289824Y-46849780D02*
X73289824Y-46049780D01*
X73289824Y-49699780D02*
X73289824Y-49939780D01*
X75289824Y-44049780D02*
X81189824Y-44049780D01*
X82689824Y-44049780D02*
X84239824Y-44049780D01*
X83739824Y-48099780D02*
X79175000Y-48099780D01*
X84239824Y-44049780D02*
X84239824Y-44279780D01*
X84239824Y-47129780D02*
X84239824Y-47599780D01*
X73289824Y-46049780D02*
G75*
G02*
X75289824Y-44049780I2000004J-4D01*
G01*
X76880678Y-49939780D02*
G75*
G02*
X79175000Y-48099780I2293456J-509332D01*
G01*
X84239824Y-47599780D02*
G75*
G02*
X83739824Y-48099780I-500001J1D01*
G01*
%TO.C,C1*%
D15*
X154205000Y-82608748D02*
X154205000Y-83131252D01*
X155675000Y-82608748D02*
X155675000Y-83131252D01*
%TO.C,MX10*%
D14*
X144964824Y-46876580D02*
X144964824Y-46076580D01*
X144964824Y-49726580D02*
X144964824Y-49966580D01*
X146964824Y-44076580D02*
X152864824Y-44076580D01*
X154364824Y-44076580D02*
X155914824Y-44076580D01*
X155414824Y-48126580D02*
X150850000Y-48126580D01*
X155914824Y-44076580D02*
X155914824Y-44306580D01*
X155914824Y-47156580D02*
X155914824Y-47626580D01*
X144964824Y-46076580D02*
G75*
G02*
X146964824Y-44076580I2000004J-4D01*
G01*
X148555678Y-49966580D02*
G75*
G02*
X150850000Y-48126580I2293456J-509332D01*
G01*
X155914824Y-47626580D02*
G75*
G02*
X155414824Y-48126580I-500001J1D01*
G01*
D15*
%TO.C,LED3*%
X117888600Y-54591200D02*
X117888600Y-54111200D01*
X117408600Y-54591200D01*
X117888600Y-54591200D01*
G36*
X117888600Y-54591200D02*
G01*
X117408600Y-54591200D01*
X117888600Y-54111200D01*
X117888600Y-54591200D01*
G37*
%TO.C,LED9*%
X117778600Y-96511800D02*
X117778600Y-96031800D01*
X117298600Y-96511800D01*
X117778600Y-96511800D01*
G36*
X117778600Y-96511800D02*
G01*
X117298600Y-96511800D01*
X117778600Y-96031800D01*
X117778600Y-96511800D01*
G37*
%TO.C,LED12*%
X189744200Y-54618000D02*
X189744200Y-54138000D01*
X189264200Y-54618000D01*
X189744200Y-54618000D01*
G36*
X189744200Y-54618000D02*
G01*
X189264200Y-54618000D01*
X189744200Y-54138000D01*
X189744200Y-54618000D01*
G37*
%TO.C,MX11*%
D14*
X165999824Y-46849780D02*
X165999824Y-46049780D01*
X165999824Y-49699780D02*
X165999824Y-49939780D01*
X167999824Y-44049780D02*
X173899824Y-44049780D01*
X175399824Y-44049780D02*
X176949824Y-44049780D01*
X176449824Y-48099780D02*
X171885000Y-48099780D01*
X176949824Y-44049780D02*
X176949824Y-44279780D01*
X176949824Y-47129780D02*
X176949824Y-47599780D01*
X165999824Y-46049780D02*
G75*
G02*
X167999824Y-44049780I2000004J-4D01*
G01*
X169590678Y-49939780D02*
G75*
G02*
X171885000Y-48099780I2293456J-509332D01*
G01*
X176949824Y-47599780D02*
G75*
G02*
X176449824Y-48099780I-500001J1D01*
G01*
%TO.C,C11*%
D15*
X106140000Y-55586252D02*
X106140000Y-55063748D01*
X107610000Y-55586252D02*
X107610000Y-55063748D01*
%TO.C,R1*%
X161190000Y-82680436D02*
X161190000Y-83134564D01*
X162660000Y-82680436D02*
X162660000Y-83134564D01*
%TO.C,MX3*%
D14*
X115199824Y-46849780D02*
X115199824Y-46049780D01*
X115199824Y-49699780D02*
X115199824Y-49939780D01*
X117199824Y-44049780D02*
X123099824Y-44049780D01*
X124599824Y-44049780D02*
X126149824Y-44049780D01*
X125649824Y-48099780D02*
X121085000Y-48099780D01*
X126149824Y-44049780D02*
X126149824Y-44279780D01*
X126149824Y-47129780D02*
X126149824Y-47599780D01*
X115199824Y-46049780D02*
G75*
G02*
X117199824Y-44049780I2000004J-4D01*
G01*
X118790678Y-49939780D02*
G75*
G02*
X121085000Y-48099780I2293456J-509332D01*
G01*
X126149824Y-47599780D02*
G75*
G02*
X125649824Y-48099780I-500001J1D01*
G01*
%TO.C,C12*%
D15*
X125563748Y-58265000D02*
X126086252Y-58265000D01*
X125563748Y-59735000D02*
X126086252Y-59735000D01*
%TO.C,R6*%
X196639564Y-94265000D02*
X196185436Y-94265000D01*
X196639564Y-95735000D02*
X196185436Y-95735000D01*
%TO.C,C6*%
X105840000Y-97461252D02*
X105840000Y-96938748D01*
X107310000Y-97461252D02*
X107310000Y-96938748D01*
%TO.C,MX5*%
D14*
X94244824Y-67804780D02*
X94244824Y-67004780D01*
X94244824Y-70654780D02*
X94244824Y-70894780D01*
X96244824Y-65004780D02*
X102144824Y-65004780D01*
X103644824Y-65004780D02*
X105194824Y-65004780D01*
X104694824Y-69054780D02*
X100130000Y-69054780D01*
X105194824Y-65004780D02*
X105194824Y-65234780D01*
X105194824Y-68084780D02*
X105194824Y-68554780D01*
X94244824Y-67004780D02*
G75*
G02*
X96244824Y-65004780I2000004J-4D01*
G01*
X97835678Y-70894780D02*
G75*
G02*
X100130000Y-69054780I2293456J-509332D01*
G01*
X105194824Y-68554780D02*
G75*
G02*
X104694824Y-69054780I-500001J1D01*
G01*
D15*
%TO.C,LED8*%
X96711100Y-96578800D02*
X96711100Y-96098800D01*
X96231100Y-96578800D01*
X96711100Y-96578800D01*
G36*
X96711100Y-96578800D02*
G01*
X96231100Y-96578800D01*
X96711100Y-96098800D01*
X96711100Y-96578800D01*
G37*
%TO.C,LED10*%
X147578400Y-54627800D02*
X147578400Y-54147800D01*
X147098400Y-54627800D01*
X147578400Y-54627800D01*
G36*
X147578400Y-54627800D02*
G01*
X147098400Y-54627800D01*
X147578400Y-54147800D01*
X147578400Y-54627800D01*
G37*
%TO.C,LED6*%
X117791000Y-75585000D02*
X117791000Y-75105000D01*
X117311000Y-75585000D01*
X117791000Y-75585000D01*
G36*
X117791000Y-75585000D02*
G01*
X117311000Y-75585000D01*
X117791000Y-75105000D01*
X117791000Y-75585000D01*
G37*
%TO.C,C14*%
X165340000Y-56836252D02*
X165340000Y-56313748D01*
X166810000Y-56836252D02*
X166810000Y-56313748D01*
%TO.C,R3*%
X190272936Y-68265000D02*
X190727064Y-68265000D01*
X190272936Y-69735000D02*
X190727064Y-69735000D01*
%TO.C,C7*%
X83815000Y-76436252D02*
X83815000Y-75913748D01*
X85285000Y-76436252D02*
X85285000Y-75913748D01*
%TO.C,LED2*%
X96933600Y-54567200D02*
X96933600Y-54087200D01*
X96453600Y-54567200D01*
X96933600Y-54567200D01*
G36*
X96933600Y-54567200D02*
G01*
X96453600Y-54567200D01*
X96933600Y-54087200D01*
X96933600Y-54567200D01*
G37*
%TO.C,MX2*%
D14*
X94244824Y-46849780D02*
X94244824Y-46049780D01*
X94244824Y-49699780D02*
X94244824Y-49939780D01*
X96244824Y-44049780D02*
X102144824Y-44049780D01*
X103644824Y-44049780D02*
X105194824Y-44049780D01*
X104694824Y-48099780D02*
X100130000Y-48099780D01*
X105194824Y-44049780D02*
X105194824Y-44279780D01*
X105194824Y-47129780D02*
X105194824Y-47599780D01*
X94244824Y-46049780D02*
G75*
G02*
X96244824Y-44049780I2000004J-4D01*
G01*
X97835678Y-49939780D02*
G75*
G02*
X100130000Y-48099780I2293456J-509332D01*
G01*
X105194824Y-47599780D02*
G75*
G02*
X104694824Y-48099780I-500001J1D01*
G01*
%TO.C,R2*%
D15*
X169445000Y-83134564D02*
X169445000Y-82680436D01*
X170915000Y-83134564D02*
X170915000Y-82680436D01*
%TO.C,LED4*%
X75602800Y-75546200D02*
X75602800Y-75066200D01*
X75122800Y-75546200D01*
X75602800Y-75546200D01*
G36*
X75602800Y-75546200D02*
G01*
X75122800Y-75546200D01*
X75602800Y-75066200D01*
X75602800Y-75546200D01*
G37*
%TO.C,R5*%
X196814564Y-73265000D02*
X196360436Y-73265000D01*
X196814564Y-74735000D02*
X196360436Y-74735000D01*
%TO.C,LED5*%
X96817600Y-75542800D02*
X96817600Y-75062800D01*
X96337600Y-75542800D01*
X96817600Y-75542800D01*
G36*
X96817600Y-75542800D02*
G01*
X96337600Y-75542800D01*
X96817600Y-75062800D01*
X96817600Y-75542800D01*
G37*
%TO.C,C15*%
X186390000Y-56811252D02*
X186390000Y-56288748D01*
X187860000Y-56811252D02*
X187860000Y-56288748D01*
%TO.C,Q2*%
X164302000Y-82122500D02*
X164302000Y-83642500D01*
X164302000Y-83642500D02*
X164352000Y-83642500D01*
X165302000Y-82122500D02*
X164302000Y-82122500D01*
X165472000Y-83642500D02*
X166252000Y-83642500D01*
X167372000Y-83642500D02*
X167422000Y-83642500D01*
X167422000Y-82122500D02*
X166422000Y-82122500D01*
X167422000Y-83642500D02*
X167422000Y-82122500D01*
X166242000Y-84182500D02*
X165912000Y-83942500D01*
X165912000Y-84422500D01*
X166242000Y-84182500D01*
G36*
X166242000Y-84182500D02*
G01*
X165912000Y-84422500D01*
X165912000Y-83942500D01*
X166242000Y-84182500D01*
G37*
%TO.C,MX8*%
D14*
X94152524Y-88759780D02*
X94152524Y-87959780D01*
X94152524Y-91609780D02*
X94152524Y-91849780D01*
X96152524Y-85959780D02*
X102052524Y-85959780D01*
X103552524Y-85959780D02*
X105102524Y-85959780D01*
X104602524Y-90009780D02*
X100037700Y-90009780D01*
X105102524Y-85959780D02*
X105102524Y-86189780D01*
X105102524Y-89039780D02*
X105102524Y-89509780D01*
X94152524Y-87959780D02*
G75*
G02*
X96152524Y-85959780I2000004J-4D01*
G01*
X97743378Y-91849780D02*
G75*
G02*
X100037700Y-90009780I2293456J-509332D01*
G01*
X105102524Y-89509780D02*
G75*
G02*
X104602524Y-90009780I-500001J1D01*
G01*
%TO.C,R7*%
D15*
X189685436Y-89265000D02*
X190139564Y-89265000D01*
X189685436Y-90735000D02*
X190139564Y-90735000D01*
%TO.C,R4*%
X190360436Y-73265000D02*
X190814564Y-73265000D01*
X190360436Y-74735000D02*
X190814564Y-74735000D01*
%TO.C,C8*%
X106565000Y-76361252D02*
X106565000Y-75838748D01*
X108035000Y-76361252D02*
X108035000Y-75838748D01*
%TO.C,MX7*%
D14*
X72991024Y-88736180D02*
X72991024Y-87936180D01*
X72991024Y-91586180D02*
X72991024Y-91826180D01*
X74991024Y-85936180D02*
X80891024Y-85936180D01*
X82391024Y-85936180D02*
X83941024Y-85936180D01*
X83441024Y-89986180D02*
X78876200Y-89986180D01*
X83941024Y-85936180D02*
X83941024Y-86166180D01*
X83941024Y-89016180D02*
X83941024Y-89486180D01*
X72991024Y-87936180D02*
G75*
G02*
X74991024Y-85936180I2000004J-4D01*
G01*
X76581878Y-91826180D02*
G75*
G02*
X78876200Y-89986180I2293456J-509332D01*
G01*
X83941024Y-89486180D02*
G75*
G02*
X83441024Y-89986180I-500001J1D01*
G01*
%TO.C,MX6*%
X115199824Y-67804780D02*
X115199824Y-67004780D01*
X115199824Y-70654780D02*
X115199824Y-70894780D01*
X117199824Y-65004780D02*
X123099824Y-65004780D01*
X124599824Y-65004780D02*
X126149824Y-65004780D01*
X125649824Y-69054780D02*
X121085000Y-69054780D01*
X126149824Y-65004780D02*
X126149824Y-65234780D01*
X126149824Y-68084780D02*
X126149824Y-68554780D01*
X115199824Y-67004780D02*
G75*
G02*
X117199824Y-65004780I2000004J-4D01*
G01*
X118790678Y-70894780D02*
G75*
G02*
X121085000Y-69054780I2293456J-509332D01*
G01*
X126149824Y-68554780D02*
G75*
G02*
X125649824Y-69054780I-500001J1D01*
G01*
D15*
%TO.C,LED1*%
X75797200Y-54601000D02*
X75797200Y-54121000D01*
X75317200Y-54601000D01*
X75797200Y-54601000D01*
G36*
X75797200Y-54601000D02*
G01*
X75317200Y-54601000D01*
X75797200Y-54121000D01*
X75797200Y-54601000D01*
G37*
%TO.C,MX12*%
D14*
X187134824Y-46849780D02*
X187134824Y-46049780D01*
X187134824Y-49699780D02*
X187134824Y-49939780D01*
X189134824Y-44049780D02*
X195034824Y-44049780D01*
X196534824Y-44049780D02*
X198084824Y-44049780D01*
X197584824Y-48099780D02*
X193020000Y-48099780D01*
X198084824Y-44049780D02*
X198084824Y-44279780D01*
X198084824Y-47129780D02*
X198084824Y-47599780D01*
X187134824Y-46049780D02*
G75*
G02*
X189134824Y-44049780I2000004J-4D01*
G01*
X190725678Y-49939780D02*
G75*
G02*
X193020000Y-48099780I2293456J-509332D01*
G01*
X198084824Y-47599780D02*
G75*
G02*
X197584824Y-48099780I-500001J1D01*
G01*
%TO.C,C13*%
D15*
X155940000Y-55561252D02*
X155940000Y-55038748D01*
X157410000Y-55561252D02*
X157410000Y-55038748D01*
%TO.C,LED7*%
X75639200Y-96555200D02*
X75639200Y-96075200D01*
X75159200Y-96555200D01*
X75639200Y-96555200D01*
G36*
X75639200Y-96555200D02*
G01*
X75159200Y-96555200D01*
X75639200Y-96075200D01*
X75639200Y-96555200D01*
G37*
%TO.C,LED11*%
X168595600Y-54591200D02*
X168595600Y-54111200D01*
X168115600Y-54591200D01*
X168595600Y-54591200D01*
G36*
X168595600Y-54591200D02*
G01*
X168115600Y-54591200D01*
X168595600Y-54111200D01*
X168595600Y-54591200D01*
G37*
%TO.C,C3*%
X126538748Y-95015000D02*
X127061252Y-95015000D01*
X126538748Y-96485000D02*
X127061252Y-96485000D01*
%TO.C,C5*%
X84765000Y-97411252D02*
X84765000Y-96888748D01*
X86235000Y-97411252D02*
X86235000Y-96888748D01*
%TO.C,MX4*%
D14*
X72991024Y-67804780D02*
X72991024Y-67004780D01*
X72991024Y-70654780D02*
X72991024Y-70894780D01*
X74991024Y-65004780D02*
X80891024Y-65004780D01*
X82391024Y-65004780D02*
X83941024Y-65004780D01*
X83441024Y-69054780D02*
X78876200Y-69054780D01*
X83941024Y-65004780D02*
X83941024Y-65234780D01*
X83941024Y-68084780D02*
X83941024Y-68554780D01*
X72991024Y-67004780D02*
G75*
G02*
X74991024Y-65004780I2000004J-4D01*
G01*
X76581878Y-70894780D02*
G75*
G02*
X78876200Y-69054780I2293456J-509332D01*
G01*
X83941024Y-68554780D02*
G75*
G02*
X83441024Y-69054780I-500001J1D01*
G01*
%TO.C,C10*%
D15*
X84890000Y-55511252D02*
X84890000Y-54988748D01*
X86360000Y-55511252D02*
X86360000Y-54988748D01*
%TO.C,C4*%
X114715000Y-98611252D02*
X114715000Y-98088748D01*
X116185000Y-98611252D02*
X116185000Y-98088748D01*
%TO.C,C2*%
X157761000Y-82608748D02*
X157761000Y-83131252D01*
X159231000Y-82608748D02*
X159231000Y-83131252D01*
%TO.C,C9*%
X114715000Y-77861252D02*
X114715000Y-77338748D01*
X116185000Y-77861252D02*
X116185000Y-77338748D01*
%TD*%
M02*
