M48
; DRILL file KiCad 10.0.5 date 2026-07-31T21:24:07
; FORMAT={-:-/ absolute / metric / decimal}
; #@! TF.CreationDate,2026-07-31T21:24:07+01:00
; #@! TF.GenerationSoftware,Kicad,Pcbnew,10.0.5
; #@! TF.FileFunction,NonPlated,1,2,NPTH
FMAT,2
METRIC
; #@! TA.AperFunction,NonPlated,NPTH,ComponentDrill
T1C1.750
; #@! TA.AperFunction,NonPlated,NPTH,ComponentDrill
T2C3.988
%
G90
G05
T1
X73.996Y-71.755
X73.996Y-92.686
X74.295Y-50.8
X84.156Y-71.755
X84.156Y-92.686
X84.455Y-50.8
X95.158Y-92.71
X95.25Y-50.8
X95.25Y-71.755
X105.318Y-92.71
X105.41Y-50.8
X105.41Y-71.755
X116.205Y-50.8
X116.205Y-71.755
X116.205Y-92.686
X126.365Y-50.8
X126.365Y-71.755
X126.365Y-92.686
X145.97Y-50.827
X156.13Y-50.827
X167.005Y-50.8
X177.165Y-50.8
X188.14Y-50.8
X198.3Y-50.8
T2
X79.076Y-71.755
X79.076Y-92.686
X79.375Y-50.8
X100.238Y-92.71
X100.33Y-50.8
X100.33Y-71.755
X121.285Y-50.8
X121.285Y-71.755
X121.285Y-92.686
X151.05Y-50.827
X172.085Y-50.8
X193.22Y-50.8
M30
